{
copyright = "Copyright (c) 2015, Cadson Demak (info@cadsondemak.com)";
customParameters = (
{
name = vendorID;
value = CDK;
},
{
name = description;
value = "Copyright (c) 2015, Cadson Demak (info@cadsondemak.com)";
},
{
name = license;

glyphs = (
{
glyphname = A;
lastChange = "2015-10-26 00:26:13 +0000";
layers = (
{
layerId = "3B510B5F-24E9-457B-9D94-D253B43C96E6";
name = Light;
paths = (
{
closed = 1;
nodes = (
"662 0 LINE",
"662 6 LINE",
"639 15 OFFCURVE",
"612 20 OFFCURVE",
"585 23 CURVE",
"342 704 LINE",
"328 704 LINE",
"85 23 LINE",
"58 20 OFFCURVE",
"31 15 OFFCURVE",
"8 6 CURVE",
"8 0 LINE",
"195 0 LINE",
"195 6 LINE",
"178 13 OFFCURVE",
"153 17 OFFCURVE",
"111 21 CURVE",
"335 647 LINE",
"559 21 LINE",
"517 17 OFFCURVE",
"492 13 OFFCURVE",
"475 6 CURVE",
"475 0 LINE"
);
},
{
closed = 1;
nodes = (
"508 186 LINE",
"508 208 LINE",
"160 208 LINE",
"160 186 LINE"
);
}
);
width = 670;
}
);
leftKerningGroup = A;
note = A;
rightKerningGroup = A;
unicode = 0041;
},
{
glyphname = Aacute;
layers = (
{
layerId = "3B510B5F-24E9-457B-9D94-D253B43C96E6";
name = Light;
paths = (
{
closed = 1;
nodes = (
"662 0 LINE",
"662 6 LINE",
"639 15 OFFCURVE",
"612 20 OFFCURVE",
"585 23 CURVE",
"342 704 LINE",
"328 704 LINE",
"85 23 LINE",
"58 20 OFFCURVE",
"31 15 OFFCURVE",
"8 6 CURVE",
"8 0 LINE",
"195 0 LINE",
"195 6 LINE",
"178 13 OFFCURVE",
"153 17 OFFCURVE",
"111 21 CURVE",
"335 647 LINE",
"559 21 LINE",
"517 17 OFFCURVE",
"492 13 OFFCURVE",
"475 6 CURVE",
"475 0 LINE"
);
},
{
closed = 1;
nodes = (
"508 186 LINE",
"508 208 LINE",
"160 208 LINE",
"160 186 LINE"
);
},
{
closed = 1;
nodes = (
"456 859 LINE SMOOTH",
"467 865 OFFCURVE",
"472 874 OFFCURVE",
"472 882 CURVE SMOOTH",
"472 891 OFFCURVE",
"465 896 OFFCURVE",
"458 896 CURVE SMOOTH",
"448 896 OFFCURVE",
"439 891 OFFCURVE",
"432 884 CURVE",
"325 797 LINE",
"332 787 LINE"
);
}
);
width = 670;
}
);
leftKerningGroup = A;
note = Aacute;
rightKerningGroup = A;
unicode = 00C1;
},
{
glyphname = Abreve;
layers = (
{
layerId = "3B510B5F-24E9-457B-9D94-D253B43C96E6";
name = Light;
paths = (
{
closed = 1;
nodes = (
"662 0 LINE",
"662 6 LINE",
"639 15 OFFCURVE",
"612 20 OFFCURVE",
"585 23 CURVE",
"342 704 LINE",
"328 704 LINE",
"85 23 LINE",
"58 20 OFFCURVE",
"31 15 OFFCURVE",
"8 6 CURVE",
"8 0 LINE",
"195 0 LINE",
"195 6 LINE",
"178 13 OFFCURVE",
"153 17 OFFCURVE",
"111 21 CURVE",
"335 647 LINE",
"559 21 LINE",
"517 17 OFFCURVE",
"492 13 OFFCURVE",
"475 6 CURVE",
"475 0 LINE"
);
},
{
closed = 1;
nodes = (
"508 186 LINE",
"508 208 LINE",
"160 208 LINE",
"160 186 LINE"
);
},
{
closed = 1;
nodes = (
"405 771 OFFCURVE",
"458 806 OFFCURVE",
"464 884 CURVE",
"438 884 LINE",
"429 805 OFFCURVE",
"375 793 OFFCURVE",
"334 793 CURVE SMOOTH",
"293 793 OFFCURVE",
"239 805 OFFCURVE",
"230 884 CURVE",
"204 884 LINE",
"210 806 OFFCURVE",
"263 771 OFFCURVE",
"334 771 CURVE SMOOTH"
);
}
);
width = 670;
}
);
leftKerningGroup = A;
note = Abreve;
rightKerningGroup = A;
unicode = 0102;
},
{
glyphname = Abreveacute;
layers = (
{
layerId = "3B510B5F-24E9-457B-9D94-D253B43C96E6";
name = Light;
paths = (
{
closed = 1;
nodes = (
"662 0 LINE",
"662 6 LINE",
"639 15 OFFCURVE",
"612 20 OFFCURVE",
"585 23 CURVE",
"342 704 LINE",
"328 704 LINE",
"85 23 LINE",
"58 20 OFFCURVE",
"31 15 OFFCURVE",
"8 6 CURVE",
"8 0 LINE",
"195 0 LINE",
"195 6 LINE",
"178 13 OFFCURVE",
"153 17 OFFCURVE",
"111 21 CURVE",
"335 647 LINE",
"559 21 LINE",
"517 17 OFFCURVE",
"492 13 OFFCURVE",
"475 6 CURVE",
"475 0 LINE"
);
},
{
closed = 1;
nodes = (
"508 186 LINE",
"508 208 LINE",
"160 208 LINE",
"160 186 LINE"
);
},
{
closed = 1;
nodes = (
"439 874 LINE",
"430 815 OFFCURVE",
"376 803 OFFCURVE",
"335 803 CURVE SMOOTH",
"294 803 OFFCURVE",
"240 815 OFFCURVE",
"231 874 CURVE",
"205 874 LINE",
"211 811 OFFCURVE",
"264 781 OFFCURVE",
"335 781 CURVE SMOOTH",
"406 781 OFFCURVE",
"459 811 OFFCURVE",
"465 874 CURVE"
);
},
{
closed = 1;
nodes = (
"435 956 LINE SMOOTH",
"446 962 OFFCURVE",
"451 971 OFFCURVE",
"451 979 CURVE SMOOTH",
"451 988 OFFCURVE",
"444 993 OFFCURVE",
"437 993 CURVE SMOOTH",
"427 993 OFFCURVE",
"418 988 OFFCURVE",
"411 981 CURVE",
"304 894 LINE",
"311 884 LINE"
);
}
);
width = 670;
}
);
leftKerningGroup = A;
note = Abreveacute;
rightKerningGroup = A;
unicode = 1EAE;
},
{
glyphname = Abrevedotbelow;
layers = (
{
layerId = "3B510B5F-24E9-457B-9D94-D253B43C96E6";
name = Light;
paths = (
{
closed = 1;
nodes = (
"662 0 LINE",
"662 6 LINE",
"639 15 OFFCURVE",
"612 20 OFFCURVE",
"585 23 CURVE",
"342 704 LINE",
"328 704 LINE",
"85 23 LINE",
"58 20 OFFCURVE",
"31 15 OFFCURVE",
"8 6 CURVE",
"8 0 LINE",
"195 0 LINE",
"195 6 LINE",
"178 13 OFFCURVE",
"153 17 OFFCURVE",
"111 21 CURVE",
"335 647 LINE",
"559 21 LINE",
"517 17 OFFCURVE",
"492 13 OFFCURVE",
"475 6 CURVE",
"475 0 LINE"
);
},
{
closed = 1;
nodes = (
"508 186 LINE",
"508 208 LINE",
"160 208 LINE",
"160 186 LINE"
);
},
{
closed = 1;
nodes = (
"405 771 OFFCURVE",
"458 806 OFFCURVE",
"464 884 CURVE",
"438 884 LINE",
"429 805 OFFCURVE",
"375 793 OFFCURVE",
"334 793 CURVE SMOOTH",
"293 793 OFFCURVE",
"239 805 OFFCURVE",
"230 884 CURVE",
"204 884 LINE",
"210 806 OFFCURVE",
"263 771 OFFCURVE",
"334 771 CURVE SMOOTH"
);
},
{
closed = 1;
nodes = (
"307 -113 OFFCURVE",
"319 -124 OFFCURVE",
"335 -124 CURVE SMOOTH",
"351 -124 OFFCURVE",
"363 -113 OFFCURVE",
"363 -94 CURVE SMOOTH",
"363 -75 OFFCURVE",
"351 -64 OFFCURVE",
"335 -64 CURVE SMOOTH",
"319 -64 OFFCURVE",
"307 -75 OFFCURVE",
"307 -94 CURVE SMOOTH"
);
}
);
width = 670;
}
);
leftKerningGroup = A;
note = Abrevedotbelow;
rightKerningGroup = A;
unicode = 1EB6;
},
{
glyphname = Abrevegrave;
layers = (
{
layerId = "3B510B5F-24E9-457B-9D94-D253B43C96E6";
name = Light;
paths = (
{
closed = 1;
nodes = (
"662 0 LINE",
"662 6 LINE",
"639 15 OFFCURVE",
"612 20 OFFCURVE",
"585 23 CURVE",
"342 704 LINE",
"328 704 LINE",
"85 23 LINE",
"58 20 OFFCURVE",
"31 15 OFFCURVE",
"8 6 CURVE",
"8 0 LINE",
"195 0 LINE",
"195 6 LINE",
"178 13 OFFCURVE",
"153 17 OFFCURVE",
"111 21 CURVE",
"335 647 LINE",
"559 21 LINE",
"517 17 OFFCURVE",
"492 13 OFFCURVE",
"475 6 CURVE",
"475 0 LINE"
);
},
{
closed = 1;
nodes = (
"508 186 LINE",
"508 208 LINE",
"160 208 LINE",
"160 186 LINE"
);
},
{
closed = 1;
nodes = (
"440 874 LINE",
"431 815 OFFCURVE",
"377 803 OFFCURVE",
"336 803 CURVE SMOOTH",
"295 803 OFFCURVE",
"241 815 OFFCURVE",
"232 874 CURVE",
"206 874 LINE",
"212 811 OFFCURVE",
"265 781 OFFCURVE",
"336 781 CURVE SMOOTH",
"407 781 OFFCURVE",
"460 811 OFFCURVE",
"466 874 CURVE"
);
},
{
closed = 1;
nodes = (
"345 884 LINE",
"352 894 LINE",
"245 981 LINE",
"238 988 OFFCURVE",
"229 993 OFFCURVE",
"219 993 CURVE SMOOTH",
"212 993 OFFCURVE",
"205 988 OFFCURVE",
"205 979 CURVE SMOOTH",
"205 971 OFFCURVE",
"210 962 OFFCURVE",
"221 956 CURVE SMOOTH"
);
}
);
width = 670;
}
);
leftKerningGroup = A;
note = Abrevegrave;
rightKerningGroup = A;
unicode = 1EB0;
},
{
glyphname = Abrevehookabove;
layers = (
{
layerId = "3B510B5F-24E9-457B-9D94-D253B43C96E6";
name = Light;
paths = (
{
closed = 1;
nodes = (
"662 0 LINE",
"662 6 LINE",
"639 15 OFFCURVE",
"612 20 OFFCURVE",
"585 23 CURVE",
"342 704 LINE",
"328 704 LINE",
"85 23 LINE",
"58 20 OFFCURVE",
"31 15 OFFCURVE",
"8 6 CURVE",
"8 0 LINE",
"195 0 LINE",
"195 6 LINE",
"178 13 OFFCURVE",
"153 17 OFFCURVE",
"111 21 CURVE",
"335 647 LINE",
"559 21 LINE",
"517 17 OFFCURVE",
"492 13 OFFCURVE",
"475 6 CURVE",
"475 0 LINE"
);
},
{
closed = 1;
nodes = (
"508 186 LINE",
"508 208 LINE",
"160 208 LINE",
"160 186 LINE"
);
},
{
closed = 1;
nodes = (
"439 874 LINE",
"430 815 OFFCURVE",
"376 803 OFFCURVE",
"335 803 CURVE SMOOTH",
"294 803 OFFCURVE",
"240 815 OFFCURVE",
"231 874 CURVE",
"205 874 LINE",
"211 811 OFFCURVE",
"264 781 OFFCURVE",
"335 781 CURVE SMOOTH",
"406 781 OFFCURVE",
"459 811 OFFCURVE",
"465 874 CURVE"
);
},
{
closed = 1;
nodes = (
"340 860 LINE",
"349 908 LINE",
"391 913 OFFCURVE",
"410 931 OFFCURVE",
"410 964 CURVE SMOOTH",
"410 1003 OFFCURVE",
"379 1018 OFFCURVE",
"347 1018 CURVE SMOOTH",
"326 1018 OFFCURVE",
"305 1012 OFFCURVE",
"292 1005 CURVE",
"297 988 LINE",
"313 997 OFFCURVE",
"328 1000 OFFCURVE",
"341 1000 CURVE SMOOTH",
"372 1000 OFFCURVE",
"386 986 OFFCURVE",
"386 965 CURVE SMOOTH",
"386 944 OFFCURVE",
"373 923 OFFCURVE",
"329 923 CURVE SMOOTH",
"320 923 LINE",
"325 860 LINE"
);
}
);
width = 670;
}
);
leftKerningGroup = A;
note = Abrevehookabove;
rightKerningGroup = A;
unicode = 1EB2;
},
{
glyphname = Abrevetilde;
layers = (
{
layerId = "3B510B5F-24E9-457B-9D94-D253B43C96E6";
name = Light;
paths = (
{
closed = 1;
nodes = (
"662 0 LINE",
"662 6 LINE",
"639 15 OFFCURVE",
"612 20 OFFCURVE",
"585 23 CURVE",
"342 704 LINE",
"328 704 LINE",
"85 23 LINE",
"58 20 OFFCURVE",
"31 15 OFFCURVE",
"8 6 CURVE",
"8 0 LINE",
"195 0 LINE",
"195 6 LINE",
"178 13 OFFCURVE",
"153 17 OFFCURVE",
"111 21 CURVE",
"335 647 LINE",
"559 21 LINE",
"517 17 OFFCURVE",
"492 13 OFFCURVE",
"475 6 CURVE",
"475 0 LINE"
);
},
{
closed = 1;
nodes = (
"508 186 LINE",
"508 208 LINE",
"160 208 LINE",
"160 186 LINE"
);
},
{
closed = 1;
nodes = (
"439 874 LINE",
"430 815 OFFCURVE",
"376 803 OFFCURVE",
"335 803 CURVE SMOOTH",
"294 803 OFFCURVE",
"240 815 OFFCURVE",
"231 874 CURVE",
"205 874 LINE",
"211 811 OFFCURVE",
"264 781 OFFCURVE",
"335 781 CURVE SMOOTH",
"406 781 OFFCURVE",
"459 811 OFFCURVE",
"465 874 CURVE"
);
},
{
closed = 1;
nodes = (
"463 1029 LINE",
"453 989 OFFCURVE",
"436 963 OFFCURVE",
"402 963 CURVE SMOOTH",
"361 963 OFFCURVE",
"313 1022 OFFCURVE",
"270 1022 CURVE SMOOTH",
"234 1022 OFFCURVE",
"204 998 OFFCURVE",
"196 937 CURVE",
"207 937 LINE",
"217 975 OFFCURVE",
"237 999 OFFCURVE",
"268 999 CURVE SMOOTH",
"312 999 OFFCURVE",
"357 939 OFFCURVE",
"399 939 CURVE SMOOTH",
"439 939 OFFCURVE",
"465 973 OFFCURVE",
"474 1029 CURVE"
);
}
);
width = 670;
}
);
leftKerningGroup = A;
note = Abrevetilde;
rightKerningGroup = A;
unicode = 1EB4;
},
{
glyphname = Acaron;
layers = (
{
layerId = "3B510B5F-24E9-457B-9D94-D253B43C96E6";
name = Light;
paths = (
{
closed = 1;
nodes = (
"662 0 LINE",
"662 6 LINE",
"639 15 OFFCURVE",
"612 20 OFFCURVE",
"585 23 CURVE",
"342 704 LINE",
"328 704 LINE",
"85 23 LINE",
"58 20 OFFCURVE",
"31 15 OFFCURVE",
"8 6 CURVE",
"8 0 LINE",
"195 0 LINE",
"195 6 LINE",
"178 13 OFFCURVE",
"153 17 OFFCURVE",
"111 21 CURVE",
"335 647 LINE",
"559 21 LINE",
"517 17 OFFCURVE",
"492 13 OFFCURVE",
"475 6 CURVE",
"475 0 LINE"
);
},
{
closed = 1;
nodes = (
"508 186 LINE",
"508 208 LINE",
"160 208 LINE",
"160 186 LINE"
);
},
{
closed = 1;
nodes = (
"332 819 LINE",
"303 854 OFFCURVE",
"268 884 OFFCURVE",
"234 908 CURVE",
"221 890 LINE",
"257 864 OFFCURVE",
"294 833 OFFCURVE",
"328 787 CURVE",
"342 787 LINE",
"376 833 OFFCURVE",
"413 864 OFFCURVE",
"449 890 CURVE",
"436 908 LINE",
"402 884 OFFCURVE",
"367 854 OFFCURVE",
"338 819 CURVE"
);
}
);
width = 670;
}
);
leftKerningGroup = A;
note = Acaron;
rightKerningGroup = A;
unicode = 01CD;
},
{
glyphname = Acircumflex;
layers = (
{
layerId = "3B510B5F-24E9-457B-9D94-D253B43C96E6";
name = Light;
paths = (
{
closed = 1;
nodes = (
"662 0 LINE",
"662 6 LINE",
"639 15 OFFCURVE",
"612 20 OFFCURVE",
"585 23 CURVE",
"342 704 LINE",
"328 704 LINE",
"85 23 LINE",
"58 20 OFFCURVE",
"31 15 OFFCURVE",
"8 6 CURVE",
"8 0 LINE",
"195 0 LINE",
"195 6 LINE",
"178 13 OFFCURVE",
"153 17 OFFCURVE",
"111 21 CURVE",
"335 647 LINE",
"559 21 LINE",
"517 17 OFFCURVE",
"492 13 OFFCURVE",
"475 6 CURVE",
"475 0 LINE"
);
},
{
closed = 1;
nodes = (
"508 186 LINE",
"508 208 LINE",
"160 208 LINE",
"160 186 LINE"
);
},
{
closed = 1;
nodes = (
"338 866 LINE",
"367 831 OFFCURVE",
"402 801 OFFCURVE",
"436 777 CURVE",
"449 795 LINE",
"413 821 OFFCURVE",
"376 852 OFFCURVE",
"342 898 CURVE",
"328 898 LINE",
"294 852 OFFCURVE",
"257 821 OFFCURVE",
"221 795 CURVE",
"234 777 LINE",
"268 801 OFFCURVE",
"303 831 OFFCURVE",
"332 866 CURVE"
);
}
);
width = 670;
}
);
leftKerningGroup = A;
note = Acircumflex;
rightKerningGroup = A;
unicode = 00C2;
},
{
glyphname = Acircumflexacute;
layers = (
{
layerId = "3B510B5F-24E9-457B-9D94-D253B43C96E6";
name = Light;
paths = (
{
closed = 1;
nodes = (
"662 0 LINE",
"662 6 LINE",
"639 15 OFFCURVE",
"612 20 OFFCURVE",
"585 23 CURVE",
"342 704 LINE",
"328 704 LINE",
"85 23 LINE",
"58 20 OFFCURVE",
"31 15 OFFCURVE",
"8 6 CURVE",
"8 0 LINE",
"195 0 LINE",
"195 6 LINE",
"178 13 OFFCURVE",
"153 17 OFFCURVE",
"111 21 CURVE",
"335 647 LINE",
"559 21 LINE",
"517 17 OFFCURVE",
"492 13 OFFCURVE",
"475 6 CURVE",
"475 0 LINE"
);
},
{
closed = 1;
nodes = (
"508 186 LINE",
"508 208 LINE",
"160 208 LINE",
"160 186 LINE"
);
},
{
closed = 1;
nodes = (
"449 795 LINE",
"413 821 OFFCURVE",
"376 852 OFFCURVE",
"342 898 CURVE",
"328 898 LINE",
"294 852 OFFCURVE",
"257 821 OFFCURVE",
"221 795 CURVE",
"234 777 LINE",
"268 801 OFFCURVE",
"303 831 OFFCURVE",
"332 866 CURVE",
"338 866 LINE",
"367 831 OFFCURVE",
"402 801 OFFCURVE",
"436 777 CURVE"
);
},
{
closed = 1;
nodes = (
"555 951 LINE SMOOTH",
"566 957 OFFCURVE",
"571 966 OFFCURVE",
"571 974 CURVE SMOOTH",
"571 983 OFFCURVE",
"564 988 OFFCURVE",
"557 988 CURVE SMOOTH",
"547 988 OFFCURVE",
"538 983 OFFCURVE",
"531 976 CURVE",
"424 889 LINE",
"431 879 LINE"
);
}
);
width = 670;
}
);
leftKerningGroup = A;
note = Acircumflexacute;
rightKerningGroup = A;
unicode = 1EA4;
},
{
glyphname = Acircumflexdotbelow;
layers = (
{
layerId = "3B510B5F-24E9-457B-9D94-D253B43C96E6";
name = Light;
paths = (
{
closed = 1;
nodes = (
"662 0 LINE",
"662 6 LINE",
"639 15 OFFCURVE",
"612 20 OFFCURVE",
"585 23 CURVE",
"342 704 LINE",
"328 704 LINE",
"85 23 LINE",
"58 20 OFFCURVE",
"31 15 OFFCURVE",
"8 6 CURVE",
"8 0 LINE",
"195 0 LINE",
"195 6 LINE",
"178 13 OFFCURVE",
"153 17 OFFCURVE",
"111 21 CURVE",
"335 647 LINE",
"559 21 LINE",
"517 17 OFFCURVE",
"492 13 OFFCURVE",
"475 6 CURVE",
"475 0 LINE"
);
},
{
closed = 1;
nodes = (
"508 186 LINE",
"508 208 LINE",
"160 208 LINE",
"160 186 LINE"
);
},
{
closed = 1;
nodes = (
"338 866 LINE",
"367 831 OFFCURVE",
"402 801 OFFCURVE",
"436 777 CURVE",
"449 795 LINE",
"413 821 OFFCURVE",
"376 852 OFFCURVE",
"342 898 CURVE",
"328 898 LINE",
"294 852 OFFCURVE",
"257 821 OFFCURVE",
"221 795 CURVE",
"234 777 LINE",
"268 801 OFFCURVE",
"303 831 OFFCURVE",
"332 866 CURVE"
);
},
{
closed = 1;
nodes = (
"306 -113 OFFCURVE",
"318 -124 OFFCURVE",
"334 -124 CURVE SMOOTH",
"350 -124 OFFCURVE",
"362 -113 OFFCURVE",
"362 -94 CURVE SMOOTH",
"362 -75 OFFCURVE",
"350 -64 OFFCURVE",
"334 -64 CURVE SMOOTH",
"318 -64 OFFCURVE",
"306 -75 OFFCURVE",
"306 -94 CURVE SMOOTH"
);
}
);
width = 670;
}
);
leftKerningGroup = A;
note = Acircumflexdotbelow;
rightKerningGroup = A;
unicode = 1EAC;
},
{
glyphname = Acircumflexgrave;
layers = (
{
layerId = "3B510B5F-24E9-457B-9D94-D253B43C96E6";
name = Light;
paths = (
{
closed = 1;
nodes = (
"662 0 LINE",
"662 6 LINE",
"639 15 OFFCURVE",
"612 20 OFFCURVE",
"585 23 CURVE",
"342 704 LINE",
"328 704 LINE",
"85 23 LINE",
"58 20 OFFCURVE",
"31 15 OFFCURVE",
"8 6 CURVE",
"8 0 LINE",
"195 0 LINE",
"195 6 LINE",
"178 13 OFFCURVE",
"153 17 OFFCURVE",
"111 21 CURVE",
"335 647 LINE",
"559 21 LINE",
"517 17 OFFCURVE",
"492 13 OFFCURVE",
"475 6 CURVE",
"475 0 LINE"
);
},
{
closed = 1;
nodes = (
"508 186 LINE",
"508 208 LINE",
"160 208 LINE",
"160 186 LINE"
);
},
{
closed = 1;
nodes = (
"449 795 LINE",
"413 821 OFFCURVE",
"376 852 OFFCURVE",
"342 898 CURVE",
"328 898 LINE",
"294 852 OFFCURVE",
"257 821 OFFCURVE",
"221 795 CURVE",
"234 777 LINE",
"268 801 OFFCURVE",
"303 831 OFFCURVE",
"332 866 CURVE",
"338 866 LINE",
"367 831 OFFCURVE",
"402 801 OFFCURVE",
"436 777 CURVE"
);
},
{
closed = 1;
nodes = (
"251 879 LINE",
"258 889 LINE",
"151 976 LINE",
"144 983 OFFCURVE",
"135 988 OFFCURVE",
"125 988 CURVE SMOOTH",
"118 988 OFFCURVE",
"111 983 OFFCURVE",
"111 974 CURVE SMOOTH",
"111 966 OFFCURVE",
"116 957 OFFCURVE",
"127 951 CURVE SMOOTH"
);
}
);
width = 670;
}
);
leftKerningGroup = A;
note = Acircumflexgrave;
rightKerningGroup = A;
unicode = 1EA6;
},
{
glyphname = Acircumflexhookabove;
layers = (
{
layerId = "3B510B5F-24E9-457B-9D94-D253B43C96E6";
name = Light;
paths = (
{
closed = 1;
nodes = (
"662 0 LINE",
"662 6 LINE",
"639 15 OFFCURVE",
"612 20 OFFCURVE",
"585 23 CURVE",
"342 704 LINE",
"328 704 LINE",
"85 23 LINE",
"58 20 OFFCURVE",
"31 15 OFFCURVE",
"8 6 CURVE",
"8 0 LINE",
"195 0 LINE",
"195 6 LINE",
"178 13 OFFCURVE",
"153 17 OFFCURVE",
"111 21 CURVE",
"335 647 LINE",
"559 21 LINE",
"517 17 OFFCURVE",
"492 13 OFFCURVE",
"475 6 CURVE",
"475 0 LINE"
);
},
{
closed = 1;
nodes = (
"508 186 LINE",
"508 208 LINE",
"160 208 LINE",
"160 186 LINE"
);
},
{
closed = 1;
nodes = (
"449 795 LINE",
"413 821 OFFCURVE",
"376 852 OFFCURVE",
"342 898 CURVE",
"328 898 LINE",
"294 852 OFFCURVE",
"257 821 OFFCURVE",
"221 795 CURVE",
"234 777 LINE",
"268 801 OFFCURVE",
"303 831 OFFCURVE",
"332 866 CURVE",
"338 866 LINE",
"367 831 OFFCURVE",
"402 801 OFFCURVE",
"436 777 CURVE"
);
},
{
closed = 1;
nodes = (
"442 855 LINE",
"451 903 LINE",
"493 908 OFFCURVE",
"512 926 OFFCURVE",
"512 959 CURVE SMOOTH",
"512 998 OFFCURVE",
"481 1013 OFFCURVE",
"449 1013 CURVE SMOOTH",
"428 1013 OFFCURVE",
"407 1007 OFFCURVE",
"394 1000 CURVE",
"399 983 LINE",
"415 992 OFFCURVE",
"430 995 OFFCURVE",
"443 995 CURVE SMOOTH",
"474 995 OFFCURVE",
"488 981 OFFCURVE",
"488 960 CURVE SMOOTH",
"488 939 OFFCURVE",
"475 918 OFFCURVE",
"431 918 CURVE SMOOTH",
"422 918 LINE",
"427 855 LINE"
);
}
);
width = 670;
}
);
leftKerningGroup = A;
note = Acircumflexhookabove;
rightKerningGroup = A;
unicode = 1EA8;
},
{
glyphname = Acircumflextilde;
layers = (
{
layerId = "3B510B5F-24E9-457B-9D94-D253B43C96E6";
name = Light;
paths = (
{
closed = 1;
nodes = (
"662 0 LINE",
"662 6 LINE",
"639 15 OFFCURVE",
"612 20 OFFCURVE",
"585 23 CURVE",
"342 704 LINE",
"328 704 LINE",
"85 23 LINE",
"58 20 OFFCURVE",
"31 15 OFFCURVE",
"8 6 CURVE",
"8 0 LINE",
"195 0 LINE",
"195 6 LINE",
"178 13 OFFCURVE",
"153 17 OFFCURVE",
"111 21 CURVE",
"335 647 LINE",
"559 21 LINE",
"517 17 OFFCURVE",
"492 13 OFFCURVE",
"475 6 CURVE",
"475 0 LINE"
);
},
{
closed = 1;
nodes = (
"508 186 LINE",
"508 208 LINE",
"160 208 LINE",
"160 186 LINE"
);
},
{
closed = 1;
nodes = (
"449 795 LINE",
"413 821 OFFCURVE",
"376 852 OFFCURVE",
"342 898 CURVE",
"328 898 LINE",
"294 852 OFFCURVE",
"257 821 OFFCURVE",
"221 795 CURVE",
"234 777 LINE",
"268 801 OFFCURVE",
"303 831 OFFCURVE",
"332 866 CURVE",
"338 866 LINE",
"367 831 OFFCURVE",
"402 801 OFFCURVE",
"436 777 CURVE"
);
},
{
closed = 1;
nodes = (
"467 1024 LINE",
"457 984 OFFCURVE",
"440 958 OFFCURVE",
"406 958 CURVE SMOOTH",
"365 958 OFFCURVE",
"317 1017 OFFCURVE",
"274 1017 CURVE SMOOTH",
"238 1017 OFFCURVE",
"208 993 OFFCURVE",
"200 932 CURVE",
"211 932 LINE",
"221 970 OFFCURVE",
"241 994 OFFCURVE",
"272 994 CURVE SMOOTH",
"316 994 OFFCURVE",
"361 934 OFFCURVE",
"403 934 CURVE SMOOTH",
"443 934 OFFCURVE",
"469 968 OFFCURVE",
"478 1024 CURVE"
);
}
);
width = 670;
}
);
leftKerningGroup = A;
note = Acircumflextilde;
rightKerningGroup = A;
unicode = 1EAA;
},
{
glyphname = Adieresis;
layers = (
{
layerId = "3B510B5F-24E9-457B-9D94-D253B43C96E6";
name = Light;
paths = (
{
closed = 1;
nodes = (
"662 0 LINE",
"662 6 LINE",
"639 15 OFFCURVE",
"612 20 OFFCURVE",
"585 23 CURVE",
"342 704 LINE",
"328 704 LINE",
"85 23 LINE",
"58 20 OFFCURVE",
"31 15 OFFCURVE",
"8 6 CURVE",
"8 0 LINE",
"195 0 LINE",
"195 6 LINE",
"178 13 OFFCURVE",
"153 17 OFFCURVE",
"111 21 CURVE",
"335 647 LINE",
"559 21 LINE",
"517 17 OFFCURVE",
"492 13 OFFCURVE",
"475 6 CURVE",
"475 0 LINE"
);
},
{
closed = 1;
nodes = (
"508 186 LINE",
"508 208 LINE",
"160 208 LINE",
"160 186 LINE"
);
},
{
closed = 1;
nodes = (
"207 796 OFFCURVE",
"219 785 OFFCURVE",
"235 785 CURVE SMOOTH",
"251 785 OFFCURVE",
"263 796 OFFCURVE",
"263 815 CURVE SMOOTH",
"263 834 OFFCURVE",
"251 845 OFFCURVE",
"235 845 CURVE SMOOTH",
"219 845 OFFCURVE",
"207 834 OFFCURVE",
"207 815 CURVE SMOOTH"
);
},
{
closed = 1;
nodes = (
"407 796 OFFCURVE",
"419 785 OFFCURVE",
"435 785 CURVE SMOOTH",
"451 785 OFFCURVE",
"463 796 OFFCURVE",
"463 815 CURVE SMOOTH",
"463 834 OFFCURVE",
"451 845 OFFCURVE",
"435 845 CURVE SMOOTH",
"419 845 OFFCURVE",
"407 834 OFFCURVE",
"407 815 CURVE SMOOTH"
);
}
);
width = 670;
}
);
leftKerningGroup = A;
note = Adieresis;
rightKerningGroup = A;
unicode = 00C4;
},
{
glyphname = Adotbelow;
layers = (
{
layerId = "3B510B5F-24E9-457B-9D94-D253B43C96E6";
name = Light;
paths = (
{
closed = 1;
nodes = (
"662 0 LINE",
"662 6 LINE",
"639 15 OFFCURVE",
"612 20 OFFCURVE",
"585 23 CURVE",
"342 704 LINE",
"328 704 LINE",
"85 23 LINE",
"58 20 OFFCURVE",
"31 15 OFFCURVE",
"8 6 CURVE",
"8 0 LINE",
"195 0 LINE",
"195 6 LINE",
"178 13 OFFCURVE",
"153 17 OFFCURVE",
"111 21 CURVE",
"335 647 LINE",
"559 21 LINE",
"517 17 OFFCURVE",
"492 13 OFFCURVE",
"475 6 CURVE",
"475 0 LINE"
);
},
{
closed = 1;
nodes = (
"508 186 LINE",
"508 208 LINE",
"160 208 LINE",
"160 186 LINE"
);
},
{
closed = 1;
nodes = (
"307 -113 OFFCURVE",
"319 -124 OFFCURVE",
"335 -124 CURVE SMOOTH",
"351 -124 OFFCURVE",
"363 -113 OFFCURVE",
"363 -94 CURVE SMOOTH",
"363 -75 OFFCURVE",
"351 -64 OFFCURVE",
"335 -64 CURVE SMOOTH",
"319 -64 OFFCURVE",
"307 -75 OFFCURVE",
"307 -94 CURVE SMOOTH"
);
}
);
width = 670;
}
);
leftKerningGroup = A;
note = Adotbelow;
rightKerningGroup = A;
unicode = 1EA0;
},
{
glyphname = Agrave;
layers = (
{
layerId = "3B510B5F-24E9-457B-9D94-D253B43C96E6";
name = Light;
paths = (
{
closed = 1;
nodes = (
"662 0 LINE",
"662 6 LINE",
"639 15 OFFCURVE",
"612 20 OFFCURVE",
"585 23 CURVE",
"342 704 LINE",
"328 704 LINE",
"85 23 LINE",
"58 20 OFFCURVE",
"31 15 OFFCURVE",
"8 6 CURVE",
"8 0 LINE",
"195 0 LINE",
"195 6 LINE",
"178 13 OFFCURVE",
"153 17 OFFCURVE",
"111 21 CURVE",
"335 647 LINE",
"559 21 LINE",
"517 17 OFFCURVE",
"492 13 OFFCURVE",
"475 6 CURVE",
"475 0 LINE"
);
},
{
closed = 1;
nodes = (
"508 186 LINE",
"508 208 LINE",
"160 208 LINE",
"160 186 LINE"
);
},
{
closed = 1;
nodes = (
"349 787 LINE",
"356 797 LINE",
"249 884 LINE",
"242 891 OFFCURVE",
"233 896 OFFCURVE",
"223 896 CURVE SMOOTH",
"216 896 OFFCURVE",
"209 891 OFFCURVE",
"209 882 CURVE SMOOTH",
"209 874 OFFCURVE",
"214 865 OFFCURVE",
"225 859 CURVE SMOOTH"
);
}
);
width = 670;
}
);
leftKerningGroup = A;
note = Agrave;
rightKerningGroup = A;
unicode = 00C0;
},
{
glyphname = Ahookabove;
layers = (
{
layerId = "3B510B5F-24E9-457B-9D94-D253B43C96E6";
name = Light;
paths = (
{
closed = 1;
nodes = (
"662 0 LINE",
"662 6 LINE",
"639 15 OFFCURVE",
"612 20 OFFCURVE",
"585 23 CURVE",
"342 704 LINE",
"328 704 LINE",
"85 23 LINE",
"58 20 OFFCURVE",
"31 15 OFFCURVE",
"8 6 CURVE",
"8 0 LINE",
"195 0 LINE",
"195 6 LINE",
"178 13 OFFCURVE",
"153 17 OFFCURVE",
"111 21 CURVE",
"335 647 LINE",
"559 21 LINE",
"517 17 OFFCURVE",
"492 13 OFFCURVE",
"475 6 CURVE",
"475 0 LINE"
);
},
{
closed = 1;
nodes = (
"508 186 LINE",
"508 208 LINE",
"160 208 LINE",
"160 186 LINE"
);
},
{
closed = 1;
nodes = (
"427 947 OFFCURVE",
"392 969 OFFCURVE",
"352 969 CURVE SMOOTH",
"325 969 OFFCURVE",
"300 961 OFFCURVE",
"284 953 CURVE",
"291 932 LINE",
"310 943 OFFCURVE",
"330 948 OFFCURVE",
"346 948 CURVE SMOOTH",
"383 948 OFFCURVE",
"401 930 OFFCURVE",
"401 905 CURVE SMOOTH",
"401 880 OFFCURVE",
"386 853 OFFCURVE",
"334 853 CURVE SMOOTH",
"323 853 LINE",
"328 777 LINE",
"344 777 LINE",
"355 836 LINE",
"405 841 OFFCURVE",
"427 868 OFFCURVE",
"427 903 CURVE SMOOTH"
);
}
);
width = 670;
}
);
leftKerningGroup = A;
note = Ahookabove;
rightKerningGroup = A;
unicode = 1EA2;
},
{
glyphname = Amacron;
layers = (
{
layerId = "3B510B5F-24E9-457B-9D94-D253B43C96E6";
name = Light;
paths = (
{
closed = 1;
nodes = (
"662 0 LINE",
"662 6 LINE",
"639 15 OFFCURVE",
"612 20 OFFCURVE",
"585 23 CURVE",
"342 704 LINE",
"328 704 LINE",
"85 23 LINE",
"58 20 OFFCURVE",
"31 15 OFFCURVE",
"8 6 CURVE",
"8 0 LINE",
"195 0 LINE",
"195 6 LINE",
"178 13 OFFCURVE",
"153 17 OFFCURVE",
"111 21 CURVE",
"335 647 LINE",
"559 21 LINE",
"517 17 OFFCURVE",
"492 13 OFFCURVE",
"475 6 CURVE",
"475 0 LINE"
);
},
{
closed = 1;
nodes = (
"508 186 LINE",
"508 208 LINE",
"160 208 LINE",
"160 186 LINE"
);
},
{
closed = 1;
nodes = (
"197 785 LINE",
"473 785 LINE",
"473 807 LINE",
"197 807 LINE"
);
}
);
width = 670;
}
);
leftKerningGroup = A;
note = Amacron;
rightKerningGroup = A;
unicode = 0100;
},
{
glyphname = Aogonek;
layers = (
{
layerId = "3B510B5F-24E9-457B-9D94-D253B43C96E6";
name = Light;
paths = (
{
closed = 1;
nodes = (
"662 0 LINE",
"662 6 LINE",
"639 15 OFFCURVE",
"612 20 OFFCURVE",
"585 23 CURVE",
"342 704 LINE",
"328 704 LINE",
"85 23 LINE",
"58 20 OFFCURVE",
"31 15 OFFCURVE",
"8 6 CURVE",
"8 0 LINE",
"195 0 LINE",
"195 6 LINE",
"178 13 OFFCURVE",
"153 17 OFFCURVE",
"111 21 CURVE",
"335 647 LINE",
"559 21 LINE",
"517 17 OFFCURVE",
"492 13 OFFCURVE",
"475 6 CURVE",
"475 0 LINE"
);
},
{
closed = 1;
nodes = (
"508 186 LINE",
"508 208 LINE",
"160 208 LINE",
"160 186 LINE"
);
},
{
closed = 1;
nodes = (
"636 0 LINE",
"592 -20 OFFCURVE",
"564 -54 OFFCURVE",
"564 -98 CURVE SMOOTH",
"564 -128 OFFCURVE",
"585 -168 OFFCURVE",
"637 -168 CURVE SMOOTH",
"656 -168 OFFCURVE",
"670 -165 OFFCURVE",
"692 -159 CURVE",
"692 -141 LINE",
"679 -145 OFFCURVE",
"664 -147 OFFCURVE",
"650 -147 CURVE SMOOTH",
"618 -147 OFFCURVE",
"589 -135 OFFCURVE",
"589 -97 CURVE SMOOTH",
"589 -57 OFFCURVE",
"620 -20 OFFCURVE",
"662 0 CURVE"
);
}
);
width = 670;
}
);
leftKerningGroup = A;
note = Aogonek;
rightKerningGroup = A;
unicode = 0104;
},
{
glyphname = Aring;
layers = (
{
layerId = "3B510B5F-24E9-457B-9D94-D253B43C96E6";
name = Light;
paths = (
{
closed = 1;
nodes = (
"662 0 LINE",
"662 6 LINE",
"639 15 OFFCURVE",
"612 20 OFFCURVE",
"585 23 CURVE",
"342 704 LINE",
"328 704 LINE",
"85 23 LINE",
"58 20 OFFCURVE",
"31 15 OFFCURVE",
"8 6 CURVE",
"8 0 LINE",
"195 0 LINE",
"195 6 LINE",
"178 13 OFFCURVE",
"153 17 OFFCURVE",
"111 21 CURVE",
"335 647 LINE",
"559 21 LINE",
"517 17 OFFCURVE",
"492 13 OFFCURVE",
"475 6 CURVE",
"475 0 LINE"
);
},
{
closed = 1;
nodes = (
"508 186 LINE",
"508 208 LINE",
"160 208 LINE",
"160 186 LINE"
);
},
{
closed = 1;
nodes = (
"279 842 OFFCURVE",
"302 863 OFFCURVE",
"335 863 CURVE SMOOTH",
"368 863 OFFCURVE",
"391 842 OFFCURVE",
"391 808 CURVE SMOOTH",
"391 774 OFFCURVE",
"368 753 OFFCURVE",
"335 753 CURVE SMOOTH",
"302 753 OFFCURVE",
"279 774 OFFCURVE",
"279 808 CURVE SMOOTH"
);
},
{
closed = 1;
nodes = (
"412 852 OFFCURVE",
"379 882 OFFCURVE",
"335 882 CURVE SMOOTH",
"291 882 OFFCURVE",
"258 852 OFFCURVE",
"258 808 CURVE SMOOTH",
"258 764 OFFCURVE",
"291 734 OFFCURVE",
"335 734 CURVE SMOOTH",
"379 734 OFFCURVE",
"412 764 OFFCURVE",
"412 808 CURVE SMOOTH"
);
}
);
width = 670;
}
);
leftKerningGroup = A;
note = Aring;
rightKerningGroup = A;
unicode = 00C5;
},
{
glyphname = Aringacute;
layers = (
{
layerId = "3B510B5F-24E9-457B-9D94-D253B43C96E6";
name = Light;
paths = (
{
closed = 1;
nodes = (
"662 0 LINE",
"662 6 LINE",
"639 15 OFFCURVE",
"612 20 OFFCURVE",
"585 23 CURVE",
"342 704 LINE",
"328 704 LINE",
"85 23 LINE",
"58 20 OFFCURVE",
"31 15 OFFCURVE",
"8 6 CURVE",
"8 0 LINE",
"195 0 LINE",
"195 6 LINE",
"178 13 OFFCURVE",
"153 17 OFFCURVE",
"111 21 CURVE",
"335 647 LINE",
"559 21 LINE",
"517 17 OFFCURVE",
"492 13 OFFCURVE",
"475 6 CURVE",
"475 0 LINE"
);
},
{
closed = 1;
nodes = (
"508 186 LINE",
"508 208 LINE",
"160 208 LINE",
"160 186 LINE"
);
},
{
closed = 1;
nodes = (
"279 838 OFFCURVE",
"302 859 OFFCURVE",
"335 859 CURVE SMOOTH",
"368 859 OFFCURVE",
"391 838 OFFCURVE",
"391 804 CURVE SMOOTH",
"391 770 OFFCURVE",
"368 749 OFFCURVE",
"335 749 CURVE SMOOTH",
"302 749 OFFCURVE",
"279 770 OFFCURVE",
"279 804 CURVE SMOOTH"
);
},
{
closed = 1;
nodes = (
"412 848 OFFCURVE",
"379 878 OFFCURVE",
"335 878 CURVE SMOOTH",
"291 878 OFFCURVE",
"258 848 OFFCURVE",
"258 804 CURVE SMOOTH",
"258 760 OFFCURVE",
"291 730 OFFCURVE",
"335 730 CURVE SMOOTH",
"379 730 OFFCURVE",
"412 760 OFFCURVE",
"412 804 CURVE SMOOTH"
);
},
{
closed = 1;
nodes = (
"452 981 LINE SMOOTH",
"463 987 OFFCURVE",
"468 996 OFFCURVE",
"468 1004 CURVE SMOOTH",
"468 1013 OFFCURVE",
"461 1018 OFFCURVE",
"454 1018 CURVE SMOOTH",
"444 1018 OFFCURVE",
"435 1013 OFFCURVE",
"428 1006 CURVE",
"321 919 LINE",
"328 909 LINE"
);
}
);
width = 670;
}
);
leftKerningGroup = A;
note = Aringacute;
rightKerningGroup = A;
unicode = 01FA;
},
{
glyphname = Atilde;
layers = (
{
layerId = "3B510B5F-24E9-457B-9D94-D253B43C96E6";
name = Light;
paths = (
{
closed = 1;
nodes = (
"662 0 LINE",
"662 6 LINE",
"639 15 OFFCURVE",
"612 20 OFFCURVE",
"585 23 CURVE",
"342 704 LINE",
"328 704 LINE",
"85 23 LINE",
"58 20 OFFCURVE",
"31 15 OFFCURVE",
"8 6 CURVE",
"8 0 LINE",
"195 0 LINE",
"195 6 LINE",
"178 13 OFFCURVE",
"153 17 OFFCURVE",
"111 21 CURVE",
"335 647 LINE",
"559 21 LINE",
"517 17 OFFCURVE",
"492 13 OFFCURVE",
"475 6 CURVE",
"475 0 LINE"
);
},
{
closed = 1;
nodes = (
"508 186 LINE",
"508 208 LINE",
"160 208 LINE",
"160 186 LINE"
);
},
{
closed = 1;
nodes = (
"439 788 OFFCURVE",
"465 822 OFFCURVE",
"474 878 CURVE",
"463 878 LINE",
"453 838 OFFCURVE",
"436 812 OFFCURVE",
"402 812 CURVE SMOOTH",
"361 812 OFFCURVE",
"313 871 OFFCURVE",
"270 871 CURVE SMOOTH",
"234 871 OFFCURVE",
"204 847 OFFCURVE",
"196 786 CURVE",
"207 786 LINE",
"217 824 OFFCURVE",
"237 848 OFFCURVE",
"268 848 CURVE SMOOTH",
"312 848 OFFCURVE",
"357 788 OFFCURVE",
"399 788 CURVE SMOOTH"
);
}
);
width = 670;
}
);
leftKerningGroup = A;
note = Atilde;
rightKerningGroup = A;
unicode = 00C3;
},
{
glyphname = AE;
layers = (
{
layerId = "3B510B5F-24E9-457B-9D94-D253B43C96E6";
name = Light;
paths = (
{
closed = 1;
nodes = (
"555 22 LINE",
"555 349 LINE",
"799 349 LINE",
"801 331 OFFCURVE",
"807 290 OFFCURVE",
"815 269 CURVE",
"823 269 LINE",
"823 451 LINE",
"815 451 LINE",
"807 430 OFFCURVE",
"801 389 OFFCURVE",
"799 371 CURVE",
"555 371 LINE",
"555 678 LINE",
"872 678 LINE",
"874 655 OFFCURVE",
"879 604 OFFCURVE",
"887 586 CURVE",
"896 586 LINE",
"896 700 LINE",
"441 700 LINE",
"441 695 LINE",
"454 688 OFFCURVE",
"469 687 OFFCURVE",
"486 683 CURVE",
"79 23 LINE",
"52 20 OFFCURVE",
"31 15 OFFCURVE",
"8 6 CURVE",
"8 0 LINE",
"195 0 LINE",
"195 6 LINE",
"178 13 OFFCURVE",
"153 17 OFFCURVE",
"111 21 CURVE",
"211 186 LINE",
"527 186 LINE",
"527 21 LINE",
"484 17 OFFCURVE",
"463 12 OFFCURVE",
"446 6 CURVE",
"446 0 LINE",
"896 0 LINE",
"906 114 LINE",
"897 114 LINE",
"889 96 OFFCURVE",
"874 45 OFFCURVE",
"872 22 CURVE"
);
},
{
closed = 1;
nodes = (
"511 678 LINE",
"527 678 LINE",
"527 208 LINE",
"225 208 LINE"
);
}
);
width = 962;
}
);
leftKerningGroup = A;
note = AE;
unicode = 00C6;
},
{
glyphname = AEacute;
layers = (
{
layerId = "3B510B5F-24E9-457B-9D94-D253B43C96E6";
name = Light;
paths = (
{
closed = 1;
nodes = (
"555 22 LINE",
"555 349 LINE",
"799 349 LINE",
"801 331 OFFCURVE",
"807 290 OFFCURVE",
"815 269 CURVE",
"823 269 LINE",
"823 451 LINE",
"815 451 LINE",
"807 430 OFFCURVE",
"801 389 OFFCURVE",
"799 371 CURVE",
"555 371 LINE",
"555 678 LINE",
"872 678 LINE",
"874 655 OFFCURVE",
"879 604 OFFCURVE",
"887 586 CURVE",
"896 586 LINE",
"896 700 LINE",
"441 700 LINE",
"441 695 LINE",
"454 688 OFFCURVE",
"469 687 OFFCURVE",
"486 683 CURVE",
"79 23 LINE",
"52 20 OFFCURVE",
"31 15 OFFCURVE",
"8 6 CURVE",
"8 0 LINE",
"195 0 LINE",
"195 6 LINE",
"178 13 OFFCURVE",
"153 17 OFFCURVE",
"111 21 CURVE",
"211 186 LINE",
"527 186 LINE",
"527 21 LINE",
"484 17 OFFCURVE",
"463 12 OFFCURVE",
"446 6 CURVE",
"446 0 LINE",
"896 0 LINE",
"906 114 LINE",
"897 114 LINE",
"889 96 OFFCURVE",
"874 45 OFFCURVE",
"872 22 CURVE"
);
},
{
closed = 1;
nodes = (
"511 678 LINE",
"527 678 LINE",
"527 208 LINE",
"225 208 LINE"
);
},
{
closed = 1;
nodes = (
"774 859 LINE SMOOTH",
"785 865 OFFCURVE",
"790 874 OFFCURVE",
"790 882 CURVE SMOOTH",
"790 891 OFFCURVE",
"783 896 OFFCURVE",
"776 896 CURVE SMOOTH",
"766 896 OFFCURVE",
"757 891 OFFCURVE",
"750 884 CURVE",
"643 797 LINE",
"650 787 LINE"
);
}
);
width = 962;
}
);
leftKerningGroup = A;
note = AEacute;
unicode = 01FC;
},
{
glyphname = B;
layers = (
{
layerId = "3B510B5F-24E9-457B-9D94-D253B43C96E6";
name = Light;
paths = (
{
closed = 1;
nodes = (
"500 649 OFFCURVE",
"442 700 OFFCURVE",
"297 700 CURVE SMOOTH",
"50 700 LINE",
"50 694 LINE",
"74 686 OFFCURVE",
"103 682 OFFCURVE",
"132 678 CURVE",
"132 21 LINE",
"88 17 OFFCURVE",
"67 13 OFFCURVE",
"50 7 CURVE",
"50 0 LINE",
"328 0 LINE SMOOTH",
"472 0 OFFCURVE",
"530 67 OFFCURVE",
"530 188 CURVE SMOOTH",
"530 265 OFFCURVE",
"499 354 OFFCURVE",
"368 370 CURVE",
"368 373 LINE",
"465 387 OFFCURVE",
"500 469 OFFCURVE",
"500 534 CURVE SMOOTH"
);
},
{
closed = 1;
nodes = (
"160 22 LINE",
"160 358 LINE",
"316 358 LINE SMOOTH",
"436 358 OFFCURVE",
"505 296 OFFCURVE",
"505 188 CURVE SMOOTH",
"505 78 OFFCURVE",
"452 22 OFFCURVE",
"329 22 CURVE SMOOTH"
);
},
{
closed = 1;
nodes = (
"160 678 LINE",
"298 678 LINE SMOOTH",
"422 678 OFFCURVE",
"474 634 OFFCURVE",
"474 536 CURVE SMOOTH",
"474 442 OFFCURVE",
"415 380 OFFCURVE",
"294 380 CURVE SMOOTH",
"160 380 LINE"
);
}
);
width = 568;
}
);
note = B;
unicode = 0042;
},
{
glyphname = C;
layers = (
{
layerId = "3B510B5F-24E9-457B-9D94-D253B43C96E6";
name = Light;
paths = (
{
closed = 1;
nodes = (
"498 622 OFFCURVE",
"503 571 OFFCURVE",
"511 553 CURVE",
"520 553 LINE",
"526 651 LINE",
"485 687 OFFCURVE",
"423 710 OFFCURVE",
"351 710 CURVE SMOOTH",
"162 710 OFFCURVE",
"56 573 OFFCURVE",
"56 350 CURVE SMOOTH",
"56 127 OFFCURVE",
"154 -10 OFFCURVE",
"349 -10 CURVE SMOOTH",
"421 -10 OFFCURVE",
"485 11 OFFCURVE",
"526 47 CURVE",
"521 59 LINE",
"470 29 OFFCURVE",
"400 12 OFFCURVE",
"359 12 CURVE SMOOTH",
"148 12 OFFCURVE",
"84 166 OFFCURVE",
"84 350 CURVE SMOOTH",
"84 536 OFFCURVE",
"155 688 OFFCURVE",
"359 688 CURVE SMOOTH",
"421 688 OFFCURVE",
"474 664 OFFCURVE",
"496 645 CURVE"
);
}
);
width = 575;
}
);
leftKerningGroup = C;
note = C;
unicode = 0043;
},
{
glyphname = Cacute;
layers = (
{
layerId = "3B510B5F-24E9-457B-9D94-D253B43C96E6";
name = Light;
paths = (
{
closed = 1;
nodes = (
"498 622 OFFCURVE",
"503 571 OFFCURVE",
"511 553 CURVE",
"520 553 LINE",
"526 651 LINE",
"485 687 OFFCURVE",
"423 710 OFFCURVE",
"351 710 CURVE SMOOTH",
"162 710 OFFCURVE",
"56 573 OFFCURVE",
"56 350 CURVE SMOOTH",
"56 127 OFFCURVE",
"154 -10 OFFCURVE",
"349 -10 CURVE SMOOTH",
"421 -10 OFFCURVE",
"485 11 OFFCURVE",
"526 47 CURVE",
"521 59 LINE",
"470 29 OFFCURVE",
"400 12 OFFCURVE",
"359 12 CURVE SMOOTH",
"148 12 OFFCURVE",
"84 166 OFFCURVE",
"84 350 CURVE SMOOTH",
"84 536 OFFCURVE",
"155 688 OFFCURVE",
"359 688 CURVE SMOOTH",
"421 688 OFFCURVE",
"474 664 OFFCURVE",
"496 645 CURVE"
);
},
{
closed = 1;
nodes = (
"410 859 LINE SMOOTH",
"421 865 OFFCURVE",
"426 874 OFFCURVE",
"426 882 CURVE SMOOTH",
"426 891 OFFCURVE",
"419 896 OFFCURVE",
"412 896 CURVE SMOOTH",
"402 896 OFFCURVE",
"393 891 OFFCURVE",
"386 884 CURVE",
"279 797 LINE",
"286 787 LINE"
);
}
);
width = 575;
}
);
leftKerningGroup = C;
note = Cacute;
unicode = 0106;
},
{
glyphname = Ccaron;
layers = (
{
layerId = "3B510B5F-24E9-457B-9D94-D253B43C96E6";
name = Light;
paths = (
{
closed = 1;
nodes = (
"498 622 OFFCURVE",
"503 571 OFFCURVE",
"511 553 CURVE",
"520 553 LINE",
"526 651 LINE",
"485 687 OFFCURVE",
"423 710 OFFCURVE",
"351 710 CURVE SMOOTH",
"162 710 OFFCURVE",
"56 573 OFFCURVE",
"56 350 CURVE SMOOTH",
"56 127 OFFCURVE",
"154 -10 OFFCURVE",
"349 -10 CURVE SMOOTH",
"421 -10 OFFCURVE",
"485 11 OFFCURVE",
"526 47 CURVE",
"521 59 LINE",
"470 29 OFFCURVE",
"400 12 OFFCURVE",
"359 12 CURVE SMOOTH",
"148 12 OFFCURVE",
"84 166 OFFCURVE",
"84 350 CURVE SMOOTH",
"84 536 OFFCURVE",
"155 688 OFFCURVE",
"359 688 CURVE SMOOTH",
"421 688 OFFCURVE",
"474 664 OFFCURVE",
"496 645 CURVE"
);
},
{
closed = 1;
nodes = (
"355 819 LINE",
"326 854 OFFCURVE",
"291 884 OFFCURVE",
"257 908 CURVE",
"244 890 LINE",
"280 864 OFFCURVE",
"317 833 OFFCURVE",
"351 787 CURVE",
"365 787 LINE",
"399 833 OFFCURVE",
"436 864 OFFCURVE",
"472 890 CURVE",
"459 908 LINE",
"425 884 OFFCURVE",
"390 854 OFFCURVE",
"361 819 CURVE"
);
}
);
width = 575;
}
);
leftKerningGroup = C;
note = Ccaron;
unicode = 010C;
},
{
glyphname = Ccedilla;
layers = (
{
layerId = "3B510B5F-24E9-457B-9D94-D253B43C96E6";
name = Light;
paths = (
{
closed = 1;
nodes = (
"498 622 OFFCURVE",
"503 571 OFFCURVE",
"511 553 CURVE",
"520 553 LINE",
"526 651 LINE",
"485 687 OFFCURVE",
"423 710 OFFCURVE",
"351 710 CURVE SMOOTH",
"162 710 OFFCURVE",
"56 573 OFFCURVE",
"56 350 CURVE SMOOTH",
"56 127 OFFCURVE",
"154 -10 OFFCURVE",
"349 -10 CURVE SMOOTH",
"421 -10 OFFCURVE",
"485 11 OFFCURVE",
"526 47 CURVE",
"521 59 LINE",
"470 29 OFFCURVE",
"400 12 OFFCURVE",
"359 12 CURVE SMOOTH",
"148 12 OFFCURVE",
"84 166 OFFCURVE",
"84 350 CURVE SMOOTH",
"84 536 OFFCURVE",
"155 688 OFFCURVE",
"359 688 CURVE SMOOTH",
"421 688 OFFCURVE",
"474 664 OFFCURVE",
"496 645 CURVE"
);
},
{
closed = 1;
nodes = (
"418 -82 OFFCURVE",
"385 -67 OFFCURVE",
"349 -67 CURVE SMOOTH",
"340 -67 OFFCURVE",
"332 -67 OFFCURVE",
"324 -69 CURVE",
"355 0 LINE",
"331 0 LINE",
"298 -66 LINE",
"317 -89 LINE",
"324 -88 OFFCURVE",
"333 -87 OFFCURVE",
"342 -87 CURVE SMOOTH",
"366 -87 OFFCURVE",
"393 -95 OFFCURVE",
"393 -117 CURVE SMOOTH",
"393 -151 OFFCURVE",
"366 -166 OFFCURVE",
"325 -166 CURVE SMOOTH",
"311 -166 OFFCURVE",
"294 -165 OFFCURVE",
"277 -162 CURVE",
"268 -180 LINE",
"286 -184 OFFCURVE",
"305 -186 OFFCURVE",
"322 -186 CURVE SMOOTH",
"377 -186 OFFCURVE",
"418 -164 OFFCURVE",
"418 -118 CURVE SMOOTH"
);
}
);
width = 575;
}
);
leftKerningGroup = C;
note = Ccedilla;
unicode = 00C7;
},
{
glyphname = Ccircumflex;
layers = (
{
layerId = "3B510B5F-24E9-457B-9D94-D253B43C96E6";
name = Light;
paths = (
{
closed = 1;
nodes = (
"498 622 OFFCURVE",
"503 571 OFFCURVE",
"511 553 CURVE",
"520 553 LINE",
"526 651 LINE",
"485 687 OFFCURVE",
"423 710 OFFCURVE",
"351 710 CURVE SMOOTH",
"162 710 OFFCURVE",
"56 573 OFFCURVE",
"56 350 CURVE SMOOTH",
"56 127 OFFCURVE",
"154 -10 OFFCURVE",
"349 -10 CURVE SMOOTH",
"421 -10 OFFCURVE",
"485 11 OFFCURVE",
"526 47 CURVE",
"521 59 LINE",
"470 29 OFFCURVE",
"400 12 OFFCURVE",
"359 12 CURVE SMOOTH",
"148 12 OFFCURVE",
"84 166 OFFCURVE",
"84 350 CURVE SMOOTH",
"84 536 OFFCURVE",
"155 688 OFFCURVE",
"359 688 CURVE SMOOTH",
"421 688 OFFCURVE",
"474 664 OFFCURVE",
"496 645 CURVE"
);
},
{
closed = 1;
nodes = (
"357 866 LINE",
"386 831 OFFCURVE",
"421 801 OFFCURVE",
"455 777 CURVE",
"468 795 LINE",
"432 821 OFFCURVE",
"395 852 OFFCURVE",
"361 898 CURVE",
"347 898 LINE",
"313 852 OFFCURVE",
"276 821 OFFCURVE",
"240 795 CURVE",
"253 777 LINE",
"287 801 OFFCURVE",
"322 831 OFFCURVE",
"351 866 CURVE"
);
}
);
width = 575;
}
);
leftKerningGroup = C;
note = Ccircumflex;
unicode = 0108;
},
{
glyphname = Cdotaccent;
layers = (
{
layerId = "3B510B5F-24E9-457B-9D94-D253B43C96E6";
name = Light;
paths = (
{
closed = 1;
nodes = (
"498 622 OFFCURVE",
"503 571 OFFCURVE",
"511 553 CURVE",
"520 553 LINE",
"526 651 LINE",
"485 687 OFFCURVE",
"423 710 OFFCURVE",
"351 710 CURVE SMOOTH",
"162 710 OFFCURVE",
"56 573 OFFCURVE",
"56 350 CURVE SMOOTH",
"56 127 OFFCURVE",
"154 -10 OFFCURVE",
"349 -10 CURVE SMOOTH",
"421 -10 OFFCURVE",
"485 11 OFFCURVE",
"526 47 CURVE",
"521 59 LINE",
"470 29 OFFCURVE",
"400 12 OFFCURVE",
"359 12 CURVE SMOOTH",
"148 12 OFFCURVE",
"84 166 OFFCURVE",
"84 350 CURVE SMOOTH",
"84 536 OFFCURVE",
"155 688 OFFCURVE",
"359 688 CURVE SMOOTH",
"421 688 OFFCURVE",
"474 664 OFFCURVE",
"496 645 CURVE"
);
},
{
closed = 1;
nodes = (
"338 796 OFFCURVE",
"350 785 OFFCURVE",
"366 785 CURVE SMOOTH",
"382 785 OFFCURVE",
"394 796 OFFCURVE",
"394 815 CURVE SMOOTH",
"394 834 OFFCURVE",
"382 845 OFFCURVE",
"366 845 CURVE SMOOTH",
"350 845 OFFCURVE",
"338 834 OFFCURVE",
"338 815 CURVE SMOOTH"
);
}
);
width = 575;
}
);
leftKerningGroup = C;
note = Cdotaccent;
unicode = 010A;
},
{
glyphname = D;
layers = (
{
layerId = "3B510B5F-24E9-457B-9D94-D253B43C96E6";
name = Light;
paths = (
{
closed = 1;
nodes = (
"159 22 LINE",
"159 678 LINE",
"319 678 LINE SMOOTH",
"499 678 OFFCURVE",
"555 546 OFFCURVE",
"555 350 CURVE SMOOTH",
"555 154 OFFCURVE",
"499 22 OFFCURVE",
"317 22 CURVE SMOOTH"
);
},
{
closed = 1;
nodes = (
"319 0 LINE SMOOTH",
"507 0 OFFCURVE",
"583 127 OFFCURVE",
"583 350 CURVE SMOOTH",
"583 573 OFFCURVE",
"508 700 OFFCURVE",
"320 700 CURVE SMOOTH",
"50 700 LINE",
"50 695 LINE",
"73 687 OFFCURVE",
"102 682 OFFCURVE",
"131 678 CURVE",
"131 21 LINE",
"88 17 OFFCURVE",
"67 12 OFFCURVE",
"50 6 CURVE",
"50 0 LINE"
);
}
);
width = 623;
}
);
note = D;
rightKerningGroup = D;
unicode = 0044;
},
{
glyphname = Eth;
layers = (
{
layerId = "3B510B5F-24E9-457B-9D94-D253B43C96E6";
name = Light;
paths = (
{
closed = 1;
nodes = (
"131 21 LINE",
"88 17 OFFCURVE",
"67 12 OFFCURVE",
"50 6 CURVE",
"50 0 LINE",
"319 0 LINE SMOOTH",
"507 0 OFFCURVE",
"583 127 OFFCURVE",
"583 350 CURVE SMOOTH",
"583 573 OFFCURVE",
"508 700 OFFCURVE",
"320 700 CURVE SMOOTH",
"50 700 LINE",
"50 695 LINE",
"73 687 OFFCURVE",
"102 682 OFFCURVE",
"131 678 CURVE"
);
},
{
closed = 1;
nodes = (
"159 22 LINE",
"159 678 LINE",
"319 678 LINE SMOOTH",
"499 678 OFFCURVE",
"555 546 OFFCURVE",
"555 350 CURVE SMOOTH",
"555 154 OFFCURVE",
"499 22 OFFCURVE",
"317 22 CURVE SMOOTH"
);
},
{
closed = 1;
nodes = (
"50 322 LINE",
"351 322 LINE",
"351 344 LINE",
"50 344 LINE"
);
}
);
width = 623;
}
);
note = Eth;
rightKerningGroup = D;
unicode = 00D0;
},
{
glyphname = Dcaron;
layers = (
{
layerId = "3B510B5F-24E9-457B-9D94-D253B43C96E6";
name = Light;
paths = (
{
closed = 1;
nodes = (
"159 22 LINE",
"159 678 LINE",
"319 678 LINE SMOOTH",
"499 678 OFFCURVE",
"555 546 OFFCURVE",
"555 350 CURVE SMOOTH",
"555 154 OFFCURVE",
"499 22 OFFCURVE",
"317 22 CURVE SMOOTH"
);
},
{
closed = 1;
nodes = (
"319 0 LINE SMOOTH",
"507 0 OFFCURVE",
"583 127 OFFCURVE",
"583 350 CURVE SMOOTH",
"583 573 OFFCURVE",
"508 700 OFFCURVE",
"320 700 CURVE SMOOTH",
"50 700 LINE",
"50 695 LINE",
"73 687 OFFCURVE",
"102 682 OFFCURVE",
"131 678 CURVE",
"131 21 LINE",
"88 17 OFFCURVE",
"67 12 OFFCURVE",
"50 6 CURVE",
"50 0 LINE"
);
},
{
closed = 1;
nodes = (
"319 819 LINE",
"290 854 OFFCURVE",
"255 884 OFFCURVE",
"221 908 CURVE",
"208 890 LINE",
"244 864 OFFCURVE",
"281 833 OFFCURVE",
"315 787 CURVE",
"329 787 LINE",
"363 833 OFFCURVE",
"400 864 OFFCURVE",
"436 890 CURVE",
"423 908 LINE",
"389 884 OFFCURVE",
"354 854 OFFCURVE",
"325 819 CURVE"
);
}
);
width = 623;
}
);
note = Dcaron;
rightKerningGroup = D;
unicode = 010E;
},
{
glyphname = Dcroat;
layers = (
{
layerId = "3B510B5F-24E9-457B-9D94-D253B43C96E6";
name = Light;
paths = (
{
closed = 1;
nodes = (
"131 21 LINE",
"88 17 OFFCURVE",
"67 12 OFFCURVE",
"50 6 CURVE",
"50 0 LINE",
"319 0 LINE SMOOTH",
"507 0 OFFCURVE",
"583 127 OFFCURVE",
"583 350 CURVE SMOOTH",
"583 573 OFFCURVE",
"508 700 OFFCURVE",
"320 700 CURVE SMOOTH",
"50 700 LINE",
"50 695 LINE",
"73 687 OFFCURVE",
"102 682 OFFCURVE",
"131 678 CURVE"
);
},
{
closed = 1;
nodes = (
"159 22 LINE",
"159 678 LINE",
"319 678 LINE SMOOTH",
"499 678 OFFCURVE",
"555 546 OFFCURVE",
"555 350 CURVE SMOOTH",
"555 154 OFFCURVE",
"499 22 OFFCURVE",
"317 22 CURVE SMOOTH"
);
},
{
closed = 1;
nodes = (
"50 322 LINE",
"351 322 LINE",
"351 344 LINE",
"50 344 LINE"
);
}
);
width = 623;
}
);
note = Dcroat;
rightKerningGroup = D;
unicode = 0110;
},
{
glyphname = Ddotbelow;
layers = (
{
layerId = "3B510B5F-24E9-457B-9D94-D253B43C96E6";
name = Light;
paths = (
{
closed = 1;
nodes = (
"159 22 LINE",
"159 678 LINE",
"319 678 LINE SMOOTH",
"499 678 OFFCURVE",
"555 546 OFFCURVE",
"555 350 CURVE SMOOTH",
"555 154 OFFCURVE",
"499 22 OFFCURVE",
"317 22 CURVE SMOOTH"
);
},
{
closed = 1;
nodes = (
"319 0 LINE SMOOTH",
"507 0 OFFCURVE",
"583 127 OFFCURVE",
"583 350 CURVE SMOOTH",
"583 573 OFFCURVE",
"508 700 OFFCURVE",
"320 700 CURVE SMOOTH",
"50 700 LINE",
"50 695 LINE",
"73 687 OFFCURVE",
"102 682 OFFCURVE",
"131 678 CURVE",
"131 21 LINE",
"88 17 OFFCURVE",
"67 12 OFFCURVE",
"50 6 CURVE",
"50 0 LINE"
);
},
{
closed = 1;
nodes = (
"269 -113 OFFCURVE",
"281 -124 OFFCURVE",
"297 -124 CURVE SMOOTH",
"313 -124 OFFCURVE",
"325 -113 OFFCURVE",
"325 -94 CURVE SMOOTH",
"325 -75 OFFCURVE",
"313 -64 OFFCURVE",
"297 -64 CURVE SMOOTH",
"281 -64 OFFCURVE",
"269 -75 OFFCURVE",
"269 -94 CURVE SMOOTH"
);
}
);
width = 623;
}
);
note = Ddotbelow;
rightKerningGroup = D;
unicode = 1E0C;
},
{
glyphname = Dlinebelow;
layers = (
{
layerId = "3B510B5F-24E9-457B-9D94-D253B43C96E6";
name = Light;
paths = (
{
closed = 1;
nodes = (
"159 22 LINE",
"159 678 LINE",
"319 678 LINE SMOOTH",
"499 678 OFFCURVE",
"555 546 OFFCURVE",
"555 350 CURVE SMOOTH",
"555 154 OFFCURVE",
"499 22 OFFCURVE",
"317 22 CURVE SMOOTH"
);
},
{
closed = 1;
nodes = (
"319 0 LINE SMOOTH",
"507 0 OFFCURVE",
"583 127 OFFCURVE",
"583 350 CURVE SMOOTH",
"583 573 OFFCURVE",
"508 700 OFFCURVE",
"320 700 CURVE SMOOTH",
"50 700 LINE",
"50 695 LINE",
"73 687 OFFCURVE",
"102 682 OFFCURVE",
"131 678 CURVE",
"131 21 LINE",
"88 17 OFFCURVE",
"67 12 OFFCURVE",
"50 6 CURVE",
"50 0 LINE"
);
},
{
closed = 1;
nodes = (
"135 -98 LINE",
"411 -98 LINE",
"411 -76 LINE",
"135 -76 LINE"
);
}
);
width = 623;
}
);
note = Dlinebelow;
rightKerningGroup = D;
unicode = 1E0E;
},
{
glyphname = E;
layers = (
{
layerId = "3B510B5F-24E9-457B-9D94-D253B43C96E6";
name = Light;
paths = (
{
closed = 1;
nodes = (
"427 451 LINE",
"419 451 LINE",
"411 430 OFFCURVE",
"405 389 OFFCURVE",
"403 371 CURVE",
"159 371 LINE",
"159 678 LINE",
"476 678 LINE",
"478 655 OFFCURVE",
"483 604 OFFCURVE",
"491 586 CURVE",
"500 586 LINE",
"500 700 LINE",
"50 700 LINE",
"50 695 LINE",
"73 687 OFFCURVE",
"103 682 OFFCURVE",
"131 678 CURVE",
"131 21 LINE",
"88 17 OFFCURVE",
"67 12 OFFCURVE",
"50 6 CURVE",
"50 0 LINE",
"500 0 LINE",
"510 114 LINE",
"501 114 LINE",
"493 96 OFFCURVE",
"478 45 OFFCURVE",
"476 22 CURVE",
"159 22 LINE",
"159 349 LINE",
"403 349 LINE",
"405 331 OFFCURVE",
"411 290 OFFCURVE",
"419 269 CURVE",
"427 269 LINE"
);
}
);
width = 566;
}
);
note = E;
unicode = 0045;
},
{
glyphname = Eacute;
layers = (
{
layerId = "3B510B5F-24E9-457B-9D94-D253B43C96E6";
name = Light;
paths = (
{
closed = 1;
nodes = (
"427 451 LINE",
"419 451 LINE",
"411 430 OFFCURVE",
"405 389 OFFCURVE",
"403 371 CURVE",
"159 371 LINE",
"159 678 LINE",
"476 678 LINE",
"478 655 OFFCURVE",
"483 604 OFFCURVE",
"491 586 CURVE",
"500 586 LINE",
"500 700 LINE",
"50 700 LINE",
"50 695 LINE",
"73 687 OFFCURVE",
"103 682 OFFCURVE",
"131 678 CURVE",
"131 21 LINE",
"88 17 OFFCURVE",
"67 12 OFFCURVE",
"50 6 CURVE",
"50 0 LINE",
"500 0 LINE",
"510 114 LINE",
"501 114 LINE",
"493 96 OFFCURVE",
"478 45 OFFCURVE",
"476 22 CURVE",
"159 22 LINE",
"159 349 LINE",
"403 349 LINE",
"405 331 OFFCURVE",
"411 290 OFFCURVE",
"419 269 CURVE",
"427 269 LINE"
);
},
{
closed = 1;
nodes = (
"340 859 LINE SMOOTH",
"351 865 OFFCURVE",
"356 874 OFFCURVE",
"356 882 CURVE SMOOTH",
"356 891 OFFCURVE",
"349 896 OFFCURVE",
"342 896 CURVE SMOOTH",
"332 896 OFFCURVE",
"323 891 OFFCURVE",
"316 884 CURVE",
"209 797 LINE",
"216 787 LINE"
);
}
);
width = 566;
}
);
note = Eacute;
unicode = 00C9;
},
{
glyphname = Ebreve;
layers = (
{
layerId = "3B510B5F-24E9-457B-9D94-D253B43C96E6";
name = Light;
paths = (
{
closed = 1;
nodes = (
"427 451 LINE",
"419 451 LINE",
"411 430 OFFCURVE",
"405 389 OFFCURVE",
"403 371 CURVE",
"159 371 LINE",
"159 678 LINE",
"476 678 LINE",
"478 655 OFFCURVE",
"483 604 OFFCURVE",
"491 586 CURVE",
"500 586 LINE",
"500 700 LINE",
"50 700 LINE",
"50 695 LINE",
"73 687 OFFCURVE",
"103 682 OFFCURVE",
"131 678 CURVE",
"131 21 LINE",
"88 17 OFFCURVE",
"67 12 OFFCURVE",
"50 6 CURVE",
"50 0 LINE",
"500 0 LINE",
"510 114 LINE",
"501 114 LINE",
"493 96 OFFCURVE",
"478 45 OFFCURVE",
"476 22 CURVE",
"159 22 LINE",
"159 349 LINE",
"403 349 LINE",
"405 331 OFFCURVE",
"411 290 OFFCURVE",
"419 269 CURVE",
"427 269 LINE"
);
},
{
closed = 1;
nodes = (
"380 773 OFFCURVE",
"433 808 OFFCURVE",
"439 886 CURVE",
"413 886 LINE",
"404 807 OFFCURVE",
"350 795 OFFCURVE",
"309 795 CURVE SMOOTH",
"268 795 OFFCURVE",
"214 807 OFFCURVE",
"205 886 CURVE",
"179 886 LINE",
"185 808 OFFCURVE",
"238 773 OFFCURVE",
"309 773 CURVE SMOOTH"
);
}
);
width = 566;
}
);
note = Ebreve;
unicode = 0114;
},
{
glyphname = Ecaron;
layers = (
{
layerId = "3B510B5F-24E9-457B-9D94-D253B43C96E6";
name = Light;
paths = (
{
closed = 1;
nodes = (
"427 451 LINE",
"419 451 LINE",
"411 430 OFFCURVE",
"405 389 OFFCURVE",
"403 371 CURVE",
"159 371 LINE",
"159 678 LINE",
"476 678 LINE",
"478 655 OFFCURVE",
"483 604 OFFCURVE",
"491 586 CURVE",
"500 586 LINE",
"500 700 LINE",
"50 700 LINE",
"50 695 LINE",
"73 687 OFFCURVE",
"103 682 OFFCURVE",
"131 678 CURVE",
"131 21 LINE",
"88 17 OFFCURVE",
"67 12 OFFCURVE",
"50 6 CURVE",
"50 0 LINE",
"500 0 LINE",
"510 114 LINE",
"501 114 LINE",
"493 96 OFFCURVE",
"478 45 OFFCURVE",
"476 22 CURVE",
"159 22 LINE",
"159 349 LINE",
"403 349 LINE",
"405 331 OFFCURVE",
"411 290 OFFCURVE",
"419 269 CURVE",
"427 269 LINE"
);
},
{
closed = 1;
nodes = (
"305 819 LINE",
"276 854 OFFCURVE",
"241 884 OFFCURVE",
"207 908 CURVE",
"194 890 LINE",
"230 864 OFFCURVE",
"267 833 OFFCURVE",
"301 787 CURVE",
"315 787 LINE",
"349 833 OFFCURVE",
"386 864 OFFCURVE",
"422 890 CURVE",
"409 908 LINE",
"375 884 OFFCURVE",
"340 854 OFFCURVE",
"311 819 CURVE"
);
}
);
width = 566;
}
);
note = Ecaron;
unicode = 011A;
},
{
glyphname = Ecircumflex;
layers = (
{
layerId = "3B510B5F-24E9-457B-9D94-D253B43C96E6";
name = Light;
paths = (
{
closed = 1;
nodes = (
"427 451 LINE",
"419 451 LINE",
"411 430 OFFCURVE",
"405 389 OFFCURVE",
"403 371 CURVE",
"159 371 LINE",
"159 678 LINE",
"476 678 LINE",
"478 655 OFFCURVE",
"483 604 OFFCURVE",
"491 586 CURVE",
"500 586 LINE",
"500 700 LINE",
"50 700 LINE",
"50 695 LINE",
"73 687 OFFCURVE",
"103 682 OFFCURVE",
"131 678 CURVE",
"131 21 LINE",
"88 17 OFFCURVE",
"67 12 OFFCURVE",
"50 6 CURVE",
"50 0 LINE",
"500 0 LINE",
"510 114 LINE",
"501 114 LINE",
"493 96 OFFCURVE",
"478 45 OFFCURVE",
"476 22 CURVE",
"159 22 LINE",
"159 349 LINE",
"403 349 LINE",
"405 331 OFFCURVE",
"411 290 OFFCURVE",
"419 269 CURVE",
"427 269 LINE"
);
},
{
closed = 1;
nodes = (
"317 866 LINE",
"346 831 OFFCURVE",
"381 801 OFFCURVE",
"415 777 CURVE",
"428 795 LINE",
"392 821 OFFCURVE",
"355 852 OFFCURVE",
"321 898 CURVE",
"307 898 LINE",
"273 852 OFFCURVE",
"236 821 OFFCURVE",
"200 795 CURVE",
"213 777 LINE",
"247 801 OFFCURVE",
"282 831 OFFCURVE",
"311 866 CURVE"
);
}
);
width = 566;
}
);
note = Ecircumflex;
unicode = 00CA;
},
{
glyphname = Ecircumflexacute;
layers = (
{
layerId = "3B510B5F-24E9-457B-9D94-D253B43C96E6";
name = Light;
paths = (
{
closed = 1;
nodes = (
"427 451 LINE",
"419 451 LINE",
"411 430 OFFCURVE",
"405 389 OFFCURVE",
"403 371 CURVE",
"159 371 LINE",
"159 678 LINE",
"476 678 LINE",
"478 655 OFFCURVE",
"483 604 OFFCURVE",
"491 586 CURVE",
"500 586 LINE",
"500 700 LINE",
"50 700 LINE",
"50 695 LINE",
"73 687 OFFCURVE",
"103 682 OFFCURVE",
"131 678 CURVE",
"131 21 LINE",
"88 17 OFFCURVE",
"67 12 OFFCURVE",
"50 6 CURVE",
"50 0 LINE",
"500 0 LINE",
"510 114 LINE",
"501 114 LINE",
"493 96 OFFCURVE",
"478 45 OFFCURVE",
"476 22 CURVE",
"159 22 LINE",
"159 349 LINE",
"403 349 LINE",
"405 331 OFFCURVE",
"411 290 OFFCURVE",
"419 269 CURVE",
"427 269 LINE"
);
},
{
closed = 1;
nodes = (
"434 795 LINE",
"398 821 OFFCURVE",
"361 852 OFFCURVE",
"327 898 CURVE",
"313 898 LINE",
"279 852 OFFCURVE",
"242 821 OFFCURVE",
"206 795 CURVE",
"219 777 LINE",
"253 801 OFFCURVE",
"288 831 OFFCURVE",
"317 866 CURVE",
"323 866 LINE",
"352 831 OFFCURVE",
"387 801 OFFCURVE",
"421 777 CURVE"
);
},
{
closed = 1;
nodes = (
"540 951 LINE SMOOTH",
"551 957 OFFCURVE",
"556 966 OFFCURVE",
"556 974 CURVE SMOOTH",
"556 983 OFFCURVE",
"549 988 OFFCURVE",
"542 988 CURVE SMOOTH",
"532 988 OFFCURVE",
"523 983 OFFCURVE",
"516 976 CURVE",
"409 889 LINE",
"416 879 LINE"
);
}
);
width = 566;
}
);
note = Ecircumflexacute;
unicode = 1EBE;
},
{
glyphname = Ecircumflexdotbelow;
layers = (
{
layerId = "3B510B5F-24E9-457B-9D94-D253B43C96E6";
name = Light;
paths = (
{
closed = 1;
nodes = (
"427 451 LINE",
"419 451 LINE",
"411 430 OFFCURVE",
"405 389 OFFCURVE",
"403 371 CURVE",
"159 371 LINE",
"159 678 LINE",
"476 678 LINE",
"478 655 OFFCURVE",
"483 604 OFFCURVE",
"491 586 CURVE",
"500 586 LINE",
"500 700 LINE",
"50 700 LINE",
"50 695 LINE",
"73 687 OFFCURVE",
"103 682 OFFCURVE",
"131 678 CURVE",
"131 21 LINE",
"88 17 OFFCURVE",
"67 12 OFFCURVE",
"50 6 CURVE",
"50 0 LINE",
"500 0 LINE",
"510 114 LINE",
"501 114 LINE",
"493 96 OFFCURVE",
"478 45 OFFCURVE",
"476 22 CURVE",
"159 22 LINE",
"159 349 LINE",
"403 349 LINE",
"405 331 OFFCURVE",
"411 290 OFFCURVE",
"419 269 CURVE",
"427 269 LINE"
);
},
{
closed = 1;
nodes = (
"323 866 LINE",
"352 831 OFFCURVE",
"387 801 OFFCURVE",
"421 777 CURVE",
"434 795 LINE",
"398 821 OFFCURVE",
"361 852 OFFCURVE",
"327 898 CURVE",
"313 898 LINE",
"279 852 OFFCURVE",
"242 821 OFFCURVE",
"206 795 CURVE",
"219 777 LINE",
"253 801 OFFCURVE",
"288 831 OFFCURVE",
"317 866 CURVE"
);
},
{
closed = 1;
nodes = (
"292 -113 OFFCURVE",
"304 -124 OFFCURVE",
"320 -124 CURVE SMOOTH",
"336 -124 OFFCURVE",
"348 -113 OFFCURVE",
"348 -94 CURVE SMOOTH",
"348 -75 OFFCURVE",
"336 -64 OFFCURVE",
"320 -64 CURVE SMOOTH",
"304 -64 OFFCURVE",
"292 -75 OFFCURVE",
"292 -94 CURVE SMOOTH"
);
}
);
width = 566;
}
);
note = Ecircumflexdotbelow;
unicode = 1EC6;
},
{
glyphname = Ecircumflexgrave;
layers = (
{
layerId = "3B510B5F-24E9-457B-9D94-D253B43C96E6";
name = Light;
paths = (
{
closed = 1;
nodes = (
"427 451 LINE",
"419 451 LINE",
"411 430 OFFCURVE",
"405 389 OFFCURVE",
"403 371 CURVE",
"159 371 LINE",
"159 678 LINE",
"476 678 LINE",
"478 655 OFFCURVE",
"483 604 OFFCURVE",
"491 586 CURVE",
"500 586 LINE",
"500 700 LINE",
"50 700 LINE",
"50 695 LINE",
"73 687 OFFCURVE",
"103 682 OFFCURVE",
"131 678 CURVE",
"131 21 LINE",
"88 17 OFFCURVE",
"67 12 OFFCURVE",
"50 6 CURVE",
"50 0 LINE",
"500 0 LINE",
"510 114 LINE",
"501 114 LINE",
"493 96 OFFCURVE",
"478 45 OFFCURVE",
"476 22 CURVE",
"159 22 LINE",
"159 349 LINE",
"403 349 LINE",
"405 331 OFFCURVE",
"411 290 OFFCURVE",
"419 269 CURVE",
"427 269 LINE"
);
},
{
closed = 1;
nodes = (
"434 795 LINE",
"398 821 OFFCURVE",
"361 852 OFFCURVE",
"327 898 CURVE",
"313 898 LINE",
"279 852 OFFCURVE",
"242 821 OFFCURVE",
"206 795 CURVE",
"219 777 LINE",
"253 801 OFFCURVE",
"288 831 OFFCURVE",
"317 866 CURVE",
"323 866 LINE",
"352 831 OFFCURVE",
"387 801 OFFCURVE",
"421 777 CURVE"
);
},
{
closed = 1;
nodes = (
"236 879 LINE",
"243 889 LINE",
"136 976 LINE",
"129 983 OFFCURVE",
"120 988 OFFCURVE",
"110 988 CURVE SMOOTH",
"103 988 OFFCURVE",
"96 983 OFFCURVE",
"96 974 CURVE SMOOTH",
"96 966 OFFCURVE",
"101 957 OFFCURVE",
"112 951 CURVE SMOOTH"
);
}
);
width = 566;
}
);
note = Ecircumflexgrave;
unicode = 1EC0;
},
{
glyphname = Ecircumflexhookabove;
layers = (
{
layerId = "3B510B5F-24E9-457B-9D94-D253B43C96E6";
name = Light;
paths = (
{
closed = 1;
nodes = (
"427 451 LINE",
"419 451 LINE",
"411 430 OFFCURVE",
"405 389 OFFCURVE",
"403 371 CURVE",
"159 371 LINE",
"159 678 LINE",
"476 678 LINE",
"478 655 OFFCURVE",
"483 604 OFFCURVE",
"491 586 CURVE",
"500 586 LINE",
"500 700 LINE",
"50 700 LINE",
"50 695 LINE",
"73 687 OFFCURVE",
"103 682 OFFCURVE",
"131 678 CURVE",
"131 21 LINE",
"88 17 OFFCURVE",
"67 12 OFFCURVE",
"50 6 CURVE",
"50 0 LINE",
"500 0 LINE",
"510 114 LINE",
"501 114 LINE",
"493 96 OFFCURVE",
"478 45 OFFCURVE",
"476 22 CURVE",
"159 22 LINE",
"159 349 LINE",
"403 349 LINE",
"405 331 OFFCURVE",
"411 290 OFFCURVE",
"419 269 CURVE",
"427 269 LINE"
);
},
{
closed = 1;
nodes = (
"434 795 LINE",
"398 821 OFFCURVE",
"361 852 OFFCURVE",
"327 898 CURVE",
"313 898 LINE",
"279 852 OFFCURVE",
"242 821 OFFCURVE",
"206 795 CURVE",
"219 777 LINE",
"253 801 OFFCURVE",
"288 831 OFFCURVE",
"317 866 CURVE",
"323 866 LINE",
"352 831 OFFCURVE",
"387 801 OFFCURVE",
"421 777 CURVE"
);
},
{
closed = 1;
nodes = (
"427 855 LINE",
"436 903 LINE",
"478 908 OFFCURVE",
"497 926 OFFCURVE",
"497 959 CURVE SMOOTH",
"497 998 OFFCURVE",
"466 1013 OFFCURVE",
"434 1013 CURVE SMOOTH",
"413 1013 OFFCURVE",
"392 1007 OFFCURVE",
"379 1000 CURVE",
"384 983 LINE",
"400 992 OFFCURVE",
"415 995 OFFCURVE",
"428 995 CURVE SMOOTH",
"459 995 OFFCURVE",
"473 981 OFFCURVE",
"473 960 CURVE SMOOTH",
"473 939 OFFCURVE",
"460 918 OFFCURVE",
"416 918 CURVE SMOOTH",
"407 918 LINE",
"412 855 LINE"
);
}
);
width = 566;
}
);
note = Ecircumflexhookabove;
unicode = 1EC2;
},
{
glyphname = Ecircumflextilde;
layers = (
{
layerId = "3B510B5F-24E9-457B-9D94-D253B43C96E6";
name = Light;
paths = (
{
closed = 1;
nodes = (
"427 451 LINE",
"419 451 LINE",
"411 430 OFFCURVE",
"405 389 OFFCURVE",
"403 371 CURVE",
"159 371 LINE",
"159 678 LINE",
"476 678 LINE",
"478 655 OFFCURVE",
"483 604 OFFCURVE",
"491 586 CURVE",
"500 586 LINE",
"500 700 LINE",
"50 700 LINE",
"50 695 LINE",
"73 687 OFFCURVE",
"103 682 OFFCURVE",
"131 678 CURVE",
"131 21 LINE",
"88 17 OFFCURVE",
"67 12 OFFCURVE",
"50 6 CURVE",
"50 0 LINE",
"500 0 LINE",
"510 114 LINE",
"501 114 LINE",
"493 96 OFFCURVE",
"478 45 OFFCURVE",
"476 22 CURVE",
"159 22 LINE",
"159 349 LINE",
"403 349 LINE",
"405 331 OFFCURVE",
"411 290 OFFCURVE",
"419 269 CURVE",
"427 269 LINE"
);
},
{
closed = 1;
nodes = (
"434 795 LINE",
"398 821 OFFCURVE",
"361 852 OFFCURVE",
"327 898 CURVE",
"313 898 LINE",
"279 852 OFFCURVE",
"242 821 OFFCURVE",
"206 795 CURVE",
"219 777 LINE",
"253 801 OFFCURVE",
"288 831 OFFCURVE",
"317 866 CURVE",
"323 866 LINE",
"352 831 OFFCURVE",
"387 801 OFFCURVE",
"421 777 CURVE"
);
},
{
closed = 1;
nodes = (
"452 1024 LINE",
"442 984 OFFCURVE",
"425 958 OFFCURVE",
"391 958 CURVE SMOOTH",
"350 958 OFFCURVE",
"302 1017 OFFCURVE",
"259 1017 CURVE SMOOTH",
"223 1017 OFFCURVE",
"193 993 OFFCURVE",
"185 932 CURVE",
"196 932 LINE",
"206 970 OFFCURVE",
"226 994 OFFCURVE",
"257 994 CURVE SMOOTH",
"301 994 OFFCURVE",
"346 934 OFFCURVE",
"388 934 CURVE SMOOTH",
"428 934 OFFCURVE",
"454 968 OFFCURVE",
"463 1024 CURVE"
);
}
);
width = 566;
}
);
note = Ecircumflextilde;
unicode = 1EC4;
},
{
glyphname = Edieresis;
layers = (
{
layerId = "3B510B5F-24E9-457B-9D94-D253B43C96E6";
name = Light;
paths = (
{
closed = 1;
nodes = (
"427 451 LINE",
"419 451 LINE",
"411 430 OFFCURVE",
"405 389 OFFCURVE",
"403 371 CURVE",
"159 371 LINE",
"159 678 LINE",
"476 678 LINE",
"478 655 OFFCURVE",
"483 604 OFFCURVE",
"491 586 CURVE",
"500 586 LINE",
"500 700 LINE",
"50 700 LINE",
"50 695 LINE",
"73 687 OFFCURVE",
"103 682 OFFCURVE",
"131 678 CURVE",
"131 21 LINE",
"88 17 OFFCURVE",
"67 12 OFFCURVE",
"50 6 CURVE",
"50 0 LINE",
"500 0 LINE",
"510 114 LINE",
"501 114 LINE",
"493 96 OFFCURVE",
"478 45 OFFCURVE",
"476 22 CURVE",
"159 22 LINE",
"159 349 LINE",
"403 349 LINE",
"405 331 OFFCURVE",
"411 290 OFFCURVE",
"419 269 CURVE",
"427 269 LINE"
);
},
{
closed = 1;
nodes = (
"179 796 OFFCURVE",
"191 785 OFFCURVE",
"207 785 CURVE SMOOTH",
"223 785 OFFCURVE",
"235 796 OFFCURVE",
"235 815 CURVE SMOOTH",
"235 834 OFFCURVE",
"223 845 OFFCURVE",
"207 845 CURVE SMOOTH",
"191 845 OFFCURVE",
"179 834 OFFCURVE",
"179 815 CURVE SMOOTH"
);
},
{
closed = 1;
nodes = (
"379 796 OFFCURVE",
"391 785 OFFCURVE",
"407 785 CURVE SMOOTH",
"423 785 OFFCURVE",
"435 796 OFFCURVE",
"435 815 CURVE SMOOTH",
"435 834 OFFCURVE",
"423 845 OFFCURVE",
"407 845 CURVE SMOOTH",
"391 845 OFFCURVE",
"379 834 OFFCURVE",
"379 815 CURVE SMOOTH"
);
}
);
width = 566;
}
);
note = Edieresis;
unicode = 00CB;
},
{
glyphname = Edotaccent;
layers = (
{
layerId = "3B510B5F-24E9-457B-9D94-D253B43C96E6";
name = Light;
paths = (
{
closed = 1;
nodes = (
"427 451 LINE",
"419 451 LINE",
"411 430 OFFCURVE",
"405 389 OFFCURVE",
"403 371 CURVE",
"159 371 LINE",
"159 678 LINE",
"476 678 LINE",
"478 655 OFFCURVE",
"483 604 OFFCURVE",
"491 586 CURVE",
"500 586 LINE",
"500 700 LINE",
"50 700 LINE",
"50 695 LINE",
"73 687 OFFCURVE",
"103 682 OFFCURVE",
"131 678 CURVE",
"131 21 LINE",
"88 17 OFFCURVE",
"67 12 OFFCURVE",
"50 6 CURVE",
"50 0 LINE",
"500 0 LINE",
"510 114 LINE",
"501 114 LINE",
"493 96 OFFCURVE",
"478 45 OFFCURVE",
"476 22 CURVE",
"159 22 LINE",
"159 349 LINE",
"403 349 LINE",
"405 331 OFFCURVE",
"411 290 OFFCURVE",
"419 269 CURVE",
"427 269 LINE"
);
},
{
closed = 1;
nodes = (
"286 796 OFFCURVE",
"298 785 OFFCURVE",
"314 785 CURVE SMOOTH",
"330 785 OFFCURVE",
"342 796 OFFCURVE",
"342 815 CURVE SMOOTH",
"342 834 OFFCURVE",
"330 845 OFFCURVE",
"314 845 CURVE SMOOTH",
"298 845 OFFCURVE",
"286 834 OFFCURVE",
"286 815 CURVE SMOOTH"
);
}
);
width = 566;
}
);
note = Edotaccent;
unicode = 0116;
},
{
glyphname = Edotbelow;
layers = (
{
layerId = "3B510B5F-24E9-457B-9D94-D253B43C96E6";
name = Light;
paths = (
{
closed = 1;
nodes = (
"427 451 LINE",
"419 451 LINE",
"411 430 OFFCURVE",
"405 389 OFFCURVE",
"403 371 CURVE",
"159 371 LINE",
"159 678 LINE",
"476 678 LINE",
"478 655 OFFCURVE",
"483 604 OFFCURVE",
"491 586 CURVE",
"500 586 LINE",
"500 700 LINE",
"50 700 LINE",
"50 695 LINE",
"73 687 OFFCURVE",
"103 682 OFFCURVE",
"131 678 CURVE",
"131 21 LINE",
"88 17 OFFCURVE",
"67 12 OFFCURVE",
"50 6 CURVE",
"50 0 LINE",
"500 0 LINE",
"510 114 LINE",
"501 114 LINE",
"493 96 OFFCURVE",
"478 45 OFFCURVE",
"476 22 CURVE",
"159 22 LINE",
"159 349 LINE",
"403 349 LINE",
"405 331 OFFCURVE",
"411 290 OFFCURVE",
"419 269 CURVE",
"427 269 LINE"
);
},
{
closed = 1;
nodes = (
"268 -113 OFFCURVE",
"280 -124 OFFCURVE",
"296 -124 CURVE SMOOTH",
"312 -124 OFFCURVE",
"324 -113 OFFCURVE",
"324 -94 CURVE SMOOTH",
"324 -75 OFFCURVE",
"312 -64 OFFCURVE",
"296 -64 CURVE SMOOTH",
"280 -64 OFFCURVE",
"268 -75 OFFCURVE",
"268 -94 CURVE SMOOTH"
);
}
);
width = 566;
}
);
note = Edotbelow;
unicode = 1EB8;
},
{
glyphname = Egrave;
layers = (
{
layerId = "3B510B5F-24E9-457B-9D94-D253B43C96E6";
name = Light;
paths = (
{
closed = 1;
nodes = (
"427 451 LINE",
"419 451 LINE",
"411 430 OFFCURVE",
"405 389 OFFCURVE",
"403 371 CURVE",
"159 371 LINE",
"159 678 LINE",
"476 678 LINE",
"478 655 OFFCURVE",
"483 604 OFFCURVE",
"491 586 CURVE",
"500 586 LINE",
"500 700 LINE",
"50 700 LINE",
"50 695 LINE",
"73 687 OFFCURVE",
"103 682 OFFCURVE",
"131 678 CURVE",
"131 21 LINE",
"88 17 OFFCURVE",
"67 12 OFFCURVE",
"50 6 CURVE",
"50 0 LINE",
"500 0 LINE",
"510 114 LINE",
"501 114 LINE",
"493 96 OFFCURVE",
"478 45 OFFCURVE",
"476 22 CURVE",
"159 22 LINE",
"159 349 LINE",
"403 349 LINE",
"405 331 OFFCURVE",
"411 290 OFFCURVE",
"419 269 CURVE",
"427 269 LINE"
);
},
{
closed = 1;
nodes = (
"378 787 LINE",
"385 797 LINE",
"278 884 LINE",
"271 891 OFFCURVE",
"262 896 OFFCURVE",
"252 896 CURVE SMOOTH",
"245 896 OFFCURVE",
"238 891 OFFCURVE",
"238 882 CURVE SMOOTH",
"238 874 OFFCURVE",
"243 865 OFFCURVE",
"254 859 CURVE SMOOTH"
);
}
);
width = 566;
}
);
note = Egrave;
unicode = 00C8;
},
{
glyphname = Ehookabove;
layers = (
{
layerId = "3B510B5F-24E9-457B-9D94-D253B43C96E6";
name = Light;
paths = (
{
closed = 1;
nodes = (
"427 451 LINE",
"419 451 LINE",
"411 430 OFFCURVE",
"405 389 OFFCURVE",
"403 371 CURVE",
"159 371 LINE",
"159 678 LINE",
"476 678 LINE",
"478 655 OFFCURVE",
"483 604 OFFCURVE",
"491 586 CURVE",
"500 586 LINE",
"500 700 LINE",
"50 700 LINE",
"50 695 LINE",
"73 687 OFFCURVE",
"103 682 OFFCURVE",
"131 678 CURVE",
"131 21 LINE",
"88 17 OFFCURVE",
"67 12 OFFCURVE",
"50 6 CURVE",
"50 0 LINE",
"500 0 LINE",
"510 114 LINE",
"501 114 LINE",
"493 96 OFFCURVE",
"478 45 OFFCURVE",
"476 22 CURVE",
"159 22 LINE",
"159 349 LINE",
"403 349 LINE",
"405 331 OFFCURVE",
"411 290 OFFCURVE",
"419 269 CURVE",
"427 269 LINE"
);
},
{
closed = 1;
nodes = (
"400 947 OFFCURVE",
"365 969 OFFCURVE",
"325 969 CURVE SMOOTH",
"298 969 OFFCURVE",
"273 961 OFFCURVE",
"257 953 CURVE",
"264 932 LINE",
"283 943 OFFCURVE",
"303 948 OFFCURVE",
"319 948 CURVE SMOOTH",
"356 948 OFFCURVE",
"374 930 OFFCURVE",
"374 905 CURVE SMOOTH",
"374 880 OFFCURVE",
"359 853 OFFCURVE",
"307 853 CURVE SMOOTH",
"296 853 LINE",
"301 777 LINE",
"317 777 LINE",
"328 836 LINE",
"378 841 OFFCURVE",
"400 868 OFFCURVE",
"400 903 CURVE SMOOTH"
);
}
);
width = 566;
}
);
note = Ehookabove;
unicode = 1EBA;
},
{
glyphname = Emacron;
layers = (
{
layerId = "3B510B5F-24E9-457B-9D94-D253B43C96E6";
name = Light;
paths = (
{
closed = 1;
nodes = (
"427 451 LINE",
"419 451 LINE",
"411 430 OFFCURVE",
"405 389 OFFCURVE",
"403 371 CURVE",
"159 371 LINE",
"159 678 LINE",
"476 678 LINE",
"478 655 OFFCURVE",
"483 604 OFFCURVE",
"491 586 CURVE",
"500 586 LINE",
"500 700 LINE",
"50 700 LINE",
"50 695 LINE",
"73 687 OFFCURVE",
"103 682 OFFCURVE",
"131 678 CURVE",
"131 21 LINE",
"88 17 OFFCURVE",
"67 12 OFFCURVE",
"50 6 CURVE",
"50 0 LINE",
"500 0 LINE",
"510 114 LINE",
"501 114 LINE",
"493 96 OFFCURVE",
"478 45 OFFCURVE",
"476 22 CURVE",
"159 22 LINE",
"159 349 LINE",
"403 349 LINE",
"405 331 OFFCURVE",
"411 290 OFFCURVE",
"419 269 CURVE",
"427 269 LINE"
);
},
{
closed = 1;
nodes = (
"168 785 LINE",
"444 785 LINE",
"444 807 LINE",
"168 807 LINE"
);
}
);
width = 566;
}
);
note = Emacron;
unicode = 0112;
},
{
glyphname = Eogonek;
layers = (
{
layerId = "3B510B5F-24E9-457B-9D94-D253B43C96E6";
name = Light;
paths = (
{
closed = 1;
nodes = (
"427 451 LINE",
"419 451 LINE",
"411 430 OFFCURVE",
"405 389 OFFCURVE",
"403 371 CURVE",
"159 371 LINE",
"159 678 LINE",
"476 678 LINE",
"478 655 OFFCURVE",
"483 604 OFFCURVE",
"491 586 CURVE",
"500 586 LINE",
"500 700 LINE",
"50 700 LINE",
"50 695 LINE",
"73 687 OFFCURVE",
"103 682 OFFCURVE",
"131 678 CURVE",
"131 21 LINE",
"88 17 OFFCURVE",
"67 12 OFFCURVE",
"50 6 CURVE",
"50 0 LINE",
"500 0 LINE",
"510 114 LINE",
"501 114 LINE",
"493 96 OFFCURVE",
"478 45 OFFCURVE",
"476 22 CURVE",
"159 22 LINE",
"159 349 LINE",
"403 349 LINE",
"405 331 OFFCURVE",
"411 290 OFFCURVE",
"419 269 CURVE",
"427 269 LINE"
);
},
{
closed = 1;
nodes = (
"454 0 LINE",
"410 -20 OFFCURVE",
"382 -54 OFFCURVE",
"382 -98 CURVE SMOOTH",
"382 -128 OFFCURVE",
"403 -168 OFFCURVE",
"455 -168 CURVE SMOOTH",
"474 -168 OFFCURVE",
"488 -165 OFFCURVE",
"510 -159 CURVE",
"510 -141 LINE",
"497 -145 OFFCURVE",
"482 -147 OFFCURVE",
"468 -147 CURVE SMOOTH",
"436 -147 OFFCURVE",
"407 -135 OFFCURVE",
"407 -97 CURVE SMOOTH",
"407 -57 OFFCURVE",
"438 -20 OFFCURVE",
"480 0 CURVE"
);
}
);
width = 566;
}
);
note = Eogonek;
unicode = 0118;
},
{
glyphname = Etilde;
layers = (
{
layerId = "3B510B5F-24E9-457B-9D94-D253B43C96E6";
name = Light;
paths = (
{
closed = 1;
nodes = (
"427 451 LINE",
"419 451 LINE",
"411 430 OFFCURVE",
"405 389 OFFCURVE",
"403 371 CURVE",
"159 371 LINE",
"159 678 LINE",
"476 678 LINE",
"478 655 OFFCURVE",
"483 604 OFFCURVE",
"491 586 CURVE",
"500 586 LINE",
"500 700 LINE",
"50 700 LINE",
"50 695 LINE",
"73 687 OFFCURVE",
"103 682 OFFCURVE",
"131 678 CURVE",
"131 21 LINE",
"88 17 OFFCURVE",
"67 12 OFFCURVE",
"50 6 CURVE",
"50 0 LINE",
"500 0 LINE",
"510 114 LINE",
"501 114 LINE",
"493 96 OFFCURVE",
"478 45 OFFCURVE",
"476 22 CURVE",
"159 22 LINE",
"159 349 LINE",
"403 349 LINE",
"405 331 OFFCURVE",
"411 290 OFFCURVE",
"419 269 CURVE",
"427 269 LINE"
);
},
{
closed = 1;
nodes = (
"409 787 OFFCURVE",
"435 821 OFFCURVE",
"444 877 CURVE",
"433 877 LINE",
"423 837 OFFCURVE",
"406 811 OFFCURVE",
"372 811 CURVE SMOOTH",
"331 811 OFFCURVE",
"283 870 OFFCURVE",
"240 870 CURVE SMOOTH",
"204 870 OFFCURVE",
"174 846 OFFCURVE",
"166 785 CURVE",
"177 785 LINE",
"187 823 OFFCURVE",
"207 847 OFFCURVE",
"238 847 CURVE SMOOTH",
"282 847 OFFCURVE",
"327 787 OFFCURVE",
"369 787 CURVE SMOOTH"
);
}
);
width = 566;
}
);
note = Etilde;
unicode = 1EBC;
},
{
glyphname = F;
layers = (
{
layerId = "3B510B5F-24E9-457B-9D94-D253B43C96E6";
name = Light;
paths = (
{
closed = 1;
nodes = (
"159 678 LINE",
"476 678 LINE",
"478 655 OFFCURVE",
"483 604 OFFCURVE",
"491 586 CURVE",
"500 586 LINE",
"500 700 LINE",
"50 700 LINE",
"50 695 LINE",
"73 687 OFFCURVE",
"103 682 OFFCURVE",
"131 678 CURVE",
"131 21 LINE",
"88 17 OFFCURVE",
"67 12 OFFCURVE",
"50 6 CURVE",
"50 0 LINE",
"240 0 LINE",
"240 5 LINE",
"217 13 OFFCURVE",
"188 18 OFFCURVE",
"159 22 CURVE"
);
},
{
closed = 1;
nodes = (
"427 451 LINE",
"419 451 LINE",
"411 430 OFFCURVE",
"405 389 OFFCURVE",
"403 371 CURVE",
"155 371 LINE SMOOTH",
"155 371 OFFCURVE",
"155 349 OFFCURVE",
"155 349 CURVE",
"403 349 LINE",
"405 331 OFFCURVE",
"411 290 OFFCURVE",
"419 269 CURVE",
"427 269 LINE"
);
}
);
width = 528;
}
);
note = F;
unicode = 0046;
},
{
glyphname = G;
layers = (
{
layerId = "3B510B5F-24E9-457B-9D94-D253B43C96E6";
name = Light;
paths = (
{
closed = 1;
nodes = (
"538 316 LINE",
"578 320 OFFCURVE",
"594 326 OFFCURVE",
"609 332 CURVE",
"609 338 LINE",
"432 338 LINE",
"432 333 LINE",
"455 326 OFFCURVE",
"484 320 OFFCURVE",
"513 316 CURVE",
"513 55 LINE",
"462 25 OFFCURVE",
"384 12 OFFCURVE",
"343 12 CURVE SMOOTH",
"132 12 OFFCURVE",
"68 166 OFFCURVE",
"68 350 CURVE SMOOTH",
"68 536 OFFCURVE",
"146 688 OFFCURVE",
"350 688 CURVE SMOOTH",
"412 688 OFFCURVE",
"499 664 OFFCURVE",
"521 645 CURVE",
"523 622 OFFCURVE",
"528 571 OFFCURVE",
"536 553 CURVE",
"545 553 LINE",
"551 651 LINE",
"510 687 OFFCURVE",
"414 710 OFFCURVE",
"342 710 CURVE SMOOTH",
"153 710 OFFCURVE",
"40 573 OFFCURVE",
"40 350 CURVE SMOOTH",
"40 127 OFFCURVE",
"138 -10 OFFCURVE",
"333 -10 CURVE SMOOTH",
"405 -10 OFFCURVE",
"488 10 OFFCURVE",
"538 51 CURVE"
);
}
);
width = 621;
}
);
leftKerningGroup = G;
note = G;
unicode = 0047;
},
{
glyphname = Gbreve;
layers = (
{
layerId = "3B510B5F-24E9-457B-9D94-D253B43C96E6";
name = Light;
paths = (
{
closed = 1;
nodes = (
"538 316 LINE",
"578 320 OFFCURVE",
"594 326 OFFCURVE",
"609 332 CURVE",
"609 338 LINE",
"432 338 LINE",
"432 333 LINE",
"455 326 OFFCURVE",
"484 320 OFFCURVE",
"513 316 CURVE",
"513 55 LINE",
"462 25 OFFCURVE",
"384 12 OFFCURVE",
"343 12 CURVE SMOOTH",
"132 12 OFFCURVE",
"68 166 OFFCURVE",
"68 350 CURVE SMOOTH",
"68 536 OFFCURVE",
"146 688 OFFCURVE",
"350 688 CURVE SMOOTH",
"412 688 OFFCURVE",
"499 664 OFFCURVE",
"521 645 CURVE",
"523 622 OFFCURVE",
"528 571 OFFCURVE",
"536 553 CURVE",
"545 553 LINE",
"551 651 LINE",
"510 687 OFFCURVE",
"414 710 OFFCURVE",
"342 710 CURVE SMOOTH",
"153 710 OFFCURVE",
"40 573 OFFCURVE",
"40 350 CURVE SMOOTH",
"40 127 OFFCURVE",
"138 -10 OFFCURVE",
"333 -10 CURVE SMOOTH",
"405 -10 OFFCURVE",
"488 10 OFFCURVE",
"538 51 CURVE"
);
},
{
closed = 1;
nodes = (
"411 773 OFFCURVE",
"464 808 OFFCURVE",
"470 886 CURVE",
"444 886 LINE",
"435 807 OFFCURVE",
"381 795 OFFCURVE",
"340 795 CURVE SMOOTH",
"299 795 OFFCURVE",
"245 807 OFFCURVE",
"236 886 CURVE",
"210 886 LINE",
"216 808 OFFCURVE",
"269 773 OFFCURVE",
"340 773 CURVE SMOOTH"
);
}
);
width = 621;
}
);
leftKerningGroup = G;
note = Gbreve;
unicode = 011E;
},
{
glyphname = Gcaron;
layers = (
{
layerId = "3B510B5F-24E9-457B-9D94-D253B43C96E6";
name = Light;
paths = (
{
closed = 1;
nodes = (
"538 316 LINE",
"578 320 OFFCURVE",
"594 326 OFFCURVE",
"609 332 CURVE",
"609 338 LINE",
"432 338 LINE",
"432 333 LINE",
"455 326 OFFCURVE",
"484 320 OFFCURVE",
"513 316 CURVE",
"513 55 LINE",
"462 25 OFFCURVE",
"384 12 OFFCURVE",
"343 12 CURVE SMOOTH",
"132 12 OFFCURVE",
"68 166 OFFCURVE",
"68 350 CURVE SMOOTH",
"68 536 OFFCURVE",
"146 688 OFFCURVE",
"350 688 CURVE SMOOTH",
"412 688 OFFCURVE",
"499 664 OFFCURVE",
"521 645 CURVE",
"523 622 OFFCURVE",
"528 571 OFFCURVE",
"536 553 CURVE",
"545 553 LINE",
"551 651 LINE",
"510 687 OFFCURVE",
"414 710 OFFCURVE",
"342 710 CURVE SMOOTH",
"153 710 OFFCURVE",
"40 573 OFFCURVE",
"40 350 CURVE SMOOTH",
"40 127 OFFCURVE",
"138 -10 OFFCURVE",
"333 -10 CURVE SMOOTH",
"405 -10 OFFCURVE",
"488 10 OFFCURVE",
"538 51 CURVE"
);
},
{
closed = 1;
nodes = (
"332 838 LINE",
"303 873 OFFCURVE",
"268 903 OFFCURVE",
"234 927 CURVE",
"221 909 LINE",
"257 883 OFFCURVE",
"294 852 OFFCURVE",
"328 806 CURVE",
"342 806 LINE",
"376 852 OFFCURVE",
"413 883 OFFCURVE",
"449 909 CURVE",
"436 927 LINE",
"402 903 OFFCURVE",
"367 873 OFFCURVE",
"338 838 CURVE"
);
}
);
width = 621;
}
);
leftKerningGroup = G;
note = Gcaron;
unicode = 01E6;
},
{
glyphname = Gcircumflex;
layers = (
{
layerId = "3B510B5F-24E9-457B-9D94-D253B43C96E6";
name = Light;
paths = (
{
closed = 1;
nodes = (
"538 316 LINE",
"578 320 OFFCURVE",
"594 326 OFFCURVE",
"609 332 CURVE",
"609 338 LINE",
"432 338 LINE",
"432 333 LINE",
"455 326 OFFCURVE",
"484 320 OFFCURVE",
"513 316 CURVE",
"513 55 LINE",
"462 25 OFFCURVE",
"384 12 OFFCURVE",
"343 12 CURVE SMOOTH",
"132 12 OFFCURVE",
"68 166 OFFCURVE",
"68 350 CURVE SMOOTH",
"68 536 OFFCURVE",
"146 688 OFFCURVE",
"350 688 CURVE SMOOTH",
"412 688 OFFCURVE",
"499 664 OFFCURVE",
"521 645 CURVE",
"523 622 OFFCURVE",
"528 571 OFFCURVE",
"536 553 CURVE",
"545 553 LINE",
"551 651 LINE",
"510 687 OFFCURVE",
"414 710 OFFCURVE",
"342 710 CURVE SMOOTH",
"153 710 OFFCURVE",
"40 573 OFFCURVE",
"40 350 CURVE SMOOTH",
"40 127 OFFCURVE",
"138 -10 OFFCURVE",
"333 -10 CURVE SMOOTH",
"405 -10 OFFCURVE",
"488 10 OFFCURVE",
"538 51 CURVE"
);
},
{
closed = 1;
nodes = (
"359 866 LINE",
"388 831 OFFCURVE",
"423 801 OFFCURVE",
"457 777 CURVE",
"470 795 LINE",
"434 821 OFFCURVE",
"397 852 OFFCURVE",
"363 898 CURVE",
"349 898 LINE",
"315 852 OFFCURVE",
"278 821 OFFCURVE",
"242 795 CURVE",
"255 777 LINE",
"289 801 OFFCURVE",
"324 831 OFFCURVE",
"353 866 CURVE"
);
}
);
width = 621;
}
);
leftKerningGroup = G;
note = Gcircumflex;
unicode = 011C;
},
{
glyphname = Gcommaaccent;
layers = (
{
layerId = "3B510B5F-24E9-457B-9D94-D253B43C96E6";
name = Light;
paths = (
{
closed = 1;
nodes = (
"538 316 LINE",
"578 320 OFFCURVE",
"594 326 OFFCURVE",
"609 332 CURVE",
"609 338 LINE",
"432 338 LINE",
"432 333 LINE",
"455 326 OFFCURVE",
"484 320 OFFCURVE",
"513 316 CURVE",
"513 55 LINE",
"462 25 OFFCURVE",
"384 12 OFFCURVE",
"343 12 CURVE SMOOTH",
"132 12 OFFCURVE",
"68 166 OFFCURVE",
"68 350 CURVE SMOOTH",
"68 536 OFFCURVE",
"146 688 OFFCURVE",
"350 688 CURVE SMOOTH",
"412 688 OFFCURVE",
"499 664 OFFCURVE",
"521 645 CURVE",
"523 622 OFFCURVE",
"528 571 OFFCURVE",
"536 553 CURVE",
"545 553 LINE",
"551 651 LINE",
"510 687 OFFCURVE",
"414 710 OFFCURVE",
"342 710 CURVE SMOOTH",
"153 710 OFFCURVE",
"40 573 OFFCURVE",
"40 350 CURVE SMOOTH",
"40 127 OFFCURVE",
"138 -10 OFFCURVE",
"333 -10 CURVE SMOOTH",
"405 -10 OFFCURVE",
"488 10 OFFCURVE",
"538 51 CURVE"
);
},
{
closed = 1;
nodes = (
"327 -235 LINE",
"356 -206 OFFCURVE",
"372 -145 OFFCURVE",
"372 -111 CURVE SMOOTH",
"372 -78 OFFCURVE",
"361 -56 OFFCURVE",
"330 -56 CURVE SMOOTH",
"313 -56 OFFCURVE",
"297 -65 OFFCURVE",
"297 -88 CURVE SMOOTH",
"297 -104 OFFCURVE",
"308 -118 OFFCURVE",
"323 -118 CURVE SMOOTH",
"329 -118 OFFCURVE",
"338 -118 OFFCURVE",
"344 -114 CURVE",
"344 -124 LINE SMOOTH",
"344 -158 OFFCURVE",
"332 -196 OFFCURVE",
"312 -222 CURVE"
);
}
);
width = 621;
}
);
leftKerningGroup = G;
note = Gcommaaccent;
unicode = 0122;
},
{
glyphname = Gdotaccent;
layers = (
{
layerId = "3B510B5F-24E9-457B-9D94-D253B43C96E6";
name = Light;
paths = (
{
closed = 1;
nodes = (
"538 316 LINE",
"578 320 OFFCURVE",
"594 326 OFFCURVE",
"609 332 CURVE",
"609 338 LINE",
"432 338 LINE",
"432 333 LINE",
"455 326 OFFCURVE",
"484 320 OFFCURVE",
"513 316 CURVE",
"513 55 LINE",
"462 25 OFFCURVE",
"384 12 OFFCURVE",
"343 12 CURVE SMOOTH",
"132 12 OFFCURVE",
"68 166 OFFCURVE",
"68 350 CURVE SMOOTH",
"68 536 OFFCURVE",
"146 688 OFFCURVE",
"350 688 CURVE SMOOTH",
"412 688 OFFCURVE",
"499 664 OFFCURVE",
"521 645 CURVE",
"523 622 OFFCURVE",
"528 571 OFFCURVE",
"536 553 CURVE",
"545 553 LINE",
"551 651 LINE",
"510 687 OFFCURVE",
"414 710 OFFCURVE",
"342 710 CURVE SMOOTH",
"153 710 OFFCURVE",
"40 573 OFFCURVE",
"40 350 CURVE SMOOTH",
"40 127 OFFCURVE",
"138 -10 OFFCURVE",
"333 -10 CURVE SMOOTH",
"405 -10 OFFCURVE",
"488 10 OFFCURVE",
"538 51 CURVE"
);
},
{
closed = 1;
nodes = (
"317 796 OFFCURVE",
"329 785 OFFCURVE",
"345 785 CURVE SMOOTH",
"361 785 OFFCURVE",
"373 796 OFFCURVE",
"373 815 CURVE SMOOTH",
"373 834 OFFCURVE",
"361 845 OFFCURVE",
"345 845 CURVE SMOOTH",
"329 845 OFFCURVE",
"317 834 OFFCURVE",
"317 815 CURVE SMOOTH"
);
}
);
width = 621;
}
);
leftKerningGroup = G;
note = Gdotaccent;
unicode = 0120;
},
{
glyphname = Gmacron;
layers = (
{
layerId = "3B510B5F-24E9-457B-9D94-D253B43C96E6";
name = Light;
paths = (
{
closed = 1;
nodes = (
"538 316 LINE",
"578 320 OFFCURVE",
"594 326 OFFCURVE",
"609 332 CURVE",
"609 338 LINE",
"432 338 LINE",
"432 333 LINE",
"455 326 OFFCURVE",
"484 320 OFFCURVE",
"513 316 CURVE",
"513 55 LINE",
"462 25 OFFCURVE",
"384 12 OFFCURVE",
"343 12 CURVE SMOOTH",
"132 12 OFFCURVE",
"68 166 OFFCURVE",
"68 350 CURVE SMOOTH",
"68 536 OFFCURVE",
"146 688 OFFCURVE",
"350 688 CURVE SMOOTH",
"412 688 OFFCURVE",
"499 664 OFFCURVE",
"521 645 CURVE",
"523 622 OFFCURVE",
"528 571 OFFCURVE",
"536 553 CURVE",
"545 553 LINE",
"551 651 LINE",
"510 687 OFFCURVE",
"414 710 OFFCURVE",
"342 710 CURVE SMOOTH",
"153 710 OFFCURVE",
"40 573 OFFCURVE",
"40 350 CURVE SMOOTH",
"40 127 OFFCURVE",
"138 -10 OFFCURVE",
"333 -10 CURVE SMOOTH",
"405 -10 OFFCURVE",
"488 10 OFFCURVE",
"538 51 CURVE"
);
},
{
closed = 1;
nodes = (
"214 785 LINE",
"490 785 LINE",
"490 807 LINE",
"214 807 LINE"
);
}
);
width = 621;
}
);
leftKerningGroup = G;
note = Gmacron;
unicode = 1E20;
},
{
glyphname = H;
layers = (
{
layerId = "3B510B5F-24E9-457B-9D94-D253B43C96E6";
name = Light;
paths = (
{
closed = 1;
nodes = (
"159 679 LINE",
"202 683 OFFCURVE",
"221 688 OFFCURVE",
"238 694 CURVE",
"238 700 LINE",
"50 700 LINE",
"50 695 LINE",
"73 687 OFFCURVE",
"103 682 OFFCURVE",
"131 678 CURVE",
"131 21 LINE",
"88 17 OFFCURVE",
"67 12 OFFCURVE",
"50 6 CURVE",
"50 0 LINE",
"238 0 LINE",
"238 5 LINE",
"215 13 OFFCURVE",
"187 18 OFFCURVE",
"159 22 CURVE"
);
},
{
closed = 1;
nodes = (
"597 21 LINE",
"554 17 OFFCURVE",
"535 12 OFFCURVE",
"518 6 CURVE",
"518 0 LINE",
"706 0 LINE",
"706 5 LINE",
"683 13 OFFCURVE",
"653 18 OFFCURVE",
"625 22 CURVE",
"625 679 LINE",
"668 683 OFFCURVE",
"689 688 OFFCURVE",
"706 694 CURVE",
"706 700 LINE",
"518 700 LINE",
"518 695 LINE",
"541 687 OFFCURVE",
"569 682 OFFCURVE",
"597 678 CURVE"
);
},
{
closed = 1;
nodes = (
"146 345 LINE",
"611 345 LINE",
"611 367 LINE",
"146 367 LINE"
);
}
);
width = 756;
}
);
note = H;
unicode = 0048;
},
{
glyphname = Hbar;
layers = (
{
layerId = "3B510B5F-24E9-457B-9D94-D253B43C96E6";
name = Light;
paths = (
{
closed = 1;
nodes = (
"70 515 LINE",
"686 515 LINE",
"686 537 LINE",
"70 537 LINE"
);
},
{
closed = 1;
nodes = (
"159 679 LINE",
"202 683 OFFCURVE",
"221 688 OFFCURVE",
"238 694 CURVE",
"238 700 LINE",
"50 700 LINE",
"50 695 LINE",
"73 687 OFFCURVE",
"103 682 OFFCURVE",
"131 678 CURVE",
"131 21 LINE",
"88 17 OFFCURVE",
"67 12 OFFCURVE",
"50 6 CURVE",
"50 0 LINE",
"238 0 LINE",
"238 5 LINE",
"215 13 OFFCURVE",
"187 18 OFFCURVE",
"159 22 CURVE"
);
},
{
closed = 1;
nodes = (
"597 21 LINE",
"554 17 OFFCURVE",
"535 12 OFFCURVE",
"518 6 CURVE",
"518 0 LINE",
"706 0 LINE",
"706 5 LINE",
"683 13 OFFCURVE",
"653 18 OFFCURVE",
"625 22 CURVE",
"625 679 LINE",
"668 683 OFFCURVE",
"689 688 OFFCURVE",
"706 694 CURVE",
"706 700 LINE",
"518 700 LINE",
"518 695 LINE",
"541 687 OFFCURVE",
"569 682 OFFCURVE",
"597 678 CURVE"
);
},
{
closed = 1;
nodes = (
"146 345 LINE",
"611 345 LINE",
"611 367 LINE",
"146 367 LINE"
);
}
);
width = 756;
}
);
note = Hbar;
unicode = 0126;
},
{
glyphname = Hbrevebelow;
layers = (
{
layerId = "3B510B5F-24E9-457B-9D94-D253B43C96E6";
name = Light;
paths = (
{
closed = 1;
nodes = (
"159 679 LINE",
"202 683 OFFCURVE",
"221 688 OFFCURVE",
"238 694 CURVE",
"238 700 LINE",
"50 700 LINE",
"50 695 LINE",
"73 687 OFFCURVE",
"103 682 OFFCURVE",
"131 678 CURVE",
"131 21 LINE",
"88 17 OFFCURVE",
"67 12 OFFCURVE",
"50 6 CURVE",
"50 0 LINE",
"238 0 LINE",
"238 5 LINE",
"215 13 OFFCURVE",
"187 18 OFFCURVE",
"159 22 CURVE"
);
},
{
closed = 1;
nodes = (
"597 21 LINE",
"554 17 OFFCURVE",
"535 12 OFFCURVE",
"518 6 CURVE",
"518 0 LINE",
"706 0 LINE",
"706 5 LINE",
"683 13 OFFCURVE",
"653 18 OFFCURVE",
"625 22 CURVE",
"625 679 LINE",
"668 683 OFFCURVE",
"689 688 OFFCURVE",
"706 694 CURVE",
"706 700 LINE",
"518 700 LINE",
"518 695 LINE",
"541 687 OFFCURVE",
"569 682 OFFCURVE",
"597 678 CURVE"
);
},
{
closed = 1;
nodes = (
"146 345 LINE",
"611 345 LINE",
"611 367 LINE",
"146 367 LINE"
);
},
{
closed = 1;
nodes = (
"449 -163 OFFCURVE",
"502 -128 OFFCURVE",
"508 -50 CURVE",
"482 -50 LINE",
"473 -129 OFFCURVE",
"419 -141 OFFCURVE",
"378 -141 CURVE SMOOTH",
"337 -141 OFFCURVE",
"283 -129 OFFCURVE",
"274 -50 CURVE",
"248 -50 LINE",
"254 -128 OFFCURVE",
"307 -163 OFFCURVE",
"378 -163 CURVE SMOOTH"
);
}
);
width = 756;
}
);
note = Hbrevebelow;
unicode = 1E2A;
},
{
glyphname = Hcircumflex;
layers = (
{
layerId = "3B510B5F-24E9-457B-9D94-D253B43C96E6";
name = Light;
paths = (
{
closed = 1;
nodes = (
"159 679 LINE",
"202 683 OFFCURVE",
"221 688 OFFCURVE",
"238 694 CURVE",
"238 700 LINE",
"50 700 LINE",
"50 695 LINE",
"73 687 OFFCURVE",
"103 682 OFFCURVE",
"131 678 CURVE",
"131 21 LINE",
"88 17 OFFCURVE",
"67 12 OFFCURVE",
"50 6 CURVE",
"50 0 LINE",
"238 0 LINE",
"238 5 LINE",
"215 13 OFFCURVE",
"187 18 OFFCURVE",
"159 22 CURVE"
);
},
{
closed = 1;
nodes = (
"597 21 LINE",
"554 17 OFFCURVE",
"535 12 OFFCURVE",
"518 6 CURVE",
"518 0 LINE",
"706 0 LINE",
"706 5 LINE",
"683 13 OFFCURVE",
"653 18 OFFCURVE",
"625 22 CURVE",
"625 679 LINE",
"668 683 OFFCURVE",
"689 688 OFFCURVE",
"706 694 CURVE",
"706 700 LINE",
"518 700 LINE",
"518 695 LINE",
"541 687 OFFCURVE",
"569 682 OFFCURVE",
"597 678 CURVE"
);
},
{
closed = 1;
nodes = (
"146 345 LINE",
"611 345 LINE",
"611 367 LINE",
"146 367 LINE"
);
},
{
closed = 1;
nodes = (
"381 866 LINE",
"410 831 OFFCURVE",
"445 801 OFFCURVE",
"479 777 CURVE",
"492 795 LINE",
"456 821 OFFCURVE",
"419 852 OFFCURVE",
"385 898 CURVE",
"371 898 LINE",
"337 852 OFFCURVE",
"300 821 OFFCURVE",
"264 795 CURVE",
"277 777 LINE",
"311 801 OFFCURVE",
"346 831 OFFCURVE",
"375 866 CURVE"
);
}
);
width = 756;
}
);
note = Hcircumflex;
unicode = 0124;
},
{
glyphname = Hdotbelow;
layers = (
{
layerId = "3B510B5F-24E9-457B-9D94-D253B43C96E6";
name = Light;
paths = (
{
closed = 1;
nodes = (
"159 679 LINE",
"202 683 OFFCURVE",
"221 688 OFFCURVE",
"238 694 CURVE",
"238 700 LINE",
"50 700 LINE",
"50 695 LINE",
"73 687 OFFCURVE",
"103 682 OFFCURVE",
"131 678 CURVE",
"131 21 LINE",
"88 17 OFFCURVE",
"67 12 OFFCURVE",
"50 6 CURVE",
"50 0 LINE",
"238 0 LINE",
"238 5 LINE",
"215 13 OFFCURVE",
"187 18 OFFCURVE",
"159 22 CURVE"
);
},
{
closed = 1;
nodes = (
"597 21 LINE",
"554 17 OFFCURVE",
"535 12 OFFCURVE",
"518 6 CURVE",
"518 0 LINE",
"706 0 LINE",
"706 5 LINE",
"683 13 OFFCURVE",
"653 18 OFFCURVE",
"625 22 CURVE",
"625 679 LINE",
"668 683 OFFCURVE",
"689 688 OFFCURVE",
"706 694 CURVE",
"706 700 LINE",
"518 700 LINE",
"518 695 LINE",
"541 687 OFFCURVE",
"569 682 OFFCURVE",
"597 678 CURVE"
);
},
{
closed = 1;
nodes = (
"146 345 LINE",
"611 345 LINE",
"611 367 LINE",
"146 367 LINE"
);
},
{
closed = 1;
nodes = (
"344 -113 OFFCURVE",
"356 -124 OFFCURVE",
"372 -124 CURVE SMOOTH",
"388 -124 OFFCURVE",
"400 -113 OFFCURVE",
"400 -94 CURVE SMOOTH",
"400 -75 OFFCURVE",
"388 -64 OFFCURVE",
"372 -64 CURVE SMOOTH",
"356 -64 OFFCURVE",
"344 -75 OFFCURVE",
"344 -94 CURVE SMOOTH"
);
}
);
width = 756;
}
);
note = Hdotbelow;
unicode = 1E24;
},
{
glyphname = I;
layers = (
{
layerId = "3B510B5F-24E9-457B-9D94-D253B43C96E6";
name = Light;
paths = (
{
closed = 1;
nodes = (
"137 21 LINE",
"108 18 OFFCURVE",
"79 13 OFFCURVE",
"55 5 CURVE",
"55 0 LINE",
"247 0 LINE",
"247 5 LINE",
"223 13 OFFCURVE",
"194 18 OFFCURVE",
"165 22 CURVE",
"165 679 LINE",
"194 682 OFFCURVE",
"223 687 OFFCURVE",
"247 695 CURVE",
"247 700 LINE",
"55 700 LINE",
"55 695 LINE",
"79 687 OFFCURVE",
"108 682 OFFCURVE",
"137 678 CURVE"
);
}
);
width = 302;
}
);
note = I;
unicode = 0049;
},
{
glyphname = IJ;
layers = (
{
layerId = "3B510B5F-24E9-457B-9D94-D253B43C96E6";
name = Light;
paths = (
{
closed = 1;
nodes = (
"137 21 LINE",
"108 18 OFFCURVE",
"79 13 OFFCURVE",
"55 5 CURVE",
"55 0 LINE",
"247 0 LINE",
"247 5 LINE",
"223 13 OFFCURVE",
"194 18 OFFCURVE",
"165 22 CURVE",
"165 679 LINE",
"194 682 OFFCURVE",
"223 687 OFFCURVE",
"247 695 CURVE",
"247 700 LINE",
"55 700 LINE",
"55 695 LINE",
"79 687 OFFCURVE",
"108 682 OFFCURVE",
"137 678 CURVE"
);
},
{
closed = 1;
nodes = (
"487 700 LINE",
"487 693 LINE",
"504 687 OFFCURVE",
"525 682 OFFCURVE",
"568 678 CURVE",
"568 131 LINE SMOOTH",
"568 46 OFFCURVE",
"517 16 OFFCURVE",
"444 16 CURVE SMOOTH",
"400 16 OFFCURVE",
"364 25 OFFCURVE",
"333 41 CURVE",
"326 31 LINE",
"358 6 OFFCURVE",
"395 -10 OFFCURVE",
"453 -10 CURVE SMOOTH",
"550 -10 OFFCURVE",
"596 44 OFFCURVE",
"596 125 CURVE SMOOTH",
"596 679 LINE",
"639 683 OFFCURVE",
"660 688 OFFCURVE",
"677 694 CURVE",
"677 700 LINE"
);
}
);
width = 727;
}
);
note = IJ;
rightKerningGroup = J;
unicode = 0132;
},
{
glyphname = Iacute;
layers = (
{
layerId = "3B510B5F-24E9-457B-9D94-D253B43C96E6";
name = Light;
paths = (
{
closed = 1;
nodes = (
"137 21 LINE",
"108 18 OFFCURVE",
"79 13 OFFCURVE",
"55 5 CURVE",
"55 0 LINE",
"247 0 LINE",
"247 5 LINE",
"223 13 OFFCURVE",
"194 18 OFFCURVE",
"165 22 CURVE",
"165 679 LINE",
"194 682 OFFCURVE",
"223 687 OFFCURVE",
"247 695 CURVE",
"247 700 LINE",
"55 700 LINE",
"55 695 LINE",
"79 687 OFFCURVE",
"108 682 OFFCURVE",
"137 678 CURVE"
);
},
{
closed = 1;
nodes = (
"208 859 LINE SMOOTH",
"219 865 OFFCURVE",
"224 874 OFFCURVE",
"224 882 CURVE SMOOTH",
"224 891 OFFCURVE",
"217 896 OFFCURVE",
"210 896 CURVE SMOOTH",
"200 896 OFFCURVE",
"191 891 OFFCURVE",
"184 884 CURVE",
"77 797 LINE",
"84 787 LINE"
);
}
);
width = 302;
}
);
note = Iacute;
unicode = 00CD;
},
{
glyphname = Ibreve;
layers = (
{
layerId = "3B510B5F-24E9-457B-9D94-D253B43C96E6";
name = Light;
paths = (
{
closed = 1;
nodes = (
"137 21 LINE",
"108 18 OFFCURVE",
"79 13 OFFCURVE",
"55 5 CURVE",
"55 0 LINE",
"247 0 LINE",
"247 5 LINE",
"223 13 OFFCURVE",
"194 18 OFFCURVE",
"165 22 CURVE",
"165 679 LINE",
"194 682 OFFCURVE",
"223 687 OFFCURVE",
"247 695 CURVE",
"247 700 LINE",
"55 700 LINE",
"55 695 LINE",
"79 687 OFFCURVE",
"108 682 OFFCURVE",
"137 678 CURVE"
);
},
{
closed = 1;
nodes = (
"222 773 OFFCURVE",
"275 808 OFFCURVE",
"281 886 CURVE",
"255 886 LINE",
"246 807 OFFCURVE",
"192 795 OFFCURVE",
"151 795 CURVE SMOOTH",
"110 795 OFFCURVE",
"56 807 OFFCURVE",
"47 886 CURVE",
"21 886 LINE",
"27 808 OFFCURVE",
"80 773 OFFCURVE",
"151 773 CURVE SMOOTH"
);
}
);
width = 302;
}
);
note = Ibreve;
unicode = 012C;
},
{
glyphname = Icaron;
layers = (
{
layerId = "3B510B5F-24E9-457B-9D94-D253B43C96E6";
name = Light;
paths = (
{
closed = 1;
nodes = (
"137 21 LINE",
"108 18 OFFCURVE",
"79 13 OFFCURVE",
"55 5 CURVE",
"55 0 LINE",
"247 0 LINE",
"247 5 LINE",
"223 13 OFFCURVE",
"194 18 OFFCURVE",
"165 22 CURVE",
"165 679 LINE",
"194 682 OFFCURVE",
"223 687 OFFCURVE",
"247 695 CURVE",
"247 700 LINE",
"55 700 LINE",
"55 695 LINE",
"79 687 OFFCURVE",
"108 682 OFFCURVE",
"137 678 CURVE"
);
},
{
closed = 1;
nodes = (
"148 819 LINE",
"119 854 OFFCURVE",
"84 884 OFFCURVE",
"50 908 CURVE",
"37 890 LINE",
"73 864 OFFCURVE",
"110 833 OFFCURVE",
"144 787 CURVE",
"158 787 LINE",
"192 833 OFFCURVE",
"229 864 OFFCURVE",
"265 890 CURVE",
"252 908 LINE",
"218 884 OFFCURVE",
"183 854 OFFCURVE",
"154 819 CURVE"
);
}
);
width = 302;
}
);
note = Icaron;
unicode = 01CF;
},
{
glyphname = Icircumflex;
layers = (
{
layerId = "3B510B5F-24E9-457B-9D94-D253B43C96E6";
name = Light;
paths = (
{
closed = 1;
nodes = (
"137 21 LINE",
"108 18 OFFCURVE",
"79 13 OFFCURVE",
"55 5 CURVE",
"55 0 LINE",
"247 0 LINE",
"247 5 LINE",
"223 13 OFFCURVE",
"194 18 OFFCURVE",
"165 22 CURVE",
"165 679 LINE",
"194 682 OFFCURVE",
"223 687 OFFCURVE",
"247 695 CURVE",
"247 700 LINE",
"55 700 LINE",
"55 695 LINE",
"79 687 OFFCURVE",
"108 682 OFFCURVE",
"137 678 CURVE"
);
},
{
closed = 1;
nodes = (
"154 866 LINE",
"183 831 OFFCURVE",
"218 801 OFFCURVE",
"252 777 CURVE",
"265 795 LINE",
"229 821 OFFCURVE",
"192 852 OFFCURVE",
"158 898 CURVE",
"144 898 LINE",
"110 852 OFFCURVE",
"73 821 OFFCURVE",
"37 795 CURVE",
"50 777 LINE",
"84 801 OFFCURVE",
"119 831 OFFCURVE",
"148 866 CURVE"
);
}
);
width = 302;
}
);
note = Icircumflex;
unicode = 00CE;
},
{
glyphname = Idieresis;
layers = (
{
layerId = "3B510B5F-24E9-457B-9D94-D253B43C96E6";
name = Light;
paths = (
{
closed = 1;
nodes = (
"137 21 LINE",
"108 18 OFFCURVE",
"79 13 OFFCURVE",
"55 5 CURVE",
"55 0 LINE",
"247 0 LINE",
"247 5 LINE",
"223 13 OFFCURVE",
"194 18 OFFCURVE",
"165 22 CURVE",
"165 679 LINE",
"194 682 OFFCURVE",
"223 687 OFFCURVE",
"247 695 CURVE",
"247 700 LINE",
"55 700 LINE",
"55 695 LINE",
"79 687 OFFCURVE",
"108 682 OFFCURVE",
"137 678 CURVE"
);
},
{
closed = 1;
nodes = (
"23 796 OFFCURVE",
"35 785 OFFCURVE",
"51 785 CURVE SMOOTH",
"67 785 OFFCURVE",
"79 796 OFFCURVE",
"79 815 CURVE SMOOTH",
"79 834 OFFCURVE",
"67 845 OFFCURVE",
"51 845 CURVE SMOOTH",
"35 845 OFFCURVE",
"23 834 OFFCURVE",
"23 815 CURVE SMOOTH"
);
},
{
closed = 1;
nodes = (
"223 796 OFFCURVE",
"235 785 OFFCURVE",
"251 785 CURVE SMOOTH",
"267 785 OFFCURVE",
"279 796 OFFCURVE",
"279 815 CURVE SMOOTH",
"279 834 OFFCURVE",
"267 845 OFFCURVE",
"251 845 CURVE SMOOTH",
"235 845 OFFCURVE",
"223 834 OFFCURVE",
"223 815 CURVE SMOOTH"
);
}
);
width = 302;
}
);
note = Idieresis;
unicode = 00CF;
},
{
glyphname = Idotaccent;
layers = (
{
layerId = "3B510B5F-24E9-457B-9D94-D253B43C96E6";
name = Light;
paths = (
{
closed = 1;
nodes = (
"137 21 LINE",
"108 18 OFFCURVE",
"79 13 OFFCURVE",
"55 5 CURVE",
"55 0 LINE",
"247 0 LINE",
"247 5 LINE",
"223 13 OFFCURVE",
"194 18 OFFCURVE",
"165 22 CURVE",
"165 679 LINE",
"194 682 OFFCURVE",
"223 687 OFFCURVE",
"247 695 CURVE",
"247 700 LINE",
"55 700 LINE",
"55 695 LINE",
"79 687 OFFCURVE",
"108 682 OFFCURVE",
"137 678 CURVE"
);
},
{
closed = 1;
nodes = (
"123 796 OFFCURVE",
"135 785 OFFCURVE",
"151 785 CURVE SMOOTH",
"167 785 OFFCURVE",
"179 796 OFFCURVE",
"179 815 CURVE SMOOTH",
"179 834 OFFCURVE",
"167 845 OFFCURVE",
"151 845 CURVE SMOOTH",
"135 845 OFFCURVE",
"123 834 OFFCURVE",
"123 815 CURVE SMOOTH"
);
}
);
width = 302;
}
);
note = Idotaccent;
unicode = 0130;
},
{
glyphname = Idotbelow;
layers = (
{
layerId = "3B510B5F-24E9-457B-9D94-D253B43C96E6";
name = Light;
paths = (
{
closed = 1;
nodes = (
"137 21 LINE",
"108 18 OFFCURVE",
"79 13 OFFCURVE",
"55 5 CURVE",
"55 0 LINE",
"247 0 LINE",
"247 5 LINE",
"223 13 OFFCURVE",
"194 18 OFFCURVE",
"165 22 CURVE",
"165 679 LINE",
"194 682 OFFCURVE",
"223 687 OFFCURVE",
"247 695 CURVE",
"247 700 LINE",
"55 700 LINE",
"55 695 LINE",
"79 687 OFFCURVE",
"108 682 OFFCURVE",
"137 678 CURVE"
);
},
{
closed = 1;
nodes = (
"123 -113 OFFCURVE",
"135 -124 OFFCURVE",
"151 -124 CURVE SMOOTH",
"167 -124 OFFCURVE",
"179 -113 OFFCURVE",
"179 -94 CURVE SMOOTH",
"179 -75 OFFCURVE",
"167 -64 OFFCURVE",
"151 -64 CURVE SMOOTH",
"135 -64 OFFCURVE",
"123 -75 OFFCURVE",
"123 -94 CURVE SMOOTH"
);
}
);
width = 302;
}
);
note = Idotbelow;
unicode = 1ECA;
},
{
glyphname = Igrave;
layers = (
{
layerId = "3B510B5F-24E9-457B-9D94-D253B43C96E6";
name = Light;
paths = (
{
closed = 1;
nodes = (
"137 21 LINE",
"108 18 OFFCURVE",
"79 13 OFFCURVE",
"55 5 CURVE",
"55 0 LINE",
"247 0 LINE",
"247 5 LINE",
"223 13 OFFCURVE",
"194 18 OFFCURVE",
"165 22 CURVE",
"165 679 LINE",
"194 682 OFFCURVE",
"223 687 OFFCURVE",
"247 695 CURVE",
"247 700 LINE",
"55 700 LINE",
"55 695 LINE",
"79 687 OFFCURVE",
"108 682 OFFCURVE",
"137 678 CURVE"
);
},
{
closed = 1;
nodes = (
"217 787 LINE",
"224 797 LINE",
"117 884 LINE",
"110 891 OFFCURVE",
"101 896 OFFCURVE",
"91 896 CURVE SMOOTH",
"84 896 OFFCURVE",
"77 891 OFFCURVE",
"77 882 CURVE SMOOTH",
"77 874 OFFCURVE",
"82 865 OFFCURVE",
"93 859 CURVE SMOOTH"
);
}
);
width = 302;
}
);
note = Igrave;
unicode = 00CC;
},
{
glyphname = Ihookabove;
layers = (
{
layerId = "3B510B5F-24E9-457B-9D94-D253B43C96E6";
name = Light;
paths = (
{
closed = 1;
nodes = (
"137 21 LINE",
"108 18 OFFCURVE",
"79 13 OFFCURVE",
"55 5 CURVE",
"55 0 LINE",
"247 0 LINE",
"247 5 LINE",
"223 13 OFFCURVE",
"194 18 OFFCURVE",
"165 22 CURVE",
"165 679 LINE",
"194 682 OFFCURVE",
"223 687 OFFCURVE",
"247 695 CURVE",
"247 700 LINE",
"55 700 LINE",
"55 695 LINE",
"79 687 OFFCURVE",
"108 682 OFFCURVE",
"137 678 CURVE"
);
},
{
closed = 1;
nodes = (
"244 947 OFFCURVE",
"209 969 OFFCURVE",
"169 969 CURVE SMOOTH",
"142 969 OFFCURVE",
"117 961 OFFCURVE",
"101 953 CURVE",
"108 932 LINE",
"127 943 OFFCURVE",
"147 948 OFFCURVE",
"163 948 CURVE SMOOTH",
"200 948 OFFCURVE",
"218 930 OFFCURVE",
"218 905 CURVE SMOOTH",
"218 880 OFFCURVE",
"203 853 OFFCURVE",
"151 853 CURVE SMOOTH",
"140 853 LINE",
"145 777 LINE",
"161 777 LINE",
"172 836 LINE",
"222 841 OFFCURVE",
"244 868 OFFCURVE",
"244 903 CURVE SMOOTH"
);
}
);
width = 302;
}
);
note = Ihookabove;
unicode = 1EC8;
},
{
glyphname = Imacron;
layers = (
{
layerId = "3B510B5F-24E9-457B-9D94-D253B43C96E6";
name = Light;
paths = (
{
closed = 1;
nodes = (
"137 21 LINE",
"108 18 OFFCURVE",
"79 13 OFFCURVE",
"55 5 CURVE",
"55 0 LINE",
"247 0 LINE",
"247 5 LINE",
"223 13 OFFCURVE",
"194 18 OFFCURVE",
"165 22 CURVE",
"165 679 LINE",
"194 682 OFFCURVE",
"223 687 OFFCURVE",
"247 695 CURVE",
"247 700 LINE",
"55 700 LINE",
"55 695 LINE",
"79 687 OFFCURVE",
"108 682 OFFCURVE",
"137 678 CURVE"
);
},
{
closed = 1;
nodes = (
"15 785 LINE",
"291 785 LINE",
"291 807 LINE",
"15 807 LINE"
);
}
);
width = 302;
}
);
note = Imacron;
unicode = 012A;
},
{
glyphname = Iogonek;
layers = (
{
layerId = "3B510B5F-24E9-457B-9D94-D253B43C96E6";
name = Light;
paths = (
{
closed = 1;
nodes = (
"137 21 LINE",
"108 18 OFFCURVE",
"79 13 OFFCURVE",
"55 5 CURVE",
"55 0 LINE",
"247 0 LINE",
"247 5 LINE",
"223 13 OFFCURVE",
"194 18 OFFCURVE",
"165 22 CURVE",
"165 679 LINE",
"194 682 OFFCURVE",
"223 687 OFFCURVE",
"247 695 CURVE",
"247 700 LINE",
"55 700 LINE",
"55 695 LINE",
"79 687 OFFCURVE",
"108 682 OFFCURVE",
"137 678 CURVE"
);
},
{
closed = 1;
nodes = (
"191 0 LINE",
"147 -20 OFFCURVE",
"119 -54 OFFCURVE",
"119 -98 CURVE SMOOTH",
"119 -128 OFFCURVE",
"140 -168 OFFCURVE",
"192 -168 CURVE SMOOTH",
"211 -168 OFFCURVE",
"225 -165 OFFCURVE",
"247 -159 CURVE",
"247 -141 LINE",
"234 -145 OFFCURVE",
"219 -147 OFFCURVE",
"205 -147 CURVE SMOOTH",
"173 -147 OFFCURVE",
"144 -135 OFFCURVE",
"144 -97 CURVE SMOOTH",
"144 -57 OFFCURVE",
"175 -20 OFFCURVE",
"217 0 CURVE"
);
}
);
width = 302;
}
);
note = Iogonek;
unicode = 012E;
},
{
glyphname = Itilde;
layers = (
{
layerId = "3B510B5F-24E9-457B-9D94-D253B43C96E6";
name = Light;
paths = (
{
closed = 1;
nodes = (
"137 21 LINE",
"108 18 OFFCURVE",
"79 13 OFFCURVE",
"55 5 CURVE",
"55 0 LINE",
"247 0 LINE",
"247 5 LINE",
"223 13 OFFCURVE",
"194 18 OFFCURVE",
"165 22 CURVE",
"165 679 LINE",
"194 682 OFFCURVE",
"223 687 OFFCURVE",
"247 695 CURVE",
"247 700 LINE",
"55 700 LINE",
"55 695 LINE",
"79 687 OFFCURVE",
"108 682 OFFCURVE",
"137 678 CURVE"
);
},
{
closed = 1;
nodes = (
"255 788 OFFCURVE",
"281 822 OFFCURVE",
"290 878 CURVE",
"279 878 LINE",
"269 838 OFFCURVE",
"252 812 OFFCURVE",
"218 812 CURVE SMOOTH",
"177 812 OFFCURVE",
"129 871 OFFCURVE",
"86 871 CURVE SMOOTH",
"50 871 OFFCURVE",
"20 847 OFFCURVE",
"12 786 CURVE",
"23 786 LINE",
"33 824 OFFCURVE",
"53 848 OFFCURVE",
"84 848 CURVE SMOOTH",
"128 848 OFFCURVE",
"173 788 OFFCURVE",
"215 788 CURVE SMOOTH"
);
}
);
width = 302;
}
);
note = Itilde;
unicode = 0128;
},
{
glyphname = J;
layers = (
{
layerId = "3B510B5F-24E9-457B-9D94-D253B43C96E6";
name = Light;
paths = (
{
closed = 1;
nodes = (
"185 700 LINE",
"185 693 LINE",
"202 687 OFFCURVE",
"223 682 OFFCURVE",
"266 678 CURVE",
"266 131 LINE SMOOTH",
"266 46 OFFCURVE",
"215 16 OFFCURVE",
"142 16 CURVE SMOOTH",
"98 16 OFFCURVE",
"62 25 OFFCURVE",
"31 41 CURVE",
"24 31 LINE",
"56 6 OFFCURVE",
"93 -10 OFFCURVE",
"151 -10 CURVE SMOOTH",
"248 -10 OFFCURVE",
"294 44 OFFCURVE",
"294 125 CURVE SMOOTH",
"294 679 LINE",
"337 683 OFFCURVE",
"358 688 OFFCURVE",
"375 694 CURVE",
"375 700 LINE"
);
}
);
width = 425;
}
);
leftKerningGroup = J;
note = J;
rightKerningGroup = J;
unicode = 004A;
},
{
glyphname = Jcircumflex;
layers = (
{
layerId = "3B510B5F-24E9-457B-9D94-D253B43C96E6";
name = Light;
paths = (
{
closed = 1;
nodes = (
"185 700 LINE",
"185 693 LINE",
"202 687 OFFCURVE",
"223 682 OFFCURVE",
"266 678 CURVE",
"266 131 LINE SMOOTH",
"266 46 OFFCURVE",
"215 16 OFFCURVE",
"142 16 CURVE SMOOTH",
"98 16 OFFCURVE",
"62 25 OFFCURVE",
"31 41 CURVE",
"24 31 LINE",
"56 6 OFFCURVE",
"93 -10 OFFCURVE",
"151 -10 CURVE SMOOTH",
"248 -10 OFFCURVE",
"294 44 OFFCURVE",
"294 125 CURVE SMOOTH",
"294 679 LINE",
"337 683 OFFCURVE",
"358 688 OFFCURVE",
"375 694 CURVE",
"375 700 LINE"
);
},
{
closed = 1;
nodes = (
"283 866 LINE",
"312 831 OFFCURVE",
"347 801 OFFCURVE",
"381 777 CURVE",
"394 795 LINE",
"358 821 OFFCURVE",
"321 852 OFFCURVE",
"287 898 CURVE",
"273 898 LINE",
"239 852 OFFCURVE",
"202 821 OFFCURVE",
"166 795 CURVE",
"179 777 LINE",
"213 801 OFFCURVE",
"248 831 OFFCURVE",
"277 866 CURVE"
);
}
);
width = 425;
}
);
leftKerningGroup = J;
note = Jcircumflex;
rightKerningGroup = J;
unicode = 0134;
},
{
glyphname = K;
layers = (
{
layerId = "3B510B5F-24E9-457B-9D94-D253B43C96E6";
name = Light;
paths = (
{
closed = 1;
nodes = (
"654 0 LINE",
"654 5 LINE",
"628 13 OFFCURVE",
"596 18 OFFCURVE",
"574 21 CURVE",
"265 398 LINE",
"507 668 LINE SMOOTH",
"527 690 OFFCURVE",
"555 688 OFFCURVE",
"574 693 CURVE",
"574 700 LINE",
"404 700 LINE",
"404 693 LINE",
"419 689 OFFCURVE",
"449 686 OFFCURVE",
"466 682 CURVE",
"472 681 OFFCURVE",
"475 677 OFFCURVE",
"475 669 CURVE",
"160 315 LINE",
"160 679 LINE",
"189 682 OFFCURVE",
"218 687 OFFCURVE",
"242 695 CURVE",
"242 700 LINE",
"50 700 LINE",
"50 695 LINE",
"74 687 OFFCURVE",
"103 682 OFFCURVE",
"132 678 CURVE",
"132 21 LINE",
"103 18 OFFCURVE",
"74 13 OFFCURVE",
"50 5 CURVE",
"50 0 LINE",
"242 0 LINE",
"242 5 LINE",
"218 13 OFFCURVE",
"189 18 OFFCURVE",
"160 22 CURVE",
"160 280 LINE",
"247 378 LINE",
"556 0 LINE"
);
}
);
width = 667;
}
);
note = K;
rightKerningGroup = K;
unicode = 004B;
},
{
glyphname = Kcommaaccent;
layers = (
{
layerId = "3B510B5F-24E9-457B-9D94-D253B43C96E6";
name = Light;
paths = (
{
closed = 1;
nodes = (
"654 0 LINE",
"654 5 LINE",
"628 13 OFFCURVE",
"596 18 OFFCURVE",
"574 21 CURVE",
"265 398 LINE",
"507 668 LINE SMOOTH",
"527 690 OFFCURVE",
"555 688 OFFCURVE",
"574 693 CURVE",
"574 700 LINE",
"404 700 LINE",
"404 693 LINE",
"419 689 OFFCURVE",
"449 686 OFFCURVE",
"466 682 CURVE",
"472 681 OFFCURVE",
"475 677 OFFCURVE",
"475 669 CURVE",
"160 315 LINE",
"160 679 LINE",
"189 682 OFFCURVE",
"218 687 OFFCURVE",
"242 695 CURVE",
"242 700 LINE",
"50 700 LINE",
"50 695 LINE",
"74 687 OFFCURVE",
"103 682 OFFCURVE",
"132 678 CURVE",
"132 21 LINE",
"103 18 OFFCURVE",
"74 13 OFFCURVE",
"50 5 CURVE",
"50 0 LINE",
"242 0 LINE",
"242 5 LINE",
"218 13 OFFCURVE",
"189 18 OFFCURVE",
"160 22 CURVE",
"160 280 LINE",
"247 378 LINE",
"556 0 LINE"
);
},
{
closed = 1;
nodes = (
"358 -235 LINE",
"387 -206 OFFCURVE",
"403 -145 OFFCURVE",
"403 -111 CURVE SMOOTH",
"403 -78 OFFCURVE",
"392 -56 OFFCURVE",
"361 -56 CURVE SMOOTH",
"344 -56 OFFCURVE",
"328 -65 OFFCURVE",
"328 -88 CURVE SMOOTH",
"328 -104 OFFCURVE",
"339 -118 OFFCURVE",
"354 -118 CURVE SMOOTH",
"360 -118 OFFCURVE",
"369 -118 OFFCURVE",
"375 -114 CURVE",
"375 -124 LINE SMOOTH",
"375 -158 OFFCURVE",
"363 -196 OFFCURVE",
"343 -222 CURVE"
);
}
);
width = 667;
}
);
note = Kcommaaccent;
rightKerningGroup = K;
unicode = 0136;
},
{
glyphname = L;
layers = (
{
layerId = "3B510B5F-24E9-457B-9D94-D253B43C96E6";
name = Light;
paths = (
{
closed = 1;
nodes = (
"160 22 LINE",
"160 679 LINE",
"189 682 OFFCURVE",
"218 687 OFFCURVE",
"242 695 CURVE",
"242 700 LINE",
"50 700 LINE",
"50 695 LINE",
"74 687 OFFCURVE",
"103 682 OFFCURVE",
"132 678 CURVE",
"132 21 LINE",
"89 17 OFFCURVE",
"68 12 OFFCURVE",
"51 6 CURVE",
"51 0 LINE",
"487 0 LINE",
"497 114 LINE",
"488 114 LINE",
"480 96 OFFCURVE",
"465 45 OFFCURVE",
"463 22 CURVE"
);
}
);
width = 544;
}
);
note = L;
rightKerningGroup = L;
unicode = 004C;
},
{
glyphname = Lacute;
layers = (
{
layerId = "3B510B5F-24E9-457B-9D94-D253B43C96E6";
name = Light;
paths = (
{
closed = 1;
nodes = (
"160 22 LINE",
"160 679 LINE",
"189 682 OFFCURVE",
"218 687 OFFCURVE",
"242 695 CURVE",
"242 700 LINE",
"50 700 LINE",
"50 695 LINE",
"74 687 OFFCURVE",
"103 682 OFFCURVE",
"132 678 CURVE",
"132 21 LINE",
"89 17 OFFCURVE",
"68 12 OFFCURVE",
"51 6 CURVE",
"51 0 LINE",
"487 0 LINE",
"497 114 LINE",
"488 114 LINE",
"480 96 OFFCURVE",
"465 45 OFFCURVE",
"463 22 CURVE"
);
},
{
closed = 1;
nodes = (
"270 859 LINE SMOOTH",
"281 865 OFFCURVE",
"286 874 OFFCURVE",
"286 882 CURVE SMOOTH",
"286 891 OFFCURVE",
"279 896 OFFCURVE",
"272 896 CURVE SMOOTH",
"262 896 OFFCURVE",
"253 891 OFFCURVE",
"246 884 CURVE",
"139 797 LINE",
"146 787 LINE"
);
}
);
width = 544;
}
);
note = Lacute;
rightKerningGroup = L;
unicode = 0139;
},
{
glyphname = Lcaron;
layers = (
{
layerId = "3B510B5F-24E9-457B-9D94-D253B43C96E6";
name = Light;
paths = (
{
closed = 1;
nodes = (
"160 22 LINE",
"160 679 LINE",
"189 682 OFFCURVE",
"218 687 OFFCURVE",
"242 695 CURVE",
"242 700 LINE",
"50 700 LINE",
"50 695 LINE",
"74 687 OFFCURVE",
"103 682 OFFCURVE",
"132 678 CURVE",
"132 21 LINE",
"89 17 OFFCURVE",
"68 12 OFFCURVE",
"51 6 CURVE",
"51 0 LINE",
"487 0 LINE",
"497 114 LINE",
"488 114 LINE",
"480 96 OFFCURVE",
"465 45 OFFCURVE",
"463 22 CURVE"
);
},
{
closed = 1;
nodes = (
"388 531 LINE",
"417 560 OFFCURVE",
"433 621 OFFCURVE",
"433 655 CURVE SMOOTH",
"433 688 OFFCURVE",
"422 710 OFFCURVE",
"391 710 CURVE SMOOTH",
"374 710 OFFCURVE",
"358 701 OFFCURVE",
"358 678 CURVE SMOOTH",
"358 662 OFFCURVE",
"369 648 OFFCURVE",
"384 648 CURVE SMOOTH",
"390 648 OFFCURVE",
"399 648 OFFCURVE",
"405 652 CURVE",
"405 642 LINE SMOOTH",
"405 608 OFFCURVE",
"393 570 OFFCURVE",
"373 544 CURVE"
);
}
);
width = 544;
}
);
note = Lcaron;
rightKerningGroup = L;
unicode = 013D;
},
{
glyphname = Lcommaaccent;
layers = (
{
layerId = "3B510B5F-24E9-457B-9D94-D253B43C96E6";
name = Light;
paths = (
{
closed = 1;
nodes = (
"160 22 LINE",
"160 679 LINE",
"189 682 OFFCURVE",
"218 687 OFFCURVE",
"242 695 CURVE",
"242 700 LINE",
"50 700 LINE",
"50 695 LINE",
"74 687 OFFCURVE",
"103 682 OFFCURVE",
"132 678 CURVE",
"132 21 LINE",
"89 17 OFFCURVE",
"68 12 OFFCURVE",
"51 6 CURVE",
"51 0 LINE",
"487 0 LINE",
"497 114 LINE",
"488 114 LINE",
"480 96 OFFCURVE",
"465 45 OFFCURVE",
"463 22 CURVE"
);
},
{
closed = 1;
nodes = (
"291 -235 LINE",
"320 -206 OFFCURVE",
"336 -145 OFFCURVE",
"336 -111 CURVE SMOOTH",
"336 -78 OFFCURVE",
"325 -56 OFFCURVE",
"294 -56 CURVE SMOOTH",
"277 -56 OFFCURVE",
"261 -65 OFFCURVE",
"261 -88 CURVE SMOOTH",
"261 -104 OFFCURVE",
"272 -118 OFFCURVE",
"287 -118 CURVE SMOOTH",
"293 -118 OFFCURVE",
"302 -118 OFFCURVE",
"308 -114 CURVE",
"308 -124 LINE SMOOTH",
"308 -158 OFFCURVE",
"296 -196 OFFCURVE",
"276 -222 CURVE"
);
}
);
width = 544;
}
);
note = Lcommaaccent;
rightKerningGroup = L;
unicode = 013B;
},
{
glyphname = Ldot;
layers = (
{
layerId = "3B510B5F-24E9-457B-9D94-D253B43C96E6";
name = Light;
paths = (
{
closed = 1;
nodes = (
"160 22 LINE",
"160 679 LINE",
"189 682 OFFCURVE",
"218 687 OFFCURVE",
"242 695 CURVE",
"242 700 LINE",
"50 700 LINE",
"50 695 LINE",
"74 687 OFFCURVE",
"103 682 OFFCURVE",
"132 678 CURVE",
"132 21 LINE",
"89 17 OFFCURVE",
"68 12 OFFCURVE",
"51 6 CURVE",
"51 0 LINE",
"487 0 LINE",
"497 114 LINE",
"488 114 LINE",
"480 96 OFFCURVE",
"465 45 OFFCURVE",
"463 22 CURVE"
);
},
{
closed = 1;
nodes = (
"304 346 OFFCURVE",
"316 335 OFFCURVE",
"332 335 CURVE SMOOTH",
"348 335 OFFCURVE",
"360 346 OFFCURVE",
"360 365 CURVE SMOOTH",
"360 384 OFFCURVE",
"348 395 OFFCURVE",
"332 395 CURVE SMOOTH",
"316 395 OFFCURVE",
"304 384 OFFCURVE",
"304 365 CURVE SMOOTH"
);
}
);
width = 544;
}
);
note = Ldot;
rightKerningGroup = L;
unicode = 013F;
},
{
glyphname = Ldotbelowmacron;
layers = (
{
layerId = "3B510B5F-24E9-457B-9D94-D253B43C96E6";
name = Light;
paths = (
{
closed = 1;
nodes = (
"160 22 LINE",
"160 679 LINE",
"189 682 OFFCURVE",
"218 687 OFFCURVE",
"242 695 CURVE",
"242 700 LINE",
"50 700 LINE",
"50 695 LINE",
"74 687 OFFCURVE",
"103 682 OFFCURVE",
"132 678 CURVE",
"132 21 LINE",
"89 17 OFFCURVE",
"68 12 OFFCURVE",
"51 6 CURVE",
"51 0 LINE",
"487 0 LINE",
"497 114 LINE",
"488 114 LINE",
"480 96 OFFCURVE",
"465 45 OFFCURVE",
"463 22 CURVE"
);
},
{
closed = 1;
nodes = (
"9 785 LINE",
"285 785 LINE",
"285 807 LINE",
"9 807 LINE"
);
},
{
closed = 1;
nodes = (
"285 -102 OFFCURVE",
"297 -113 OFFCURVE",
"313 -113 CURVE SMOOTH",
"329 -113 OFFCURVE",
"341 -102 OFFCURVE",
"341 -83 CURVE SMOOTH",
"341 -64 OFFCURVE",
"329 -53 OFFCURVE",
"313 -53 CURVE SMOOTH",
"297 -53 OFFCURVE",
"285 -64 OFFCURVE",
"285 -83 CURVE SMOOTH"
);
}
);
width = 544;
}
);
note = Ldotbelowmacron;
rightKerningGroup = L;
unicode = 1E38;
},
{
glyphname = Llinebelow;
layers = (
{
layerId = "3B510B5F-24E9-457B-9D94-D253B43C96E6";
name = Light;
paths = (
{
closed = 1;
nodes = (
"160 22 LINE",
"160 679 LINE",
"189 682 OFFCURVE",
"218 687 OFFCURVE",
"242 695 CURVE",
"242 700 LINE",
"50 700 LINE",
"50 695 LINE",
"74 687 OFFCURVE",
"103 682 OFFCURVE",
"132 678 CURVE",
"132 21 LINE",
"89 17 OFFCURVE",
"68 12 OFFCURVE",
"51 6 CURVE",
"51 0 LINE",
"487 0 LINE",
"497 114 LINE",
"488 114 LINE",
"480 96 OFFCURVE",
"465 45 OFFCURVE",
"463 22 CURVE"
);
},
{
closed = 1;
nodes = (
"152 -98 LINE",
"428 -98 LINE",
"428 -76 LINE",
"152 -76 LINE"
);
}
);
width = 544;
}
);
note = Llinebelow;
rightKerningGroup = L;
unicode = 1E3A;
},
{
glyphname = Lslash;
layers = (
{
layerId = "3B510B5F-24E9-457B-9D94-D253B43C96E6";
name = Light;
paths = (
{
closed = 1;
nodes = (
"160 22 LINE",
"160 679 LINE",
"189 682 OFFCURVE",
"218 687 OFFCURVE",
"242 695 CURVE",
"242 700 LINE",
"50 700 LINE",
"50 695 LINE",
"74 687 OFFCURVE",
"103 682 OFFCURVE",
"132 678 CURVE",
"132 21 LINE",
"89 17 OFFCURVE",
"68 12 OFFCURVE",
"51 6 CURVE",
"51 0 LINE",
"487 0 LINE",
"497 114 LINE",
"488 114 LINE",
"480 96 OFFCURVE",
"465 45 OFFCURVE",
"463 22 CURVE"
);
},
{
closed = 1;
nodes = (
"381 388 LINE",
"381 415 LINE",
"36 290 LINE",
"36 263 LINE"
);
}
);
width = 544;
}
);
note = Lslash;
rightKerningGroup = L;
unicode = 0141;
},
{
glyphname = M;
layers = (
{
layerId = "3B510B5F-24E9-457B-9D94-D253B43C96E6";
name = Light;
paths = (
{
closed = 1;
nodes = (
"702 22 LINE",
"673 18 OFFCURVE",
"644 13 OFFCURVE",
"620 5 CURVE",
"620 0 LINE",
"812 0 LINE",
"812 5 LINE",
"788 13 OFFCURVE",
"759 18 OFFCURVE",
"730 21 CURVE",
"730 678 LINE",
"759 682 OFFCURVE",
"788 687 OFFCURVE",
"812 695 CURVE",
"812 700 LINE",
"685 700 LINE",
"430 119 LINE",
"181 700 LINE",
"50 700 LINE",
"50 695 LINE",
"74 687 OFFCURVE",
"103 682 OFFCURVE",
"132 678 CURVE",
"132 21 LINE",
"103 18 OFFCURVE",
"74 13 OFFCURVE",
"50 5 CURVE",
"50 0 LINE",
"242 0 LINE",
"242 5 LINE",
"218 13 OFFCURVE",
"189 18 OFFCURVE",
"160 22 CURVE",
"160 679 LINE",
"421 79 LINE",
"438 79 LINE",
"702 679 LINE"
);
}
);
width = 862;
}
);
note = M;
unicode = 004D;
},
{
glyphname = Mdotbelow;
layers = (
{
layerId = "3B510B5F-24E9-457B-9D94-D253B43C96E6";
name = Light;
paths = (
{
closed = 1;
nodes = (
"702 22 LINE",
"673 18 OFFCURVE",
"644 13 OFFCURVE",
"620 5 CURVE",
"620 0 LINE",
"812 0 LINE",
"812 5 LINE",
"788 13 OFFCURVE",
"759 18 OFFCURVE",
"730 21 CURVE",
"730 678 LINE",
"759 682 OFFCURVE",
"788 687 OFFCURVE",
"812 695 CURVE",
"812 700 LINE",
"685 700 LINE",
"430 119 LINE",
"181 700 LINE",
"50 700 LINE",
"50 695 LINE",
"74 687 OFFCURVE",
"103 682 OFFCURVE",
"132 678 CURVE",
"132 21 LINE",
"103 18 OFFCURVE",
"74 13 OFFCURVE",
"50 5 CURVE",
"50 0 LINE",
"242 0 LINE",
"242 5 LINE",
"218 13 OFFCURVE",
"189 18 OFFCURVE",
"160 22 CURVE",
"160 679 LINE",
"421 79 LINE",
"438 79 LINE",
"702 679 LINE"
);
},
{
closed = 1;
nodes = (
"402 -113 OFFCURVE",
"414 -124 OFFCURVE",
"430 -124 CURVE SMOOTH",
"446 -124 OFFCURVE",
"458 -113 OFFCURVE",
"458 -94 CURVE SMOOTH",
"458 -75 OFFCURVE",
"446 -64 OFFCURVE",
"430 -64 CURVE SMOOTH",
"414 -64 OFFCURVE",
"402 -75 OFFCURVE",
"402 -94 CURVE SMOOTH"
);
}
);
width = 862;
}
);
note = Mdotbelow;
unicode = 1E42;
},
{
glyphname = N;
layers = (
{
layerId = "3B510B5F-24E9-457B-9D94-D253B43C96E6";
name = Light;
paths = (
{
closed = 1;
nodes = (
"611 45 LINE",
"177 700 LINE",
"50 700 LINE",
"50 695 LINE",
"74 687 OFFCURVE",
"103 682 OFFCURVE",
"132 678 CURVE",
"132 21 LINE",
"103 18 OFFCURVE",
"74 13 OFFCURVE",
"50 5 CURVE",
"50 0 LINE",
"242 0 LINE",
"242 5 LINE",
"218 13 OFFCURVE",
"189 18 OFFCURVE",
"160 22 CURVE",
"160 679 LINE",
"612 0 LINE",
"639 0 LINE",
"639 678 LINE",
"668 682 OFFCURVE",
"697 687 OFFCURVE",
"721 695 CURVE",
"721 700 LINE",
"529 700 LINE",
"529 695 LINE",
"553 687 OFFCURVE",
"582 682 OFFCURVE",
"611 679 CURVE"
);
}
);
width = 771;
}
);
note = N;
unicode = 004E;
},
{
glyphname = Nacute;
layers = (
{
layerId = "3B510B5F-24E9-457B-9D94-D253B43C96E6";
name = Light;
paths = (
{
closed = 1;
nodes = (
"611 45 LINE",
"177 700 LINE",
"50 700 LINE",
"50 695 LINE",
"74 687 OFFCURVE",
"103 682 OFFCURVE",
"132 678 CURVE",
"132 21 LINE",
"103 18 OFFCURVE",
"74 13 OFFCURVE",
"50 5 CURVE",
"50 0 LINE",
"242 0 LINE",
"242 5 LINE",
"218 13 OFFCURVE",
"189 18 OFFCURVE",
"160 22 CURVE",
"160 679 LINE",
"612 0 LINE",
"639 0 LINE",
"639 678 LINE",
"668 682 OFFCURVE",
"697 687 OFFCURVE",
"721 695 CURVE",
"721 700 LINE",
"529 700 LINE",
"529 695 LINE",
"553 687 OFFCURVE",
"582 682 OFFCURVE",
"611 679 CURVE"
);
},
{
closed = 1;
nodes = (
"471 859 LINE SMOOTH",
"482 865 OFFCURVE",
"487 874 OFFCURVE",
"487 882 CURVE SMOOTH",
"487 891 OFFCURVE",
"480 896 OFFCURVE",
"473 896 CURVE SMOOTH",
"463 896 OFFCURVE",
"454 891 OFFCURVE",
"447 884 CURVE",
"340 797 LINE",
"347 787 LINE"
);
}
);
width = 771;
}
);
note = Nacute;
unicode = 0143;
},
{
glyphname = Ncaron;
layers = (
{
layerId = "3B510B5F-24E9-457B-9D94-D253B43C96E6";
name = Light;
paths = (
{
closed = 1;
nodes = (
"611 45 LINE",
"177 700 LINE",
"50 700 LINE",
"50 695 LINE",
"74 687 OFFCURVE",
"103 682 OFFCURVE",
"132 678 CURVE",
"132 21 LINE",
"103 18 OFFCURVE",
"74 13 OFFCURVE",
"50 5 CURVE",
"50 0 LINE",
"242 0 LINE",
"242 5 LINE",
"218 13 OFFCURVE",
"189 18 OFFCURVE",
"160 22 CURVE",
"160 679 LINE",
"612 0 LINE",
"639 0 LINE",
"639 678 LINE",
"668 682 OFFCURVE",
"697 687 OFFCURVE",
"721 695 CURVE",
"721 700 LINE",
"529 700 LINE",
"529 695 LINE",
"553 687 OFFCURVE",
"582 682 OFFCURVE",
"611 679 CURVE"
);
},
{
closed = 1;
nodes = (
"382 819 LINE",
"353 854 OFFCURVE",
"318 884 OFFCURVE",
"284 908 CURVE",
"271 890 LINE",
"307 864 OFFCURVE",
"344 833 OFFCURVE",
"378 787 CURVE",
"392 787 LINE",
"426 833 OFFCURVE",
"463 864 OFFCURVE",
"499 890 CURVE",
"486 908 LINE",
"452 884 OFFCURVE",
"417 854 OFFCURVE",
"388 819 CURVE"
);
}
);
width = 771;
}
);
note = Ncaron;
unicode = 0147;
},
{
glyphname = Ncommaaccent;
layers = (
{
layerId = "3B510B5F-24E9-457B-9D94-D253B43C96E6";
name = Light;
paths = (
{
closed = 1;
nodes = (
"611 45 LINE",
"177 700 LINE",
"50 700 LINE",
"50 695 LINE",
"74 687 OFFCURVE",
"103 682 OFFCURVE",
"132 678 CURVE",
"132 21 LINE",
"103 18 OFFCURVE",
"74 13 OFFCURVE",
"50 5 CURVE",
"50 0 LINE",
"242 0 LINE",
"242 5 LINE",
"218 13 OFFCURVE",
"189 18 OFFCURVE",
"160 22 CURVE",
"160 679 LINE",
"612 0 LINE",
"639 0 LINE",
"639 678 LINE",
"668 682 OFFCURVE",
"697 687 OFFCURVE",
"721 695 CURVE",
"721 700 LINE",
"529 700 LINE",
"529 695 LINE",
"553 687 OFFCURVE",
"582 682 OFFCURVE",
"611 679 CURVE"
);
},
{
closed = 1;
nodes = (
"374 -235 LINE",
"403 -206 OFFCURVE",
"419 -145 OFFCURVE",
"419 -111 CURVE SMOOTH",
"419 -78 OFFCURVE",
"408 -56 OFFCURVE",
"377 -56 CURVE SMOOTH",
"360 -56 OFFCURVE",
"344 -65 OFFCURVE",
"344 -88 CURVE SMOOTH",
"344 -104 OFFCURVE",
"355 -118 OFFCURVE",
"370 -118 CURVE SMOOTH",
"376 -118 OFFCURVE",
"385 -118 OFFCURVE",
"391 -114 CURVE",
"391 -124 LINE SMOOTH",
"391 -158 OFFCURVE",
"379 -196 OFFCURVE",
"359 -222 CURVE"
);
}
);
width = 771;
}
);
note = Ncommaaccent;
unicode = 0145;
},
{
glyphname = Ndotaccent;
layers = (
{
layerId = "3B510B5F-24E9-457B-9D94-D253B43C96E6";
name = Light;
paths = (
{
closed = 1;
nodes = (
"611 45 LINE",
"177 700 LINE",
"50 700 LINE",
"50 695 LINE",
"74 687 OFFCURVE",
"103 682 OFFCURVE",
"132 678 CURVE",
"132 21 LINE",
"103 18 OFFCURVE",
"74 13 OFFCURVE",
"50 5 CURVE",
"50 0 LINE",
"242 0 LINE",
"242 5 LINE",
"218 13 OFFCURVE",
"189 18 OFFCURVE",
"160 22 CURVE",
"160 679 LINE",
"612 0 LINE",
"639 0 LINE",
"639 678 LINE",
"668 682 OFFCURVE",
"697 687 OFFCURVE",
"721 695 CURVE",
"721 700 LINE",
"529 700 LINE",
"529 695 LINE",
"553 687 OFFCURVE",
"582 682 OFFCURVE",
"611 679 CURVE"
);
},
{
closed = 1;
nodes = (
"363 796 OFFCURVE",
"375 785 OFFCURVE",
"391 785 CURVE SMOOTH",
"407 785 OFFCURVE",
"419 796 OFFCURVE",
"419 815 CURVE SMOOTH",
"419 834 OFFCURVE",
"407 845 OFFCURVE",
"391 845 CURVE SMOOTH",
"375 845 OFFCURVE",
"363 834 OFFCURVE",
"363 815 CURVE SMOOTH"
);
}
);
width = 771;
}
);
note = Ndotaccent;
unicode = 1E44;
},
{
glyphname = Ndotbelow;
layers = (
{
layerId = "3B510B5F-24E9-457B-9D94-D253B43C96E6";
name = Light;
paths = (
{
closed = 1;
nodes = (
"611 45 LINE",
"177 700 LINE",
"50 700 LINE",
"50 695 LINE",
"74 687 OFFCURVE",
"103 682 OFFCURVE",
"132 678 CURVE",
"132 21 LINE",
"103 18 OFFCURVE",
"74 13 OFFCURVE",
"50 5 CURVE",
"50 0 LINE",
"242 0 LINE",
"242 5 LINE",
"218 13 OFFCURVE",
"189 18 OFFCURVE",
"160 22 CURVE",
"160 679 LINE",
"612 0 LINE",
"639 0 LINE",
"639 678 LINE",
"668 682 OFFCURVE",
"697 687 OFFCURVE",
"721 695 CURVE",
"721 700 LINE",
"529 700 LINE",
"529 695 LINE",
"553 687 OFFCURVE",
"582 682 OFFCURVE",
"611 679 CURVE"
);
},
{
closed = 1;
nodes = (
"361 -113 OFFCURVE",
"373 -124 OFFCURVE",
"389 -124 CURVE SMOOTH",
"405 -124 OFFCURVE",
"417 -113 OFFCURVE",
"417 -94 CURVE SMOOTH",
"417 -75 OFFCURVE",
"405 -64 OFFCURVE",
"389 -64 CURVE SMOOTH",
"373 -64 OFFCURVE",
"361 -75 OFFCURVE",
"361 -94 CURVE SMOOTH"
);
}
);
width = 771;
}
);
note = Ndotbelow;
unicode = 1E46;
},
{
glyphname = Eng;
layers = (
{
layerId = "3B510B5F-24E9-457B-9D94-D253B43C96E6";
name = Light;
paths = (
{
closed = 1;
nodes = (
"611 45 LINE",
"177 700 LINE",
"50 700 LINE",
"50 695 LINE",
"74 687 OFFCURVE",
"103 682 OFFCURVE",
"132 678 CURVE",
"132 21 LINE",
"103 18 OFFCURVE",
"74 13 OFFCURVE",
"50 5 CURVE",
"50 0 LINE",
"242 0 LINE",
"242 5 LINE",
"218 13 OFFCURVE",
"189 18 OFFCURVE",
"160 22 CURVE",
"160 679 LINE",
"611 1 LINE",
"611 -106 LINE SMOOTH",
"611 -191 OFFCURVE",
"560 -221 OFFCURVE",
"487 -221 CURVE SMOOTH",
"443 -221 OFFCURVE",
"407 -212 OFFCURVE",
"376 -196 CURVE",
"369 -206 LINE",
"401 -231 OFFCURVE",
"438 -247 OFFCURVE",
"496 -247 CURVE SMOOTH",
"593 -247 OFFCURVE",
"639 -193 OFFCURVE",
"639 -112 CURVE SMOOTH",
"639 678 LINE",
"668 682 OFFCURVE",
"697 687 OFFCURVE",
"721 695 CURVE",
"721 700 LINE",
"529 700 LINE",
"529 695 LINE",
"553 687 OFFCURVE",
"582 682 OFFCURVE",
"611 679 CURVE"
);
}
);
width = 771;
}
);
note = Eng;
unicode = 014A;
},
{
glyphname = Nlinebelow;
layers = (
{
layerId = "3B510B5F-24E9-457B-9D94-D253B43C96E6";
name = Light;
paths = (
{
closed = 1;
nodes = (
"611 45 LINE",
"177 700 LINE",
"50 700 LINE",
"50 695 LINE",
"74 687 OFFCURVE",
"103 682 OFFCURVE",
"132 678 CURVE",
"132 21 LINE",
"103 18 OFFCURVE",
"74 13 OFFCURVE",
"50 5 CURVE",
"50 0 LINE",
"242 0 LINE",
"242 5 LINE",
"218 13 OFFCURVE",
"189 18 OFFCURVE",
"160 22 CURVE",
"160 679 LINE",
"612 0 LINE",
"639 0 LINE",
"639 678 LINE",
"668 682 OFFCURVE",
"697 687 OFFCURVE",
"721 695 CURVE",
"721 700 LINE",
"529 700 LINE",
"529 695 LINE",
"553 687 OFFCURVE",
"582 682 OFFCURVE",
"611 679 CURVE"
);
},
{
closed = 1;
nodes = (
"251 -98 LINE",
"527 -98 LINE",
"527 -76 LINE",
"251 -76 LINE"
);
}
);
width = 771;
}
);
note = Nlinebelow;
unicode = 1E48;
},
{
glyphname = Ntilde;
layers = (
{
layerId = "3B510B5F-24E9-457B-9D94-D253B43C96E6";
name = Light;
paths = (
{
closed = 1;
nodes = (
"611 45 LINE",
"177 700 LINE",
"50 700 LINE",
"50 695 LINE",
"74 687 OFFCURVE",
"103 682 OFFCURVE",
"132 678 CURVE",
"132 21 LINE",
"103 18 OFFCURVE",
"74 13 OFFCURVE",
"50 5 CURVE",
"50 0 LINE",
"242 0 LINE",
"242 5 LINE",
"218 13 OFFCURVE",
"189 18 OFFCURVE",
"160 22 CURVE",
"160 679 LINE",
"612 0 LINE",
"639 0 LINE",
"639 678 LINE",
"668 682 OFFCURVE",
"697 687 OFFCURVE",
"721 695 CURVE",
"721 700 LINE",
"529 700 LINE",
"529 695 LINE",
"553 687 OFFCURVE",
"582 682 OFFCURVE",
"611 679 CURVE"
);
},
{
closed = 1;
nodes = (
"489 788 OFFCURVE",
"515 822 OFFCURVE",
"524 878 CURVE",
"513 878 LINE",
"503 838 OFFCURVE",
"486 812 OFFCURVE",
"452 812 CURVE SMOOTH",
"411 812 OFFCURVE",
"363 871 OFFCURVE",
"320 871 CURVE SMOOTH",
"284 871 OFFCURVE",
"254 847 OFFCURVE",
"246 786 CURVE",
"257 786 LINE",
"267 824 OFFCURVE",
"287 848 OFFCURVE",
"318 848 CURVE SMOOTH",
"362 848 OFFCURVE",
"407 788 OFFCURVE",
"449 788 CURVE SMOOTH"
);
}
);
width = 771;
}
);
note = Ntilde;
unicode = 00D1;
},
{
glyphname = O;
layers = (
{
layerId = "3B510B5F-24E9-457B-9D94-D253B43C96E6";
name = Light;
paths = (
{
closed = 1;
nodes = (
"67 545 OFFCURVE",
"152 688 OFFCURVE",
"332 688 CURVE SMOOTH",
"512 688 OFFCURVE",
"597 545 OFFCURVE",
"597 350 CURVE SMOOTH",
"597 155 OFFCURVE",
"512 12 OFFCURVE",
"332 12 CURVE SMOOTH",
"152 12 OFFCURVE",
"67 155 OFFCURVE",
"67 350 CURVE SMOOTH"
);
},
{
closed = 1;
nodes = (
"40 127 OFFCURVE",
"142 -10 OFFCURVE",
"332 -10 CURVE SMOOTH",
"522 -10 OFFCURVE",
"624 127 OFFCURVE",
"624 350 CURVE SMOOTH",
"624 573 OFFCURVE",
"522 710 OFFCURVE",
"332 710 CURVE SMOOTH",
"142 710 OFFCURVE",
"40 573 OFFCURVE",
"40 350 CURVE SMOOTH"
);
}
);
width = 664;
}
);
leftKerningGroup = O;
note = O;
rightKerningGroup = O;
unicode = 004F;
},
{
glyphname = Oacute;
layers = (
{
layerId = "3B510B5F-24E9-457B-9D94-D253B43C96E6";
name = Light;
paths = (
{
closed = 1;
nodes = (
"67 545 OFFCURVE",
"152 688 OFFCURVE",
"332 688 CURVE SMOOTH",
"512 688 OFFCURVE",
"597 545 OFFCURVE",
"597 350 CURVE SMOOTH",
"597 155 OFFCURVE",
"512 12 OFFCURVE",
"332 12 CURVE SMOOTH",
"152 12 OFFCURVE",
"67 155 OFFCURVE",
"67 350 CURVE SMOOTH"
);
},
{
closed = 1;
nodes = (
"40 127 OFFCURVE",
"142 -10 OFFCURVE",
"332 -10 CURVE SMOOTH",
"522 -10 OFFCURVE",
"624 127 OFFCURVE",
"624 350 CURVE SMOOTH",
"624 573 OFFCURVE",
"522 710 OFFCURVE",
"332 710 CURVE SMOOTH",
"142 710 OFFCURVE",
"40 573 OFFCURVE",
"40 350 CURVE SMOOTH"
);
},
{
closed = 1;
nodes = (
"389 859 LINE SMOOTH",
"400 865 OFFCURVE",
"405 874 OFFCURVE",
"405 882 CURVE SMOOTH",
"405 891 OFFCURVE",
"398 896 OFFCURVE",
"391 896 CURVE SMOOTH",
"381 896 OFFCURVE",
"372 891 OFFCURVE",
"365 884 CURVE",
"258 797 LINE",
"265 787 LINE"
);
}
);
width = 664;
}
);
leftKerningGroup = O;
note = Oacute;
rightKerningGroup = O;
unicode = 00D3;
},
{
glyphname = Obreve;
layers = (
{
layerId = "3B510B5F-24E9-457B-9D94-D253B43C96E6";
name = Light;
paths = (
{
closed = 1;
nodes = (
"67 545 OFFCURVE",
"152 688 OFFCURVE",
"332 688 CURVE SMOOTH",
"512 688 OFFCURVE",
"597 545 OFFCURVE",
"597 350 CURVE SMOOTH",
"597 155 OFFCURVE",
"512 12 OFFCURVE",
"332 12 CURVE SMOOTH",
"152 12 OFFCURVE",
"67 155 OFFCURVE",
"67 350 CURVE SMOOTH"
);
},
{
closed = 1;
nodes = (
"40 127 OFFCURVE",
"142 -10 OFFCURVE",
"332 -10 CURVE SMOOTH",
"522 -10 OFFCURVE",
"624 127 OFFCURVE",
"624 350 CURVE SMOOTH",
"624 573 OFFCURVE",
"522 710 OFFCURVE",
"332 710 CURVE SMOOTH",
"142 710 OFFCURVE",
"40 573 OFFCURVE",
"40 350 CURVE SMOOTH"
);
},
{
closed = 1;
nodes = (
"403 771 OFFCURVE",
"456 806 OFFCURVE",
"462 884 CURVE",
"436 884 LINE",
"427 805 OFFCURVE",
"373 793 OFFCURVE",
"332 793 CURVE SMOOTH",
"291 793 OFFCURVE",
"237 805 OFFCURVE",
"228 884 CURVE",
"202 884 LINE",
"208 806 OFFCURVE",
"261 771 OFFCURVE",
"332 771 CURVE SMOOTH"
);
}
);
width = 664;
}
);
leftKerningGroup = O;
note = Obreve;
rightKerningGroup = O;
unicode = 014E;
},
{
glyphname = Ocaron;
layers = (
{
layerId = "3B510B5F-24E9-457B-9D94-D253B43C96E6";
name = Light;
paths = (
{
closed = 1;
nodes = (
"67 545 OFFCURVE",
"152 688 OFFCURVE",
"332 688 CURVE SMOOTH",
"512 688 OFFCURVE",
"597 545 OFFCURVE",
"597 350 CURVE SMOOTH",
"597 155 OFFCURVE",
"512 12 OFFCURVE",
"332 12 CURVE SMOOTH",
"152 12 OFFCURVE",
"67 155 OFFCURVE",
"67 350 CURVE SMOOTH"
);
},
{
closed = 1;
nodes = (
"40 127 OFFCURVE",
"142 -10 OFFCURVE",
"332 -10 CURVE SMOOTH",
"522 -10 OFFCURVE",
"624 127 OFFCURVE",
"624 350 CURVE SMOOTH",
"624 573 OFFCURVE",
"522 710 OFFCURVE",
"332 710 CURVE SMOOTH",
"142 710 OFFCURVE",
"40 573 OFFCURVE",
"40 350 CURVE SMOOTH"
);
},
{
closed = 1;
nodes = (
"330 819 LINE",
"301 854 OFFCURVE",
"266 884 OFFCURVE",
"232 908 CURVE",
"219 890 LINE",
"255 864 OFFCURVE",
"292 833 OFFCURVE",
"326 787 CURVE",
"340 787 LINE",
"374 833 OFFCURVE",
"411 864 OFFCURVE",
"447 890 CURVE",
"434 908 LINE",
"400 884 OFFCURVE",
"365 854 OFFCURVE",
"336 819 CURVE"
);
}
);
width = 664;
}
);
leftKerningGroup = O;
note = Ocaron;
rightKerningGroup = O;
unicode = 01D1;
},
{
glyphname = Ocircumflex;
layers = (
{
layerId = "3B510B5F-24E9-457B-9D94-D253B43C96E6";
name = Light;
paths = (
{
closed = 1;
nodes = (
"67 545 OFFCURVE",
"152 688 OFFCURVE",
"332 688 CURVE SMOOTH",
"512 688 OFFCURVE",
"597 545 OFFCURVE",
"597 350 CURVE SMOOTH",
"597 155 OFFCURVE",
"512 12 OFFCURVE",
"332 12 CURVE SMOOTH",
"152 12 OFFCURVE",
"67 155 OFFCURVE",
"67 350 CURVE SMOOTH"
);
},
{
closed = 1;
nodes = (
"40 127 OFFCURVE",
"142 -10 OFFCURVE",
"332 -10 CURVE SMOOTH",
"522 -10 OFFCURVE",
"624 127 OFFCURVE",
"624 350 CURVE SMOOTH",
"624 573 OFFCURVE",
"522 710 OFFCURVE",
"332 710 CURVE SMOOTH",
"142 710 OFFCURVE",
"40 573 OFFCURVE",
"40 350 CURVE SMOOTH"
);
},
{
closed = 1;
nodes = (
"335 866 LINE",
"364 831 OFFCURVE",
"399 801 OFFCURVE",
"433 777 CURVE",
"446 795 LINE",
"410 821 OFFCURVE",
"373 852 OFFCURVE",
"339 898 CURVE",
"325 898 LINE",
"291 852 OFFCURVE",
"254 821 OFFCURVE",
"218 795 CURVE",
"231 777 LINE",
"265 801 OFFCURVE",
"300 831 OFFCURVE",
"329 866 CURVE"
);
}
);
width = 664;
}
);
leftKerningGroup = O;
note = Ocircumflex;
rightKerningGroup = O;
unicode = 00D4;
},
{
glyphname = Ocircumflexacute;
layers = (
{
layerId = "3B510B5F-24E9-457B-9D94-D253B43C96E6";
name = Light;
paths = (
{
closed = 1;
nodes = (
"67 545 OFFCURVE",
"152 688 OFFCURVE",
"332 688 CURVE SMOOTH",
"512 688 OFFCURVE",
"597 545 OFFCURVE",
"597 350 CURVE SMOOTH",
"597 155 OFFCURVE",
"512 12 OFFCURVE",
"332 12 CURVE SMOOTH",
"152 12 OFFCURVE",
"67 155 OFFCURVE",
"67 350 CURVE SMOOTH"
);
},
{
closed = 1;
nodes = (
"40 127 OFFCURVE",
"142 -10 OFFCURVE",
"332 -10 CURVE SMOOTH",
"522 -10 OFFCURVE",
"624 127 OFFCURVE",
"624 350 CURVE SMOOTH",
"624 573 OFFCURVE",
"522 710 OFFCURVE",
"332 710 CURVE SMOOTH",
"142 710 OFFCURVE",
"40 573 OFFCURVE",
"40 350 CURVE SMOOTH"
);
},
{
closed = 1;
nodes = (
"446 795 LINE",
"410 821 OFFCURVE",
"373 852 OFFCURVE",
"339 898 CURVE",
"325 898 LINE",
"291 852 OFFCURVE",
"254 821 OFFCURVE",
"218 795 CURVE",
"231 777 LINE",
"265 801 OFFCURVE",
"300 831 OFFCURVE",
"329 866 CURVE",
"335 866 LINE",
"364 831 OFFCURVE",
"399 801 OFFCURVE",
"433 777 CURVE"
);
},
{
closed = 1;
nodes = (
"552 951 LINE SMOOTH",
"563 957 OFFCURVE",
"568 966 OFFCURVE",
"568 974 CURVE SMOOTH",
"568 983 OFFCURVE",
"561 988 OFFCURVE",
"554 988 CURVE SMOOTH",
"544 988 OFFCURVE",
"535 983 OFFCURVE",
"528 976 CURVE",
"421 889 LINE",
"428 879 LINE"
);
}
);
width = 664;
}
);
leftKerningGroup = O;
note = Ocircumflexacute;
rightKerningGroup = O;
unicode = 1ED0;
},
{
glyphname = Ocircumflexdotbelow;
layers = (
{
layerId = "3B510B5F-24E9-457B-9D94-D253B43C96E6";
name = Light;
paths = (
{
closed = 1;
nodes = (
"67 545 OFFCURVE",
"152 688 OFFCURVE",
"332 688 CURVE SMOOTH",
"512 688 OFFCURVE",
"597 545 OFFCURVE",
"597 350 CURVE SMOOTH",
"597 155 OFFCURVE",
"512 12 OFFCURVE",
"332 12 CURVE SMOOTH",
"152 12 OFFCURVE",
"67 155 OFFCURVE",
"67 350 CURVE SMOOTH"
);
},
{
closed = 1;
nodes = (
"40 127 OFFCURVE",
"142 -10 OFFCURVE",
"332 -10 CURVE SMOOTH",
"522 -10 OFFCURVE",
"624 127 OFFCURVE",
"624 350 CURVE SMOOTH",
"624 573 OFFCURVE",
"522 710 OFFCURVE",
"332 710 CURVE SMOOTH",
"142 710 OFFCURVE",
"40 573 OFFCURVE",
"40 350 CURVE SMOOTH"
);
},
{
closed = 1;
nodes = (
"335 866 LINE",
"364 831 OFFCURVE",
"399 801 OFFCURVE",
"433 777 CURVE",
"446 795 LINE",
"410 821 OFFCURVE",
"373 852 OFFCURVE",
"339 898 CURVE",
"325 898 LINE",
"291 852 OFFCURVE",
"254 821 OFFCURVE",
"218 795 CURVE",
"231 777 LINE",
"265 801 OFFCURVE",
"300 831 OFFCURVE",
"329 866 CURVE"
);
},
{
closed = 1;
nodes = (
"304 -113 OFFCURVE",
"316 -124 OFFCURVE",
"332 -124 CURVE SMOOTH",
"348 -124 OFFCURVE",
"360 -113 OFFCURVE",
"360 -94 CURVE SMOOTH",
"360 -75 OFFCURVE",
"348 -64 OFFCURVE",
"332 -64 CURVE SMOOTH",
"316 -64 OFFCURVE",
"304 -75 OFFCURVE",
"304 -94 CURVE SMOOTH"
);
}
);
width = 664;
}
);
leftKerningGroup = O;
note = Ocircumflexdotbelow;
rightKerningGroup = O;
unicode = 1ED8;
},
{
glyphname = Ocircumflexgrave;
layers = (
{
layerId = "3B510B5F-24E9-457B-9D94-D253B43C96E6";
name = Light;
paths = (
{
closed = 1;
nodes = (
"67 545 OFFCURVE",
"152 688 OFFCURVE",
"332 688 CURVE SMOOTH",
"512 688 OFFCURVE",
"597 545 OFFCURVE",
"597 350 CURVE SMOOTH",
"597 155 OFFCURVE",
"512 12 OFFCURVE",
"332 12 CURVE SMOOTH",
"152 12 OFFCURVE",
"67 155 OFFCURVE",
"67 350 CURVE SMOOTH"
);
},
{
closed = 1;
nodes = (
"40 127 OFFCURVE",
"142 -10 OFFCURVE",
"332 -10 CURVE SMOOTH",
"522 -10 OFFCURVE",
"624 127 OFFCURVE",
"624 350 CURVE SMOOTH",
"624 573 OFFCURVE",
"522 710 OFFCURVE",
"332 710 CURVE SMOOTH",
"142 710 OFFCURVE",
"40 573 OFFCURVE",
"40 350 CURVE SMOOTH"
);
},
{
closed = 1;
nodes = (
"446 795 LINE",
"410 821 OFFCURVE",
"373 852 OFFCURVE",
"339 898 CURVE",
"325 898 LINE",
"291 852 OFFCURVE",
"254 821 OFFCURVE",
"218 795 CURVE",
"231 777 LINE",
"265 801 OFFCURVE",
"300 831 OFFCURVE",
"329 866 CURVE",
"335 866 LINE",
"364 831 OFFCURVE",
"399 801 OFFCURVE",
"433 777 CURVE"
);
},
{
closed = 1;
nodes = (
"248 879 LINE",
"255 889 LINE",
"148 976 LINE",
"141 983 OFFCURVE",
"132 988 OFFCURVE",
"122 988 CURVE SMOOTH",
"115 988 OFFCURVE",
"108 983 OFFCURVE",
"108 974 CURVE SMOOTH",
"108 966 OFFCURVE",
"113 957 OFFCURVE",
"124 951 CURVE SMOOTH"
);
}
);
width = 664;
}
);
leftKerningGroup = O;
note = Ocircumflexgrave;
rightKerningGroup = O;
unicode = 1ED2;
},
{
glyphname = Ocircumflexhookabove;
layers = (
{
layerId = "3B510B5F-24E9-457B-9D94-D253B43C96E6";
name = Light;
paths = (
{
closed = 1;
nodes = (
"67 545 OFFCURVE",
"152 688 OFFCURVE",
"332 688 CURVE SMOOTH",
"512 688 OFFCURVE",
"597 545 OFFCURVE",
"597 350 CURVE SMOOTH",
"597 155 OFFCURVE",
"512 12 OFFCURVE",
"332 12 CURVE SMOOTH",
"152 12 OFFCURVE",
"67 155 OFFCURVE",
"67 350 CURVE SMOOTH"
);
},
{
closed = 1;
nodes = (
"40 127 OFFCURVE",
"142 -10 OFFCURVE",
"332 -10 CURVE SMOOTH",
"522 -10 OFFCURVE",
"624 127 OFFCURVE",
"624 350 CURVE SMOOTH",
"624 573 OFFCURVE",
"522 710 OFFCURVE",
"332 710 CURVE SMOOTH",
"142 710 OFFCURVE",
"40 573 OFFCURVE",
"40 350 CURVE SMOOTH"
);
},
{
closed = 1;
nodes = (
"446 803 LINE",
"410 829 OFFCURVE",
"373 860 OFFCURVE",
"339 906 CURVE",
"325 906 LINE",
"291 860 OFFCURVE",
"254 829 OFFCURVE",
"218 803 CURVE",
"231 785 LINE",
"265 809 OFFCURVE",
"300 839 OFFCURVE",
"329 874 CURVE",
"335 874 LINE",
"364 839 OFFCURVE",
"399 809 OFFCURVE",
"433 785 CURVE"
);
},
{
closed = 1;
nodes = (
"439 863 LINE",
"448 911 LINE",
"490 916 OFFCURVE",
"509 934 OFFCURVE",
"509 967 CURVE SMOOTH",
"509 1006 OFFCURVE",
"478 1021 OFFCURVE",
"446 1021 CURVE SMOOTH",
"425 1021 OFFCURVE",
"404 1015 OFFCURVE",
"391 1008 CURVE",
"396 991 LINE",
"412 1000 OFFCURVE",
"427 1003 OFFCURVE",
"440 1003 CURVE SMOOTH",
"471 1003 OFFCURVE",
"485 989 OFFCURVE",
"485 968 CURVE SMOOTH",
"485 947 OFFCURVE",
"472 926 OFFCURVE",
"428 926 CURVE SMOOTH",
"419 926 LINE",
"424 863 LINE"
);
}
);
width = 664;
}
);
leftKerningGroup = O;
note = Ocircumflexhookabove;
rightKerningGroup = O;
unicode = 1ED4;
},
{
glyphname = Ocircumflextilde;
layers = (
{
layerId = "3B510B5F-24E9-457B-9D94-D253B43C96E6";
name = Light;
paths = (
{
closed = 1;
nodes = (
"67 545 OFFCURVE",
"152 688 OFFCURVE",
"332 688 CURVE SMOOTH",
"512 688 OFFCURVE",
"597 545 OFFCURVE",
"597 350 CURVE SMOOTH",
"597 155 OFFCURVE",
"512 12 OFFCURVE",
"332 12 CURVE SMOOTH",
"152 12 OFFCURVE",
"67 155 OFFCURVE",
"67 350 CURVE SMOOTH"
);
},
{
closed = 1;
nodes = (
"40 127 OFFCURVE",
"142 -10 OFFCURVE",
"332 -10 CURVE SMOOTH",
"522 -10 OFFCURVE",
"624 127 OFFCURVE",
"624 350 CURVE SMOOTH",
"624 573 OFFCURVE",
"522 710 OFFCURVE",
"332 710 CURVE SMOOTH",
"142 710 OFFCURVE",
"40 573 OFFCURVE",
"40 350 CURVE SMOOTH"
);
},
{
closed = 1;
nodes = (
"446 795 LINE",
"410 821 OFFCURVE",
"373 852 OFFCURVE",
"339 898 CURVE",
"325 898 LINE",
"291 852 OFFCURVE",
"254 821 OFFCURVE",
"218 795 CURVE",
"231 777 LINE",
"265 801 OFFCURVE",
"300 831 OFFCURVE",
"329 866 CURVE",
"335 866 LINE",
"364 831 OFFCURVE",
"399 801 OFFCURVE",
"433 777 CURVE"
);
},
{
closed = 1;
nodes = (
"464 1024 LINE",
"454 984 OFFCURVE",
"437 958 OFFCURVE",
"403 958 CURVE SMOOTH",
"362 958 OFFCURVE",
"314 1017 OFFCURVE",
"271 1017 CURVE SMOOTH",
"235 1017 OFFCURVE",
"205 993 OFFCURVE",
"197 932 CURVE",
"208 932 LINE",
"218 970 OFFCURVE",
"238 994 OFFCURVE",
"269 994 CURVE SMOOTH",
"313 994 OFFCURVE",
"358 934 OFFCURVE",
"400 934 CURVE SMOOTH",
"440 934 OFFCURVE",
"466 968 OFFCURVE",
"475 1024 CURVE"
);
}
);
width = 664;
}
);
leftKerningGroup = O;
note = Ocircumflextilde;
rightKerningGroup = O;
unicode = 1ED6;
},
{
glyphname = Odieresis;
layers = (
{
layerId = "3B510B5F-24E9-457B-9D94-D253B43C96E6";
name = Light;
paths = (
{
closed = 1;
nodes = (
"67 545 OFFCURVE",
"152 688 OFFCURVE",
"332 688 CURVE SMOOTH",
"512 688 OFFCURVE",
"597 545 OFFCURVE",
"597 350 CURVE SMOOTH",
"597 155 OFFCURVE",
"512 12 OFFCURVE",
"332 12 CURVE SMOOTH",
"152 12 OFFCURVE",
"67 155 OFFCURVE",
"67 350 CURVE SMOOTH"
);
},
{
closed = 1;
nodes = (
"40 127 OFFCURVE",
"142 -10 OFFCURVE",
"332 -10 CURVE SMOOTH",
"522 -10 OFFCURVE",
"624 127 OFFCURVE",
"624 350 CURVE SMOOTH",
"624 573 OFFCURVE",
"522 710 OFFCURVE",
"332 710 CURVE SMOOTH",
"142 710 OFFCURVE",
"40 573 OFFCURVE",
"40 350 CURVE SMOOTH"
);
},
{
closed = 1;
nodes = (
"204 796 OFFCURVE",
"216 785 OFFCURVE",
"232 785 CURVE SMOOTH",
"248 785 OFFCURVE",
"260 796 OFFCURVE",
"260 815 CURVE SMOOTH",
"260 834 OFFCURVE",
"248 845 OFFCURVE",
"232 845 CURVE SMOOTH",
"216 845 OFFCURVE",
"204 834 OFFCURVE",
"204 815 CURVE SMOOTH"
);
},
{
closed = 1;
nodes = (
"404 796 OFFCURVE",
"416 785 OFFCURVE",
"432 785 CURVE SMOOTH",
"448 785 OFFCURVE",
"460 796 OFFCURVE",
"460 815 CURVE SMOOTH",
"460 834 OFFCURVE",
"448 845 OFFCURVE",
"432 845 CURVE SMOOTH",
"416 845 OFFCURVE",
"404 834 OFFCURVE",
"404 815 CURVE SMOOTH"
);
}
);
width = 664;
}
);
leftKerningGroup = O;
note = Odieresis;
rightKerningGroup = O;
unicode = 00D6;
},
{
glyphname = Odotbelow;
layers = (
{
layerId = "3B510B5F-24E9-457B-9D94-D253B43C96E6";
name = Light;
paths = (
{
closed = 1;
nodes = (
"67 545 OFFCURVE",
"152 688 OFFCURVE",
"332 688 CURVE SMOOTH",
"512 688 OFFCURVE",
"597 545 OFFCURVE",
"597 350 CURVE SMOOTH",
"597 155 OFFCURVE",
"512 12 OFFCURVE",
"332 12 CURVE SMOOTH",
"152 12 OFFCURVE",
"67 155 OFFCURVE",
"67 350 CURVE SMOOTH"
);
},
{
closed = 1;
nodes = (
"40 127 OFFCURVE",
"142 -10 OFFCURVE",
"332 -10 CURVE SMOOTH",
"522 -10 OFFCURVE",
"624 127 OFFCURVE",
"624 350 CURVE SMOOTH",
"624 573 OFFCURVE",
"522 710 OFFCURVE",
"332 710 CURVE SMOOTH",
"142 710 OFFCURVE",
"40 573 OFFCURVE",
"40 350 CURVE SMOOTH"
);
},
{
closed = 1;
nodes = (
"304 -113 OFFCURVE",
"316 -124 OFFCURVE",
"332 -124 CURVE SMOOTH",
"348 -124 OFFCURVE",
"360 -113 OFFCURVE",
"360 -94 CURVE SMOOTH",
"360 -75 OFFCURVE",
"348 -64 OFFCURVE",
"332 -64 CURVE SMOOTH",
"316 -64 OFFCURVE",
"304 -75 OFFCURVE",
"304 -94 CURVE SMOOTH"
);
}
);
width = 664;
}
);
leftKerningGroup = O;
note = Odotbelow;
rightKerningGroup = O;
unicode = 1ECC;
},
{
glyphname = Ograve;
layers = (
{
layerId = "3B510B5F-24E9-457B-9D94-D253B43C96E6";
name = Light;
paths = (
{
closed = 1;
nodes = (
"67 545 OFFCURVE",
"152 688 OFFCURVE",
"332 688 CURVE SMOOTH",
"512 688 OFFCURVE",
"597 545 OFFCURVE",
"597 350 CURVE SMOOTH",
"597 155 OFFCURVE",
"512 12 OFFCURVE",
"332 12 CURVE SMOOTH",
"152 12 OFFCURVE",
"67 155 OFFCURVE",
"67 350 CURVE SMOOTH"
);
},
{
closed = 1;
nodes = (
"40 127 OFFCURVE",
"142 -10 OFFCURVE",
"332 -10 CURVE SMOOTH",
"522 -10 OFFCURVE",
"624 127 OFFCURVE",
"624 350 CURVE SMOOTH",
"624 573 OFFCURVE",
"522 710 OFFCURVE",
"332 710 CURVE SMOOTH",
"142 710 OFFCURVE",
"40 573 OFFCURVE",
"40 350 CURVE SMOOTH"
);
},
{
closed = 1;
nodes = (
"398 787 LINE",
"405 797 LINE",
"298 884 LINE",
"291 891 OFFCURVE",
"282 896 OFFCURVE",
"272 896 CURVE SMOOTH",
"265 896 OFFCURVE",
"258 891 OFFCURVE",
"258 882 CURVE SMOOTH",
"258 874 OFFCURVE",
"263 865 OFFCURVE",
"274 859 CURVE SMOOTH"
);
}
);
width = 664;
}
);
leftKerningGroup = O;
note = Ograve;
rightKerningGroup = O;
unicode = 00D2;
},
{
glyphname = Ohookabove;
layers = (
{
layerId = "3B510B5F-24E9-457B-9D94-D253B43C96E6";
name = Light;
paths = (
{
closed = 1;
nodes = (
"67 545 OFFCURVE",
"152 688 OFFCURVE",
"332 688 CURVE SMOOTH",
"512 688 OFFCURVE",
"597 545 OFFCURVE",
"597 350 CURVE SMOOTH",
"597 155 OFFCURVE",
"512 12 OFFCURVE",
"332 12 CURVE SMOOTH",
"152 12 OFFCURVE",
"67 155 OFFCURVE",
"67 350 CURVE SMOOTH"
);
},
{
closed = 1;
nodes = (
"40 127 OFFCURVE",
"142 -10 OFFCURVE",
"332 -10 CURVE SMOOTH",
"522 -10 OFFCURVE",
"624 127 OFFCURVE",
"624 350 CURVE SMOOTH",
"624 573 OFFCURVE",
"522 710 OFFCURVE",
"332 710 CURVE SMOOTH",
"142 710 OFFCURVE",
"40 573 OFFCURVE",
"40 350 CURVE SMOOTH"
);
},
{
closed = 1;
nodes = (
"416 947 OFFCURVE",
"381 969 OFFCURVE",
"341 969 CURVE SMOOTH",
"314 969 OFFCURVE",
"289 961 OFFCURVE",
"273 953 CURVE",
"280 932 LINE",
"299 943 OFFCURVE",
"319 948 OFFCURVE",
"335 948 CURVE SMOOTH",
"372 948 OFFCURVE",
"390 930 OFFCURVE",
"390 905 CURVE SMOOTH",
"390 880 OFFCURVE",
"375 853 OFFCURVE",
"323 853 CURVE SMOOTH",
"312 853 LINE",
"317 777 LINE",
"333 777 LINE",
"344 836 LINE",
"394 841 OFFCURVE",
"416 868 OFFCURVE",
"416 903 CURVE SMOOTH"
);
}
);
width = 664;
}
);
leftKerningGroup = O;
note = Ohookabove;
rightKerningGroup = O;
unicode = 1ECE;
},
{
glyphname = Ohorn;
layers = (
{
layerId = "3B510B5F-24E9-457B-9D94-D253B43C96E6";
name = Light;
paths = (
{
closed = 1;
nodes = (
"67 545 OFFCURVE",
"152 688 OFFCURVE",
"332 688 CURVE SMOOTH",
"512 688 OFFCURVE",
"597 545 OFFCURVE",
"597 350 CURVE SMOOTH",
"597 155 OFFCURVE",
"512 12 OFFCURVE",
"332 12 CURVE SMOOTH",
"152 12 OFFCURVE",
"67 155 OFFCURVE",
"67 350 CURVE SMOOTH"
);
},
{
closed = 1;
nodes = (
"40 127 OFFCURVE",
"142 -10 OFFCURVE",
"332 -10 CURVE SMOOTH",
"522 -10 OFFCURVE",
"624 127 OFFCURVE",
"624 350 CURVE SMOOTH",
"624 573 OFFCURVE",
"522 710 OFFCURVE",
"332 710 CURVE SMOOTH",
"142 710 OFFCURVE",
"40 573 OFFCURVE",
"40 350 CURVE SMOOTH"
);
},
{
closed = 1;
nodes = (
"585 550 LINE",
"633 583 OFFCURVE",
"654 637 OFFCURVE",
"654 675 CURVE SMOOTH",
"654 709 OFFCURVE",
"641 731 OFFCURVE",
"610 731 CURVE SMOOTH",
"590 731 OFFCURVE",
"576 718 OFFCURVE",
"576 697 CURVE SMOOTH",
"576 676 OFFCURVE",
"590 665 OFFCURVE",
"607 665 CURVE SMOOTH",
"614 665 OFFCURVE",
"623 667 OFFCURVE",
"629 672 CURVE",
"629 627 OFFCURVE",
"605 590 OFFCURVE",
"573 567 CURVE"
);
}
);
width = 664;
}
);
leftKerningGroup = O;
note = Ohorn;
rightKerningGroup = O;
unicode = 01A0;
},
{
glyphname = Ohornacute;
layers = (
{
layerId = "3B510B5F-24E9-457B-9D94-D253B43C96E6";
name = Light;
paths = (
{
closed = 1;
nodes = (
"67 545 OFFCURVE",
"152 688 OFFCURVE",
"332 688 CURVE SMOOTH",
"512 688 OFFCURVE",
"597 545 OFFCURVE",
"597 350 CURVE SMOOTH",
"597 155 OFFCURVE",
"512 12 OFFCURVE",
"332 12 CURVE SMOOTH",
"152 12 OFFCURVE",
"67 155 OFFCURVE",
"67 350 CURVE SMOOTH"
);
},
{
closed = 1;
nodes = (
"40 127 OFFCURVE",
"142 -10 OFFCURVE",
"332 -10 CURVE SMOOTH",
"522 -10 OFFCURVE",
"624 127 OFFCURVE",
"624 350 CURVE SMOOTH",
"624 573 OFFCURVE",
"522 710 OFFCURVE",
"332 710 CURVE SMOOTH",
"142 710 OFFCURVE",
"40 573 OFFCURVE",
"40 350 CURVE SMOOTH"
);
},
{
closed = 1;
nodes = (
"585 550 LINE",
"633 583 OFFCURVE",
"654 637 OFFCURVE",
"654 675 CURVE SMOOTH",
"654 709 OFFCURVE",
"641 731 OFFCURVE",
"610 731 CURVE SMOOTH",
"590 731 OFFCURVE",
"576 718 OFFCURVE",
"576 697 CURVE SMOOTH",
"576 676 OFFCURVE",
"590 665 OFFCURVE",
"607 665 CURVE SMOOTH",
"614 665 OFFCURVE",
"623 667 OFFCURVE",
"629 672 CURVE",
"629 627 OFFCURVE",
"605 590 OFFCURVE",
"573 567 CURVE"
);
},
{
closed = 1;
nodes = (
"390 858 LINE SMOOTH",
"401 864 OFFCURVE",
"406 873 OFFCURVE",
"406 881 CURVE SMOOTH",
"406 890 OFFCURVE",
"399 895 OFFCURVE",
"392 895 CURVE SMOOTH",
"382 895 OFFCURVE",
"373 890 OFFCURVE",
"366 883 CURVE",
"259 796 LINE",
"266 786 LINE"
);
}
);
width = 664;
}
);
leftKerningGroup = O;
note = Ohornacute;
rightKerningGroup = O;
unicode = 1EDA;
},
{
glyphname = Ohorndotbelow;
layers = (
{
layerId = "3B510B5F-24E9-457B-9D94-D253B43C96E6";
name = Light;
paths = (
{
closed = 1;
nodes = (
"67 545 OFFCURVE",
"152 688 OFFCURVE",
"332 688 CURVE SMOOTH",
"512 688 OFFCURVE",
"597 545 OFFCURVE",
"597 350 CURVE SMOOTH",
"597 155 OFFCURVE",
"512 12 OFFCURVE",
"332 12 CURVE SMOOTH",
"152 12 OFFCURVE",
"67 155 OFFCURVE",
"67 350 CURVE SMOOTH"
);
},
{
closed = 1;
nodes = (
"40 127 OFFCURVE",
"142 -10 OFFCURVE",
"332 -10 CURVE SMOOTH",
"522 -10 OFFCURVE",
"624 127 OFFCURVE",
"624 350 CURVE SMOOTH",
"624 573 OFFCURVE",
"522 710 OFFCURVE",
"332 710 CURVE SMOOTH",
"142 710 OFFCURVE",
"40 573 OFFCURVE",
"40 350 CURVE SMOOTH"
);
},
{
closed = 1;
nodes = (
"585 550 LINE",
"633 583 OFFCURVE",
"654 637 OFFCURVE",
"654 675 CURVE SMOOTH",
"654 709 OFFCURVE",
"641 731 OFFCURVE",
"610 731 CURVE SMOOTH",
"590 731 OFFCURVE",
"576 718 OFFCURVE",
"576 697 CURVE SMOOTH",
"576 676 OFFCURVE",
"590 665 OFFCURVE",
"607 665 CURVE SMOOTH",
"614 665 OFFCURVE",
"623 667 OFFCURVE",
"629 672 CURVE",
"629 627 OFFCURVE",
"605 590 OFFCURVE",
"573 567 CURVE"
);
},
{
closed = 1;
nodes = (
"304 -113 OFFCURVE",
"316 -124 OFFCURVE",
"332 -124 CURVE SMOOTH",
"348 -124 OFFCURVE",
"360 -113 OFFCURVE",
"360 -94 CURVE SMOOTH",
"360 -75 OFFCURVE",
"348 -64 OFFCURVE",
"332 -64 CURVE SMOOTH",
"316 -64 OFFCURVE",
"304 -75 OFFCURVE",
"304 -94 CURVE SMOOTH"
);
}
);
width = 664;
}
);
leftKerningGroup = O;
note = Ohorndotbelow;
rightKerningGroup = O;
unicode = 1EE2;
},
{
glyphname = Ohorngrave;
layers = (
{
layerId = "3B510B5F-24E9-457B-9D94-D253B43C96E6";
name = Light;
paths = (
{
closed = 1;
nodes = (
"67 545 OFFCURVE",
"152 688 OFFCURVE",
"332 688 CURVE SMOOTH",
"512 688 OFFCURVE",
"597 545 OFFCURVE",
"597 350 CURVE SMOOTH",
"597 155 OFFCURVE",
"512 12 OFFCURVE",
"332 12 CURVE SMOOTH",
"152 12 OFFCURVE",
"67 155 OFFCURVE",
"67 350 CURVE SMOOTH"
);
},
{
closed = 1;
nodes = (
"40 127 OFFCURVE",
"142 -10 OFFCURVE",
"332 -10 CURVE SMOOTH",
"522 -10 OFFCURVE",
"624 127 OFFCURVE",
"624 350 CURVE SMOOTH",
"624 573 OFFCURVE",
"522 710 OFFCURVE",
"332 710 CURVE SMOOTH",
"142 710 OFFCURVE",
"40 573 OFFCURVE",
"40 350 CURVE SMOOTH"
);
},
{
closed = 1;
nodes = (
"585 550 LINE",
"633 583 OFFCURVE",
"654 637 OFFCURVE",
"654 675 CURVE SMOOTH",
"654 709 OFFCURVE",
"641 731 OFFCURVE",
"610 731 CURVE SMOOTH",
"590 731 OFFCURVE",
"576 718 OFFCURVE",
"576 697 CURVE SMOOTH",
"576 676 OFFCURVE",
"590 665 OFFCURVE",
"607 665 CURVE SMOOTH",
"614 665 OFFCURVE",
"623 667 OFFCURVE",
"629 672 CURVE",
"629 627 OFFCURVE",
"605 590 OFFCURVE",
"573 567 CURVE"
);
},
{
closed = 1;
nodes = (
"399 786 LINE",
"406 796 LINE",
"299 883 LINE",
"292 890 OFFCURVE",
"283 895 OFFCURVE",
"273 895 CURVE SMOOTH",
"266 895 OFFCURVE",
"259 890 OFFCURVE",
"259 881 CURVE SMOOTH",
"259 873 OFFCURVE",
"264 864 OFFCURVE",
"275 858 CURVE SMOOTH"
);
}
);
width = 664;
}
);
leftKerningGroup = O;
note = Ohorngrave;
rightKerningGroup = O;
unicode = 1EDC;
},
{
glyphname = Ohornhookabove;
layers = (
{
layerId = "3B510B5F-24E9-457B-9D94-D253B43C96E6";
name = Light;
paths = (
{
closed = 1;
nodes = (
"67 545 OFFCURVE",
"152 688 OFFCURVE",
"332 688 CURVE SMOOTH",
"512 688 OFFCURVE",
"597 545 OFFCURVE",
"597 350 CURVE SMOOTH",
"597 155 OFFCURVE",
"512 12 OFFCURVE",
"332 12 CURVE SMOOTH",
"152 12 OFFCURVE",
"67 155 OFFCURVE",
"67 350 CURVE SMOOTH"
);
},
{
closed = 1;
nodes = (
"40 127 OFFCURVE",
"142 -10 OFFCURVE",
"332 -10 CURVE SMOOTH",
"522 -10 OFFCURVE",
"624 127 OFFCURVE",
"624 350 CURVE SMOOTH",
"624 573 OFFCURVE",
"522 710 OFFCURVE",
"332 710 CURVE SMOOTH",
"142 710 OFFCURVE",
"40 573 OFFCURVE",
"40 350 CURVE SMOOTH"
);
},
{
closed = 1;
nodes = (
"585 550 LINE",
"633 583 OFFCURVE",
"654 637 OFFCURVE",
"654 675 CURVE SMOOTH",
"654 709 OFFCURVE",
"641 731 OFFCURVE",
"610 731 CURVE SMOOTH",
"590 731 OFFCURVE",
"576 718 OFFCURVE",
"576 697 CURVE SMOOTH",
"576 676 OFFCURVE",
"590 665 OFFCURVE",
"607 665 CURVE SMOOTH",
"614 665 OFFCURVE",
"623 667 OFFCURVE",
"629 672 CURVE",
"629 627 OFFCURVE",
"605 590 OFFCURVE",
"573 567 CURVE"
);
},
{
closed = 1;
nodes = (
"419 947 OFFCURVE",
"384 969 OFFCURVE",
"344 969 CURVE SMOOTH",
"317 969 OFFCURVE",
"292 961 OFFCURVE",
"276 953 CURVE",
"283 932 LINE",
"302 943 OFFCURVE",
"322 948 OFFCURVE",
"338 948 CURVE SMOOTH",
"375 948 OFFCURVE",
"393 930 OFFCURVE",
"393 905 CURVE SMOOTH",
"393 880 OFFCURVE",
"378 853 OFFCURVE",
"326 853 CURVE SMOOTH",
"315 853 LINE",
"320 777 LINE",
"336 777 LINE",
"347 836 LINE",
"397 841 OFFCURVE",
"419 868 OFFCURVE",
"419 903 CURVE SMOOTH"
);
}
);
width = 664;
}
);
leftKerningGroup = O;
note = Ohornhookabove;
rightKerningGroup = O;
unicode = 1EDE;
},
{
glyphname = Ohorntilde;
layers = (
{
layerId = "3B510B5F-24E9-457B-9D94-D253B43C96E6";
name = Light;
paths = (
{
closed = 1;
nodes = (
"67 545 OFFCURVE",
"152 688 OFFCURVE",
"332 688 CURVE SMOOTH",
"512 688 OFFCURVE",
"597 545 OFFCURVE",
"597 350 CURVE SMOOTH",
"597 155 OFFCURVE",
"512 12 OFFCURVE",
"332 12 CURVE SMOOTH",
"152 12 OFFCURVE",
"67 155 OFFCURVE",
"67 350 CURVE SMOOTH"
);
},
{
closed = 1;
nodes = (
"40 127 OFFCURVE",
"142 -10 OFFCURVE",
"332 -10 CURVE SMOOTH",
"522 -10 OFFCURVE",
"624 127 OFFCURVE",
"624 350 CURVE SMOOTH",
"624 573 OFFCURVE",
"522 710 OFFCURVE",
"332 710 CURVE SMOOTH",
"142 710 OFFCURVE",
"40 573 OFFCURVE",
"40 350 CURVE SMOOTH"
);
},
{
closed = 1;
nodes = (
"585 550 LINE",
"633 583 OFFCURVE",
"654 637 OFFCURVE",
"654 675 CURVE SMOOTH",
"654 709 OFFCURVE",
"641 731 OFFCURVE",
"610 731 CURVE SMOOTH",
"590 731 OFFCURVE",
"576 718 OFFCURVE",
"576 697 CURVE SMOOTH",
"576 676 OFFCURVE",
"590 665 OFFCURVE",
"607 665 CURVE SMOOTH",
"614 665 OFFCURVE",
"623 667 OFFCURVE",
"629 672 CURVE",
"629 627 OFFCURVE",
"605 590 OFFCURVE",
"573 567 CURVE"
);
},
{
closed = 1;
nodes = (
"436 788 OFFCURVE",
"462 822 OFFCURVE",
"471 878 CURVE",
"460 878 LINE",
"450 838 OFFCURVE",
"433 812 OFFCURVE",
"399 812 CURVE SMOOTH",
"358 812 OFFCURVE",
"310 871 OFFCURVE",
"267 871 CURVE SMOOTH",
"231 871 OFFCURVE",
"201 847 OFFCURVE",
"193 786 CURVE",
"204 786 LINE",
"214 824 OFFCURVE",
"234 848 OFFCURVE",
"265 848 CURVE SMOOTH",
"309 848 OFFCURVE",
"354 788 OFFCURVE",
"396 788 CURVE SMOOTH"
);
}
);
width = 664;
}
);
leftKerningGroup = O;
note = Ohorntilde;
rightKerningGroup = O;
unicode = 1EE0;
},
{
glyphname = Ohungarumlaut;
layers = (
{
layerId = "3B510B5F-24E9-457B-9D94-D253B43C96E6";
name = Light;
paths = (
{
closed = 1;
nodes = (
"67 545 OFFCURVE",
"152 688 OFFCURVE",
"332 688 CURVE SMOOTH",
"512 688 OFFCURVE",
"597 545 OFFCURVE",
"597 350 CURVE SMOOTH",
"597 155 OFFCURVE",
"512 12 OFFCURVE",
"332 12 CURVE SMOOTH",
"152 12 OFFCURVE",
"67 155 OFFCURVE",
"67 350 CURVE SMOOTH"
);
},
{
closed = 1;
nodes = (
"40 127 OFFCURVE",
"142 -10 OFFCURVE",
"332 -10 CURVE SMOOTH",
"522 -10 OFFCURVE",
"624 127 OFFCURVE",
"624 350 CURVE SMOOTH",
"624 573 OFFCURVE",
"522 710 OFFCURVE",
"332 710 CURVE SMOOTH",
"142 710 OFFCURVE",
"40 573 OFFCURVE",
"40 350 CURVE SMOOTH"
);
},
{
closed = 1;
nodes = (
"350 859 LINE SMOOTH",
"361 865 OFFCURVE",
"366 874 OFFCURVE",
"366 882 CURVE SMOOTH",
"366 891 OFFCURVE",
"359 896 OFFCURVE",
"352 896 CURVE SMOOTH",
"342 896 OFFCURVE",
"333 891 OFFCURVE",
"326 884 CURVE",
"219 797 LINE",
"226 787 LINE"
);
},
{
closed = 1;
nodes = (
"526 859 LINE SMOOTH",
"537 865 OFFCURVE",
"542 874 OFFCURVE",
"542 882 CURVE SMOOTH",
"542 891 OFFCURVE",
"535 896 OFFCURVE",
"528 896 CURVE SMOOTH",
"518 896 OFFCURVE",
"509 891 OFFCURVE",
"502 884 CURVE",
"395 797 LINE",
"402 787 LINE"
);
}
);
width = 664;
}
);
leftKerningGroup = O;
note = Ohungarumlaut;
rightKerningGroup = O;
unicode = 0150;
},
{
glyphname = Omacron;
layers = (
{
layerId = "3B510B5F-24E9-457B-9D94-D253B43C96E6";
name = Light;
paths = (
{
closed = 1;
nodes = (
"67 545 OFFCURVE",
"152 688 OFFCURVE",
"332 688 CURVE SMOOTH",
"512 688 OFFCURVE",
"597 545 OFFCURVE",
"597 350 CURVE SMOOTH",
"597 155 OFFCURVE",
"512 12 OFFCURVE",
"332 12 CURVE SMOOTH",
"152 12 OFFCURVE",
"67 155 OFFCURVE",
"67 350 CURVE SMOOTH"
);
},
{
closed = 1;
nodes = (
"40 127 OFFCURVE",
"142 -10 OFFCURVE",
"332 -10 CURVE SMOOTH",
"522 -10 OFFCURVE",
"624 127 OFFCURVE",
"624 350 CURVE SMOOTH",
"624 573 OFFCURVE",
"522 710 OFFCURVE",
"332 710 CURVE SMOOTH",
"142 710 OFFCURVE",
"40 573 OFFCURVE",
"40 350 CURVE SMOOTH"
);
},
{
closed = 1;
nodes = (
"194 806 LINE",
"470 806 LINE",
"470 828 LINE",
"194 828 LINE"
);
}
);
width = 664;
}
);
leftKerningGroup = O;
note = Omacron;
rightKerningGroup = O;
unicode = 014C;
},
{
glyphname = Oslash;
layers = (
{
layerId = "3B510B5F-24E9-457B-9D94-D253B43C96E6";
name = Light;
paths = (
{
closed = 1;
nodes = (
"121 -24 LINE",
"549 705 LINE",
"528 717 LINE",
"101 -11 LINE"
);
},
{
closed = 1;
nodes = (
"152 12 OFFCURVE",
"67 155 OFFCURVE",
"67 350 CURVE SMOOTH",
"67 545 OFFCURVE",
"152 688 OFFCURVE",
"332 688 CURVE SMOOTH",
"512 688 OFFCURVE",
"597 545 OFFCURVE",
"597 350 CURVE SMOOTH",
"597 155 OFFCURVE",
"512 12 OFFCURVE",
"332 12 CURVE SMOOTH"
);
},
{
closed = 1;
nodes = (
"522 -10 OFFCURVE",
"624 127 OFFCURVE",
"624 350 CURVE SMOOTH",
"624 573 OFFCURVE",
"522 710 OFFCURVE",
"332 710 CURVE SMOOTH",
"142 710 OFFCURVE",
"40 573 OFFCURVE",
"40 350 CURVE SMOOTH",
"40 127 OFFCURVE",
"142 -10 OFFCURVE",
"332 -10 CURVE SMOOTH"
);
}
);
width = 664;
}
);
leftKerningGroup = O;
note = Oslash;
rightKerningGroup = O;
unicode = 00D8;
},
{
glyphname = Oslashacute;
layers = (
{
layerId = "3B510B5F-24E9-457B-9D94-D253B43C96E6";
name = Light;
paths = (
{
closed = 1;
nodes = (
"121 -24 LINE",
"549 705 LINE",
"528 717 LINE",
"101 -11 LINE"
);
},
{
closed = 1;
nodes = (
"152 12 OFFCURVE",
"67 155 OFFCURVE",
"67 350 CURVE SMOOTH",
"67 545 OFFCURVE",
"152 688 OFFCURVE",
"332 688 CURVE SMOOTH",
"512 688 OFFCURVE",
"597 545 OFFCURVE",
"597 350 CURVE SMOOTH",
"597 155 OFFCURVE",
"512 12 OFFCURVE",
"332 12 CURVE SMOOTH"
);
},
{
closed = 1;
nodes = (
"522 -10 OFFCURVE",
"624 127 OFFCURVE",
"624 350 CURVE SMOOTH",
"624 573 OFFCURVE",
"522 710 OFFCURVE",
"332 710 CURVE SMOOTH",
"142 710 OFFCURVE",
"40 573 OFFCURVE",
"40 350 CURVE SMOOTH",
"40 127 OFFCURVE",
"142 -10 OFFCURVE",
"332 -10 CURVE SMOOTH"
);
},
{
closed = 1;
nodes = (
"408 859 LINE SMOOTH",
"419 865 OFFCURVE",
"424 874 OFFCURVE",
"424 882 CURVE SMOOTH",
"424 891 OFFCURVE",
"417 896 OFFCURVE",
"410 896 CURVE SMOOTH",
"400 896 OFFCURVE",
"391 891 OFFCURVE",
"384 884 CURVE",
"277 797 LINE",
"284 787 LINE"
);
}
);
width = 664;
}
);
leftKerningGroup = O;
note = Oslashacute;
rightKerningGroup = O;
unicode = 01FE;
},
{
glyphname = Otilde;
layers = (
{
layerId = "3B510B5F-24E9-457B-9D94-D253B43C96E6";
name = Light;
paths = (
{
closed = 1;
nodes = (
"67 545 OFFCURVE",
"152 688 OFFCURVE",
"332 688 CURVE SMOOTH",
"512 688 OFFCURVE",
"597 545 OFFCURVE",
"597 350 CURVE SMOOTH",
"597 155 OFFCURVE",
"512 12 OFFCURVE",
"332 12 CURVE SMOOTH",
"152 12 OFFCURVE",
"67 155 OFFCURVE",
"67 350 CURVE SMOOTH"
);
},
{
closed = 1;
nodes = (
"40 127 OFFCURVE",
"142 -10 OFFCURVE",
"332 -10 CURVE SMOOTH",
"522 -10 OFFCURVE",
"624 127 OFFCURVE",
"624 350 CURVE SMOOTH",
"624 573 OFFCURVE",
"522 710 OFFCURVE",
"332 710 CURVE SMOOTH",
"142 710 OFFCURVE",
"40 573 OFFCURVE",
"40 350 CURVE SMOOTH"
);
},
{
closed = 1;
nodes = (
"436 788 OFFCURVE",
"462 822 OFFCURVE",
"471 878 CURVE",
"460 878 LINE",
"450 838 OFFCURVE",
"433 812 OFFCURVE",
"399 812 CURVE SMOOTH",
"358 812 OFFCURVE",
"310 871 OFFCURVE",
"267 871 CURVE SMOOTH",
"231 871 OFFCURVE",
"201 847 OFFCURVE",
"193 786 CURVE",
"204 786 LINE",
"214 824 OFFCURVE",
"234 848 OFFCURVE",
"265 848 CURVE SMOOTH",
"309 848 OFFCURVE",
"354 788 OFFCURVE",
"396 788 CURVE SMOOTH"
);
}
);
width = 664;
}
);
leftKerningGroup = O;
note = Otilde;
rightKerningGroup = O;
unicode = 00D5;
},
{
glyphname = OE;
layers = (
{
layerId = "3B510B5F-24E9-457B-9D94-D253B43C96E6";
name = Light;
paths = (
{
closed = 1;
nodes = (
"525 22 LINE",
"525 349 LINE",
"769 349 LINE",
"771 331 OFFCURVE",
"777 290 OFFCURVE",
"785 269 CURVE",
"793 269 LINE",
"793 451 LINE",
"785 451 LINE",
"777 430 OFFCURVE",
"771 389 OFFCURVE",
"769 371 CURVE",
"525 371 LINE",
"525 678 LINE",
"842 678 LINE",
"844 655 OFFCURVE",
"849 604 OFFCURVE",
"857 586 CURVE",
"866 586 LINE",
"866 700 LINE",
"497 700 LINE",
"497 663 LINE",
"453 694 OFFCURVE",
"398 710 OFFCURVE",
"332 710 CURVE SMOOTH",
"142 710 OFFCURVE",
"40 573 OFFCURVE",
"40 350 CURVE SMOOTH",
"40 127 OFFCURVE",
"142 -10 OFFCURVE",
"332 -10 CURVE SMOOTH",
"398 -10 OFFCURVE",
"453 6 OFFCURVE",
"497 36 CURVE",
"497 0 LINE",
"866 0 LINE",
"876 114 LINE",
"867 114 LINE",
"859 96 OFFCURVE",
"844 45 OFFCURVE",
"842 22 CURVE"
);
},
{
closed = 1;
nodes = (
"154 12 OFFCURVE",
"68 155 OFFCURVE",
"68 350 CURVE SMOOTH",
"68 545 OFFCURVE",
"154 688 OFFCURVE",
"332 688 CURVE SMOOTH",
"400 688 OFFCURVE",
"455 666 OFFCURVE",
"497 629 CURVE",
"497 70 LINE",
"455 33 OFFCURVE",
"400 12 OFFCURVE",
"332 12 CURVE SMOOTH"
);
}
);
width = 932;
}
);
note = OE;
unicode = 0152;
},
{
glyphname = P;
layers = (
{
layerId = "3B510B5F-24E9-457B-9D94-D253B43C96E6";
name = Light;
paths = (
{
closed = 1;
nodes = (
"160 305 LINE",
"160 678 LINE",
"331 678 LINE SMOOTH",
"454 678 OFFCURVE",
"505 599 OFFCURVE",
"505 491 CURVE SMOOTH",
"505 384 OFFCURVE",
"454 305 OFFCURVE",
"331 305 CURVE SMOOTH"
);
},
{
closed = 1;
nodes = (
"160 283 LINE",
"330 283 LINE SMOOTH",
"474 283 OFFCURVE",
"533 369 OFFCURVE",
"533 491 CURVE SMOOTH",
"533 614 OFFCURVE",
"474 700 OFFCURVE",
"330 700 CURVE SMOOTH",
"52 700 LINE",
"52 695 LINE",
"76 687 OFFCURVE",
"103 682 OFFCURVE",
"132 678 CURVE",
"132 21 LINE",
"103 18 OFFCURVE",
"74 13 OFFCURVE",
"50 5 CURVE",
"50 0 LINE",
"242 0 LINE",
"242 5 LINE",
"218 13 OFFCURVE",
"189 18 OFFCURVE",
"160 22 CURVE"
);
}
);
width = 573;
}
);
note = P;
unicode = 0050;
},
{
glyphname = Thorn;
layers = (
{
layerId = "3B510B5F-24E9-457B-9D94-D253B43C96E6";
name = Light;
paths = (
{
closed = 1;
nodes = (
"161 154 LINE",
"161 527 LINE",
"332 527 LINE SMOOTH",
"455 527 OFFCURVE",
"506 448 OFFCURVE",
"506 340 CURVE SMOOTH",
"506 233 OFFCURVE",
"455 154 OFFCURVE",
"332 154 CURVE SMOOTH"
);
},
{
closed = 1;
nodes = (
"161 132 LINE",
"331 132 LINE SMOOTH",
"475 132 OFFCURVE",
"534 218 OFFCURVE",
"534 340 CURVE SMOOTH",
"534 463 OFFCURVE",
"475 549 OFFCURVE",
"331 549 CURVE SMOOTH",
"161 549 LINE",
"161 700 LINE",
"53 700 LINE",
"53 695 LINE",
"77 687 OFFCURVE",
"104 682 OFFCURVE",
"133 678 CURVE",
"133 21 LINE",
"104 18 OFFCURVE",
"75 13 OFFCURVE",
"51 5 CURVE",
"51 0 LINE",
"243 0 LINE",
"243 5 LINE",
"219 13 OFFCURVE",
"190 18 OFFCURVE",
"161 22 CURVE"
);
}
);
width = 571;
}
);
note = Thorn;
unicode = 00DE;
},
{
glyphname = Q;
layers = (
{
layerId = "3B510B5F-24E9-457B-9D94-D253B43C96E6";
name = Light;
paths = (
{
closed = 1;
nodes = (
"341 -4 LINE",
"353 -91 OFFCURVE",
"419 -149 OFFCURVE",
"543 -159 CURVE",
"543 -141 LINE",
"440 -132 OFFCURVE",
"376 -80 OFFCURVE",
"368 -4 CURVE"
);
},
{
closed = 1;
nodes = (
"67 545 OFFCURVE",
"154 688 OFFCURVE",
"332 688 CURVE SMOOTH",
"510 688 OFFCURVE",
"597 545 OFFCURVE",
"597 350 CURVE SMOOTH",
"597 155 OFFCURVE",
"510 12 OFFCURVE",
"332 12 CURVE SMOOTH",
"154 12 OFFCURVE",
"67 155 OFFCURVE",
"67 350 CURVE SMOOTH"
);
},
{
closed = 1;
nodes = (
"40 127 OFFCURVE",
"142 -10 OFFCURVE",
"332 -10 CURVE SMOOTH",
"522 -10 OFFCURVE",
"624 127 OFFCURVE",
"624 350 CURVE SMOOTH",
"624 573 OFFCURVE",
"522 710 OFFCURVE",
"332 710 CURVE SMOOTH",
"142 710 OFFCURVE",
"40 573 OFFCURVE",
"40 350 CURVE SMOOTH"
);
}
);
width = 664;
}
);
leftKerningGroup = O;
note = Q;
rightKerningGroup = O;
unicode = 0051;
},
{
glyphname = R;
layers = (
{
layerId = "3B510B5F-24E9-457B-9D94-D253B43C96E6";
name = Light;
paths = (
{
closed = 1;
nodes = (
"583 0 LINE",
"583 7 LINE",
"569 13 OFFCURVE",
"535 18 OFFCURVE",
"514 21 CURVE",
"347 306 LINE",
"316 306 LINE",
"494 0 LINE"
);
},
{
closed = 1;
nodes = (
"160 325 LINE",
"160 678 LINE",
"331 678 LINE SMOOTH",
"454 678 OFFCURVE",
"505 609 OFFCURVE",
"505 501 CURVE SMOOTH",
"505 394 OFFCURVE",
"454 325 OFFCURVE",
"331 325 CURVE SMOOTH"
);
},
{
closed = 1;
nodes = (
"242 0 LINE",
"242 5 LINE",
"218 13 OFFCURVE",
"189 18 OFFCURVE",
"160 22 CURVE",
"160 303 LINE",
"330 303 LINE SMOOTH",
"474 303 OFFCURVE",
"533 379 OFFCURVE",
"533 501 CURVE SMOOTH",
"533 624 OFFCURVE",
"474 700 OFFCURVE",
"330 700 CURVE SMOOTH",
"52 700 LINE",
"52 695 LINE",
"76 687 OFFCURVE",
"103 682 OFFCURVE",
"132 678 CURVE",
"132 21 LINE",
"103 18 OFFCURVE",
"74 13 OFFCURVE",
"50 5 CURVE",
"50 0 LINE"
);
}
);
width = 616;
}
);
note = R;
rightKerningGroup = R;
unicode = 0052;
},
{
glyphname = Racute;
layers = (
{
layerId = "3B510B5F-24E9-457B-9D94-D253B43C96E6";
name = Light;
paths = (
{
closed = 1;
nodes = (
"583 0 LINE",
"583 7 LINE",
"569 13 OFFCURVE",
"535 18 OFFCURVE",
"514 21 CURVE",
"347 306 LINE",
"316 306 LINE",
"494 0 LINE"
);
},
{
closed = 1;
nodes = (
"160 325 LINE",
"160 678 LINE",
"331 678 LINE SMOOTH",
"454 678 OFFCURVE",
"505 609 OFFCURVE",
"505 501 CURVE SMOOTH",
"505 394 OFFCURVE",
"454 325 OFFCURVE",
"331 325 CURVE SMOOTH"
);
},
{
closed = 1;
nodes = (
"242 0 LINE",
"242 5 LINE",
"218 13 OFFCURVE",
"189 18 OFFCURVE",
"160 22 CURVE",
"160 303 LINE",
"330 303 LINE SMOOTH",
"474 303 OFFCURVE",
"533 379 OFFCURVE",
"533 501 CURVE SMOOTH",
"533 624 OFFCURVE",
"474 700 OFFCURVE",
"330 700 CURVE SMOOTH",
"52 700 LINE",
"52 695 LINE",
"76 687 OFFCURVE",
"103 682 OFFCURVE",
"132 678 CURVE",
"132 21 LINE",
"103 18 OFFCURVE",
"74 13 OFFCURVE",
"50 5 CURVE",
"50 0 LINE"
);
},
{
closed = 1;
nodes = (
"365 859 LINE SMOOTH",
"376 865 OFFCURVE",
"381 874 OFFCURVE",
"381 882 CURVE SMOOTH",
"381 891 OFFCURVE",
"374 896 OFFCURVE",
"367 896 CURVE SMOOTH",
"357 896 OFFCURVE",
"348 891 OFFCURVE",
"341 884 CURVE",
"234 797 LINE",
"241 787 LINE"
);
}
);
width = 616;
}
);
note = Racute;
rightKerningGroup = R;
unicode = 0154;
},
{
glyphname = Rcaron;
layers = (
{
layerId = "3B510B5F-24E9-457B-9D94-D253B43C96E6";
name = Light;
paths = (
{
closed = 1;
nodes = (
"583 0 LINE",
"583 7 LINE",
"569 13 OFFCURVE",
"535 18 OFFCURVE",
"514 21 CURVE",
"347 306 LINE",
"316 306 LINE",
"494 0 LINE"
);
},
{
closed = 1;
nodes = (
"160 325 LINE",
"160 678 LINE",
"331 678 LINE SMOOTH",
"454 678 OFFCURVE",
"505 609 OFFCURVE",
"505 501 CURVE SMOOTH",
"505 394 OFFCURVE",
"454 325 OFFCURVE",
"331 325 CURVE SMOOTH"
);
},
{
closed = 1;
nodes = (
"242 0 LINE",
"242 5 LINE",
"218 13 OFFCURVE",
"189 18 OFFCURVE",
"160 22 CURVE",
"160 303 LINE",
"330 303 LINE SMOOTH",
"474 303 OFFCURVE",
"533 379 OFFCURVE",
"533 501 CURVE SMOOTH",
"533 624 OFFCURVE",
"474 700 OFFCURVE",
"330 700 CURVE SMOOTH",
"52 700 LINE",
"52 695 LINE",
"76 687 OFFCURVE",
"103 682 OFFCURVE",
"132 678 CURVE",
"132 21 LINE",
"103 18 OFFCURVE",
"74 13 OFFCURVE",
"50 5 CURVE",
"50 0 LINE"
);
},
{
closed = 1;
nodes = (
"305 819 LINE",
"276 854 OFFCURVE",
"241 884 OFFCURVE",
"207 908 CURVE",
"194 890 LINE",
"230 864 OFFCURVE",
"267 833 OFFCURVE",
"301 787 CURVE",
"315 787 LINE",
"349 833 OFFCURVE",
"386 864 OFFCURVE",
"422 890 CURVE",
"409 908 LINE",
"375 884 OFFCURVE",
"340 854 OFFCURVE",
"311 819 CURVE"
);
}
);
width = 616;
}
);
note = Rcaron;
rightKerningGroup = R;
unicode = 0158;
},
{
glyphname = Rcommaaccent;
layers = (
{
layerId = "3B510B5F-24E9-457B-9D94-D253B43C96E6";
name = Light;
paths = (
{
closed = 1;
nodes = (
"583 0 LINE",
"583 7 LINE",
"569 13 OFFCURVE",
"535 18 OFFCURVE",
"514 21 CURVE",
"347 306 LINE",
"316 306 LINE",
"494 0 LINE"
);
},
{
closed = 1;
nodes = (
"160 325 LINE",
"160 678 LINE",
"331 678 LINE SMOOTH",
"454 678 OFFCURVE",
"505 609 OFFCURVE",
"505 501 CURVE SMOOTH",
"505 394 OFFCURVE",
"454 325 OFFCURVE",
"331 325 CURVE SMOOTH"
);
},
{
closed = 1;
nodes = (
"242 0 LINE",
"242 5 LINE",
"218 13 OFFCURVE",
"189 18 OFFCURVE",
"160 22 CURVE",
"160 303 LINE",
"330 303 LINE SMOOTH",
"474 303 OFFCURVE",
"533 379 OFFCURVE",
"533 501 CURVE SMOOTH",
"533 624 OFFCURVE",
"474 700 OFFCURVE",
"330 700 CURVE SMOOTH",
"52 700 LINE",
"52 695 LINE",
"76 687 OFFCURVE",
"103 682 OFFCURVE",
"132 678 CURVE",
"132 21 LINE",
"103 18 OFFCURVE",
"74 13 OFFCURVE",
"50 5 CURVE",
"50 0 LINE"
);
},
{
closed = 1;
nodes = (
"320 -235 LINE",
"349 -206 OFFCURVE",
"365 -145 OFFCURVE",
"365 -111 CURVE SMOOTH",
"365 -78 OFFCURVE",
"354 -56 OFFCURVE",
"323 -56 CURVE SMOOTH",
"306 -56 OFFCURVE",
"290 -65 OFFCURVE",
"290 -88 CURVE SMOOTH",
"290 -104 OFFCURVE",
"301 -118 OFFCURVE",
"316 -118 CURVE SMOOTH",
"322 -118 OFFCURVE",
"331 -118 OFFCURVE",
"337 -114 CURVE",
"337 -124 LINE SMOOTH",
"337 -158 OFFCURVE",
"325 -196 OFFCURVE",
"305 -222 CURVE"
);
}
);
width = 616;
}
);
note = Rcommaaccent;
rightKerningGroup = R;
unicode = 0156;
},
{
glyphname = Rdotbelow;
layers = (
{
layerId = "3B510B5F-24E9-457B-9D94-D253B43C96E6";
name = Light;
paths = (
{
closed = 1;
nodes = (
"583 0 LINE",
"583 7 LINE",
"569 13 OFFCURVE",
"535 18 OFFCURVE",
"514 21 CURVE",
"347 306 LINE",
"316 306 LINE",
"494 0 LINE"
);
},
{
closed = 1;
nodes = (
"160 325 LINE",
"160 678 LINE",
"331 678 LINE SMOOTH",
"454 678 OFFCURVE",
"505 609 OFFCURVE",
"505 501 CURVE SMOOTH",
"505 394 OFFCURVE",
"454 325 OFFCURVE",
"331 325 CURVE SMOOTH"
);
},
{
closed = 1;
nodes = (
"242 0 LINE",
"242 5 LINE",
"218 13 OFFCURVE",
"189 18 OFFCURVE",
"160 22 CURVE",
"160 303 LINE",
"330 303 LINE SMOOTH",
"474 303 OFFCURVE",
"533 379 OFFCURVE",
"533 501 CURVE SMOOTH",
"533 624 OFFCURVE",
"474 700 OFFCURVE",
"330 700 CURVE SMOOTH",
"52 700 LINE",
"52 695 LINE",
"76 687 OFFCURVE",
"103 682 OFFCURVE",
"132 678 CURVE",
"132 21 LINE",
"103 18 OFFCURVE",
"74 13 OFFCURVE",
"50 5 CURVE",
"50 0 LINE"
);
},
{
closed = 1;
nodes = (
"299 -113 OFFCURVE",
"311 -124 OFFCURVE",
"327 -124 CURVE SMOOTH",
"343 -124 OFFCURVE",
"355 -113 OFFCURVE",
"355 -94 CURVE SMOOTH",
"355 -75 OFFCURVE",
"343 -64 OFFCURVE",
"327 -64 CURVE SMOOTH",
"311 -64 OFFCURVE",
"299 -75 OFFCURVE",
"299 -94 CURVE SMOOTH"
);
}
);
width = 616;
}
);
note = Rdotbelow;
rightKerningGroup = R;
unicode = 1E5A;
},
{
glyphname = Rdotbelowmacron;
layers = (
{
layerId = "3B510B5F-24E9-457B-9D94-D253B43C96E6";
name = Light;
paths = (
{
closed = 1;
nodes = (
"583 0 LINE",
"583 7 LINE",
"569 13 OFFCURVE",
"535 18 OFFCURVE",
"514 21 CURVE",
"347 306 LINE",
"316 306 LINE",
"494 0 LINE"
);
},
{
closed = 1;
nodes = (
"160 325 LINE",
"160 678 LINE",
"331 678 LINE SMOOTH",
"454 678 OFFCURVE",
"505 609 OFFCURVE",
"505 501 CURVE SMOOTH",
"505 394 OFFCURVE",
"454 325 OFFCURVE",
"331 325 CURVE SMOOTH"
);
},
{
closed = 1;
nodes = (
"242 0 LINE",
"242 5 LINE",
"218 13 OFFCURVE",
"189 18 OFFCURVE",
"160 22 CURVE",
"160 303 LINE",
"330 303 LINE SMOOTH",
"474 303 OFFCURVE",
"533 379 OFFCURVE",
"533 501 CURVE SMOOTH",
"533 624 OFFCURVE",
"474 700 OFFCURVE",
"330 700 CURVE SMOOTH",
"52 700 LINE",
"52 695 LINE",
"76 687 OFFCURVE",
"103 682 OFFCURVE",
"132 678 CURVE",
"132 21 LINE",
"103 18 OFFCURVE",
"74 13 OFFCURVE",
"50 5 CURVE",
"50 0 LINE"
);
},
{
closed = 1;
nodes = (
"141 785 LINE",
"417 785 LINE",
"417 807 LINE",
"141 807 LINE"
);
},
{
closed = 1;
nodes = (
"299 -113 OFFCURVE",
"311 -124 OFFCURVE",
"327 -124 CURVE SMOOTH",
"343 -124 OFFCURVE",
"355 -113 OFFCURVE",
"355 -94 CURVE SMOOTH",
"355 -75 OFFCURVE",
"343 -64 OFFCURVE",
"327 -64 CURVE SMOOTH",
"311 -64 OFFCURVE",
"299 -75 OFFCURVE",
"299 -94 CURVE SMOOTH"
);
}
);
width = 616;
}
);
note = Rdotbelowmacron;
rightKerningGroup = R;
unicode = 1E5C;
},
{
glyphname = Rlinebelow;
layers = (
{
layerId = "3B510B5F-24E9-457B-9D94-D253B43C96E6";
name = Light;
paths = (
{
closed = 1;
nodes = (
"583 0 LINE",
"583 7 LINE",
"569 13 OFFCURVE",
"535 18 OFFCURVE",
"514 21 CURVE",
"347 306 LINE",
"316 306 LINE",
"494 0 LINE"
);
},
{
closed = 1;
nodes = (
"160 325 LINE",
"160 678 LINE",
"331 678 LINE SMOOTH",
"454 678 OFFCURVE",
"505 609 OFFCURVE",
"505 501 CURVE SMOOTH",
"505 394 OFFCURVE",
"454 325 OFFCURVE",
"331 325 CURVE SMOOTH"
);
},
{
closed = 1;
nodes = (
"242 0 LINE",
"242 5 LINE",
"218 13 OFFCURVE",
"189 18 OFFCURVE",
"160 22 CURVE",
"160 303 LINE",
"330 303 LINE SMOOTH",
"474 303 OFFCURVE",
"533 379 OFFCURVE",
"533 501 CURVE SMOOTH",
"533 624 OFFCURVE",
"474 700 OFFCURVE",
"330 700 CURVE SMOOTH",
"52 700 LINE",
"52 695 LINE",
"76 687 OFFCURVE",
"103 682 OFFCURVE",
"132 678 CURVE",
"132 21 LINE",
"103 18 OFFCURVE",
"74 13 OFFCURVE",
"50 5 CURVE",
"50 0 LINE"
);
},
{
closed = 1;
nodes = (
"186 -98 LINE",
"462 -98 LINE",
"462 -76 LINE",
"186 -76 LINE"
);
}
);
width = 616;
}
);
note = Rlinebelow;
rightKerningGroup = R;
unicode = 1E5E;
},
{
glyphname = S;
layers = (
{
layerId = "3B510B5F-24E9-457B-9D94-D253B43C96E6";
name = Light;
paths = (
{
closed = 1;
nodes = (
"34 79 LINE",
"74 33 OFFCURVE",
"144 -10 OFFCURVE",
"247 -10 CURVE SMOOTH",
"368 -10 OFFCURVE",
"455 64 OFFCURVE",
"455 173 CURVE",
"454 402 OFFCURVE",
"77 381 OFFCURVE",
"77 558 CURVE SMOOTH",
"77 634 OFFCURVE",
"130 688 OFFCURVE",
"263 688 CURVE SMOOTH",
"324 688 OFFCURVE",
"369 670 OFFCURVE",
"400 638 CURVE",
"402 614 OFFCURVE",
"407 560 OFFCURVE",
"415 543 CURVE",
"424 543 LINE",
"430 641 LINE",
"391 686 OFFCURVE",
"332 710 OFFCURVE",
"252 710 CURVE SMOOTH",
"130 710 OFFCURVE",
"49 660 OFFCURVE",
"49 558 CURVE SMOOTH",
"49 356 OFFCURVE",
"427 385 OFFCURVE",
"427 167 CURVE SMOOTH",
"427 68 OFFCURVE",
"336 12 OFFCURVE",
"242 12 CURVE SMOOTH",
"155 12 OFFCURVE",
"98 47 OFFCURVE",
"64 92 CURVE",
"63 115 OFFCURVE",
"57 188 OFFCURVE",
"49 206 CURVE",
"40 206 LINE"
);
}
);
width = 490;
}
);
leftKerningGroup = S;
note = S;
rightKerningGroup = S;
unicode = 0053;
},
{
glyphname = Sacute;
layers = (
{
layerId = "3B510B5F-24E9-457B-9D94-D253B43C96E6";
name = Light;
paths = (
{
closed = 1;
nodes = (
"34 79 LINE",
"74 33 OFFCURVE",
"144 -10 OFFCURVE",
"247 -10 CURVE SMOOTH",
"368 -10 OFFCURVE",
"455 64 OFFCURVE",
"455 173 CURVE",
"454 402 OFFCURVE",
"77 381 OFFCURVE",
"77 558 CURVE SMOOTH",
"77 634 OFFCURVE",
"130 688 OFFCURVE",
"263 688 CURVE SMOOTH",
"324 688 OFFCURVE",
"369 670 OFFCURVE",
"400 638 CURVE",
"402 614 OFFCURVE",
"407 560 OFFCURVE",
"415 543 CURVE",
"424 543 LINE",
"430 641 LINE",
"391 686 OFFCURVE",
"332 710 OFFCURVE",
"252 710 CURVE SMOOTH",
"130 710 OFFCURVE",
"49 660 OFFCURVE",
"49 558 CURVE SMOOTH",
"49 356 OFFCURVE",
"427 385 OFFCURVE",
"427 167 CURVE SMOOTH",
"427 68 OFFCURVE",
"336 12 OFFCURVE",
"242 12 CURVE SMOOTH",
"155 12 OFFCURVE",
"98 47 OFFCURVE",
"64 92 CURVE",
"63 115 OFFCURVE",
"57 188 OFFCURVE",
"49 206 CURVE",
"40 206 LINE"
);
},
{
closed = 1;
nodes = (
"336 859 LINE SMOOTH",
"347 865 OFFCURVE",
"352 874 OFFCURVE",
"352 882 CURVE SMOOTH",
"352 891 OFFCURVE",
"345 896 OFFCURVE",
"338 896 CURVE SMOOTH",
"328 896 OFFCURVE",
"319 891 OFFCURVE",
"312 884 CURVE",
"205 797 LINE",
"212 787 LINE"
);
}
);
width = 490;
}
);
leftKerningGroup = S;
note = Sacute;
rightKerningGroup = S;
unicode = 015A;
},
{
glyphname = Scaron;
layers = (
{
layerId = "3B510B5F-24E9-457B-9D94-D253B43C96E6";
name = Light;
paths = (
{
closed = 1;
nodes = (
"34 79 LINE",
"74 33 OFFCURVE",
"144 -10 OFFCURVE",
"247 -10 CURVE SMOOTH",
"368 -10 OFFCURVE",
"455 64 OFFCURVE",
"455 173 CURVE",
"454 402 OFFCURVE",
"77 381 OFFCURVE",
"77 558 CURVE SMOOTH",
"77 634 OFFCURVE",
"130 688 OFFCURVE",
"263 688 CURVE SMOOTH",
"324 688 OFFCURVE",
"369 670 OFFCURVE",
"400 638 CURVE",
"402 614 OFFCURVE",
"407 560 OFFCURVE",
"415 543 CURVE",
"424 543 LINE",
"430 641 LINE",
"391 686 OFFCURVE",
"332 710 OFFCURVE",
"252 710 CURVE SMOOTH",
"130 710 OFFCURVE",
"49 660 OFFCURVE",
"49 558 CURVE SMOOTH",
"49 356 OFFCURVE",
"427 385 OFFCURVE",
"427 167 CURVE SMOOTH",
"427 68 OFFCURVE",
"336 12 OFFCURVE",
"242 12 CURVE SMOOTH",
"155 12 OFFCURVE",
"98 47 OFFCURVE",
"64 92 CURVE",
"63 115 OFFCURVE",
"57 188 OFFCURVE",
"49 206 CURVE",
"40 206 LINE"
);
},
{
closed = 1;
nodes = (
"242 819 LINE",
"213 854 OFFCURVE",
"178 884 OFFCURVE",
"144 908 CURVE",
"131 890 LINE",
"167 864 OFFCURVE",
"204 833 OFFCURVE",
"238 787 CURVE",
"252 787 LINE",
"286 833 OFFCURVE",
"323 864 OFFCURVE",
"359 890 CURVE",
"346 908 LINE",
"312 884 OFFCURVE",
"277 854 OFFCURVE",
"248 819 CURVE"
);
}
);
width = 490;
}
);
leftKerningGroup = S;
note = Scaron;
rightKerningGroup = S;
unicode = 0160;
},
{
glyphname = Scedilla;
layers = (
{
layerId = "3B510B5F-24E9-457B-9D94-D253B43C96E6";
name = Light;
paths = (
{
closed = 1;
nodes = (
"34 79 LINE",
"74 33 OFFCURVE",
"144 -10 OFFCURVE",
"247 -10 CURVE SMOOTH",
"368 -10 OFFCURVE",
"455 64 OFFCURVE",
"455 173 CURVE",
"454 402 OFFCURVE",
"77 381 OFFCURVE",
"77 558 CURVE SMOOTH",
"77 634 OFFCURVE",
"130 688 OFFCURVE",
"263 688 CURVE SMOOTH",
"324 688 OFFCURVE",
"369 670 OFFCURVE",
"400 638 CURVE",
"402 614 OFFCURVE",
"407 560 OFFCURVE",
"415 543 CURVE",
"424 543 LINE",
"430 641 LINE",
"391 686 OFFCURVE",
"332 710 OFFCURVE",
"252 710 CURVE SMOOTH",
"130 710 OFFCURVE",
"49 660 OFFCURVE",
"49 558 CURVE SMOOTH",
"49 356 OFFCURVE",
"427 385 OFFCURVE",
"427 167 CURVE SMOOTH",
"427 68 OFFCURVE",
"336 12 OFFCURVE",
"242 12 CURVE SMOOTH",
"155 12 OFFCURVE",
"98 47 OFFCURVE",
"64 92 CURVE",
"63 115 OFFCURVE",
"57 188 OFFCURVE",
"49 206 CURVE",
"40 206 LINE"
);
},
{
closed = 1;
nodes = (
"320 -82 OFFCURVE",
"287 -67 OFFCURVE",
"251 -67 CURVE SMOOTH",
"242 -67 OFFCURVE",
"234 -67 OFFCURVE",
"226 -69 CURVE",
"257 0 LINE",
"233 0 LINE",
"200 -66 LINE",
"219 -89 LINE",
"226 -88 OFFCURVE",
"235 -87 OFFCURVE",
"244 -87 CURVE SMOOTH",
"268 -87 OFFCURVE",
"295 -95 OFFCURVE",
"295 -117 CURVE SMOOTH",
"295 -151 OFFCURVE",
"268 -166 OFFCURVE",
"227 -166 CURVE SMOOTH",
"213 -166 OFFCURVE",
"196 -165 OFFCURVE",
"179 -162 CURVE",
"170 -180 LINE",
"188 -184 OFFCURVE",
"207 -186 OFFCURVE",
"224 -186 CURVE SMOOTH",
"279 -186 OFFCURVE",
"320 -164 OFFCURVE",
"320 -118 CURVE SMOOTH"
);
}
);
width = 490;
}
);
leftKerningGroup = S;
note = Scedilla;
rightKerningGroup = S;
unicode = 015E;
},
{
glyphname = Scircumflex;
layers = (
{
layerId = "3B510B5F-24E9-457B-9D94-D253B43C96E6";
name = Light;
paths = (
{
closed = 1;
nodes = (
"34 79 LINE",
"74 33 OFFCURVE",
"144 -10 OFFCURVE",
"247 -10 CURVE SMOOTH",
"368 -10 OFFCURVE",
"455 64 OFFCURVE",
"455 173 CURVE",
"454 402 OFFCURVE",
"77 381 OFFCURVE",
"77 558 CURVE SMOOTH",
"77 634 OFFCURVE",
"130 688 OFFCURVE",
"263 688 CURVE SMOOTH",
"324 688 OFFCURVE",
"369 670 OFFCURVE",
"400 638 CURVE",
"402 614 OFFCURVE",
"407 560 OFFCURVE",
"415 543 CURVE",
"424 543 LINE",
"430 641 LINE",
"391 686 OFFCURVE",
"332 710 OFFCURVE",
"252 710 CURVE SMOOTH",
"130 710 OFFCURVE",
"49 660 OFFCURVE",
"49 558 CURVE SMOOTH",
"49 356 OFFCURVE",
"427 385 OFFCURVE",
"427 167 CURVE SMOOTH",
"427 68 OFFCURVE",
"336 12 OFFCURVE",
"242 12 CURVE SMOOTH",
"155 12 OFFCURVE",
"98 47 OFFCURVE",
"64 92 CURVE",
"63 115 OFFCURVE",
"57 188 OFFCURVE",
"49 206 CURVE",
"40 206 LINE"
);
},
{
closed = 1;
nodes = (
"248 866 LINE",
"277 831 OFFCURVE",
"312 801 OFFCURVE",
"346 777 CURVE",
"359 795 LINE",
"323 821 OFFCURVE",
"286 852 OFFCURVE",
"252 898 CURVE",
"238 898 LINE",
"204 852 OFFCURVE",
"167 821 OFFCURVE",
"131 795 CURVE",
"144 777 LINE",
"178 801 OFFCURVE",
"213 831 OFFCURVE",
"242 866 CURVE"
);
}
);
width = 490;
}
);
leftKerningGroup = S;
note = Scircumflex;
rightKerningGroup = S;
unicode = 015C;
},
{
glyphname = Scommaaccent;
layers = (
{
layerId = "3B510B5F-24E9-457B-9D94-D253B43C96E6";
name = Light;
paths = (
{
closed = 1;
nodes = (
"34 79 LINE",
"74 33 OFFCURVE",
"144 -10 OFFCURVE",
"247 -10 CURVE SMOOTH",
"368 -10 OFFCURVE",
"455 64 OFFCURVE",
"455 173 CURVE",
"454 402 OFFCURVE",
"77 381 OFFCURVE",
"77 558 CURVE SMOOTH",
"77 634 OFFCURVE",
"130 688 OFFCURVE",
"263 688 CURVE SMOOTH",
"324 688 OFFCURVE",
"369 670 OFFCURVE",
"400 638 CURVE",
"402 614 OFFCURVE",
"407 560 OFFCURVE",
"415 543 CURVE",
"424 543 LINE",
"430 641 LINE",
"391 686 OFFCURVE",
"332 710 OFFCURVE",
"252 710 CURVE SMOOTH",
"130 710 OFFCURVE",
"49 660 OFFCURVE",
"49 558 CURVE SMOOTH",
"49 356 OFFCURVE",
"427 385 OFFCURVE",
"427 167 CURVE SMOOTH",
"427 68 OFFCURVE",
"336 12 OFFCURVE",
"242 12 CURVE SMOOTH",
"155 12 OFFCURVE",
"98 47 OFFCURVE",
"64 92 CURVE",
"63 115 OFFCURVE",
"57 188 OFFCURVE",
"49 206 CURVE",
"40 206 LINE"
);
},
{
closed = 1;
nodes = (
"237 -238 LINE",
"266 -209 OFFCURVE",
"286 -148 OFFCURVE",
"286 -114 CURVE SMOOTH",
"286 -81 OFFCURVE",
"271 -56 OFFCURVE",
"240 -56 CURVE SMOOTH",
"220 -56 OFFCURVE",
"204 -71 OFFCURVE",
"204 -92 CURVE SMOOTH",
"204 -111 OFFCURVE",
"218 -124 OFFCURVE",
"233 -124 CURVE SMOOTH",
"239 -124 OFFCURVE",
"247 -124 OFFCURVE",
"253 -120 CURVE",
"253 -130 LINE SMOOTH",
"253 -164 OFFCURVE",
"240 -199 OFFCURVE",
"220 -225 CURVE"
);
}
);
width = 490;
}
);
leftKerningGroup = S;
note = Scommaaccent;
rightKerningGroup = S;
unicode = 0218;
},
{
glyphname = Sdotaccent;
layers = (
{
layerId = "3B510B5F-24E9-457B-9D94-D253B43C96E6";
name = Light;
paths = (
{
closed = 1;
nodes = (
"34 79 LINE",
"74 33 OFFCURVE",
"144 -10 OFFCURVE",
"247 -10 CURVE SMOOTH",
"368 -10 OFFCURVE",
"455 64 OFFCURVE",
"455 173 CURVE",
"454 402 OFFCURVE",
"77 381 OFFCURVE",
"77 558 CURVE SMOOTH",
"77 634 OFFCURVE",
"130 688 OFFCURVE",
"263 688 CURVE SMOOTH",
"324 688 OFFCURVE",
"369 670 OFFCURVE",
"400 638 CURVE",
"402 614 OFFCURVE",
"407 560 OFFCURVE",
"415 543 CURVE",
"424 543 LINE",
"430 641 LINE",
"391 686 OFFCURVE",
"332 710 OFFCURVE",
"252 710 CURVE SMOOTH",
"130 710 OFFCURVE",
"49 660 OFFCURVE",
"49 558 CURVE SMOOTH",
"49 356 OFFCURVE",
"427 385 OFFCURVE",
"427 167 CURVE SMOOTH",
"427 68 OFFCURVE",
"336 12 OFFCURVE",
"242 12 CURVE SMOOTH",
"155 12 OFFCURVE",
"98 47 OFFCURVE",
"64 92 CURVE",
"63 115 OFFCURVE",
"57 188 OFFCURVE",
"49 206 CURVE",
"40 206 LINE"
);
},
{
closed = 1;
nodes = (
"221 796 OFFCURVE",
"233 785 OFFCURVE",
"249 785 CURVE SMOOTH",
"265 785 OFFCURVE",
"277 796 OFFCURVE",
"277 815 CURVE SMOOTH",
"277 834 OFFCURVE",
"265 845 OFFCURVE",
"249 845 CURVE SMOOTH",
"233 845 OFFCURVE",
"221 834 OFFCURVE",
"221 815 CURVE SMOOTH"
);
}
);
width = 490;
}
);
leftKerningGroup = S;
note = Sdotaccent;
rightKerningGroup = S;
unicode = 1E60;
},
{
glyphname = Sdotbelow;
layers = (
{
layerId = "3B510B5F-24E9-457B-9D94-D253B43C96E6";
name = Light;
paths = (
{
closed = 1;
nodes = (
"34 79 LINE",
"74 33 OFFCURVE",
"144 -10 OFFCURVE",
"247 -10 CURVE SMOOTH",
"368 -10 OFFCURVE",
"455 64 OFFCURVE",
"455 173 CURVE",
"454 402 OFFCURVE",
"77 381 OFFCURVE",
"77 558 CURVE SMOOTH",
"77 634 OFFCURVE",
"130 688 OFFCURVE",
"263 688 CURVE SMOOTH",
"324 688 OFFCURVE",
"369 670 OFFCURVE",
"400 638 CURVE",
"402 614 OFFCURVE",
"407 560 OFFCURVE",
"415 543 CURVE",
"424 543 LINE",
"430 641 LINE",
"391 686 OFFCURVE",
"332 710 OFFCURVE",
"252 710 CURVE SMOOTH",
"130 710 OFFCURVE",
"49 660 OFFCURVE",
"49 558 CURVE SMOOTH",
"49 356 OFFCURVE",
"427 385 OFFCURVE",
"427 167 CURVE SMOOTH",
"427 68 OFFCURVE",
"336 12 OFFCURVE",
"242 12 CURVE SMOOTH",
"155 12 OFFCURVE",
"98 47 OFFCURVE",
"64 92 CURVE",
"63 115 OFFCURVE",
"57 188 OFFCURVE",
"49 206 CURVE",
"40 206 LINE"
);
},
{
closed = 1;
nodes = (
"205 -113 OFFCURVE",
"217 -124 OFFCURVE",
"233 -124 CURVE SMOOTH",
"249 -124 OFFCURVE",
"261 -113 OFFCURVE",
"261 -94 CURVE SMOOTH",
"261 -75 OFFCURVE",
"249 -64 OFFCURVE",
"233 -64 CURVE SMOOTH",
"217 -64 OFFCURVE",
"205 -75 OFFCURVE",
"205 -94 CURVE SMOOTH"
);
}
);
width = 490;
}
);
leftKerningGroup = S;
note = Sdotbelow;
rightKerningGroup = S;
unicode = 1E62;
},
{
glyphname = Germandbls;
layers = (
{
layerId = "3B510B5F-24E9-457B-9D94-D253B43C96E6";
name = Light;
paths = (
{
closed = 1;
nodes = (
"112 468 LINE SMOOTH",
"112 600 OFFCURVE",
"185 688 OFFCURVE",
"316 688 CURVE SMOOTH",
"412 688 OFFCURVE",
"475 629 OFFCURVE",
"504 561 CURVE",
"344 393 LINE",
"344 371 LINE",
"373 371 LINE SMOOTH",
"514 371 OFFCURVE",
"585 301 OFFCURVE",
"585 200 CURVE SMOOTH",
"585 89 OFFCURVE",
"514 12 OFFCURVE",
"386 12 CURVE SMOOTH",
"331 12 OFFCURVE",
"270 23 OFFCURVE",
"216 48 CURVE",
"216 23 LINE",
"262 1 OFFCURVE",
"321 -10 OFFCURVE",
"390 -10 CURVE SMOOTH",
"546 -10 OFFCURVE",
"613 87 OFFCURVE",
"613 200 CURVE SMOOTH",
"613 316 OFFCURVE",
"525 391 OFFCURVE",
"375 394 CURVE",
"529 556 LINE",
"507 629 OFFCURVE",
"437 710 OFFCURVE",
"321 710 CURVE SMOOTH",
"162 710 OFFCURVE",
"84 609 OFFCURVE",
"84 458 CURVE SMOOTH",
"84 21 LINE",
"55 18 OFFCURVE",
"26 13 OFFCURVE",
"2 5 CURVE",
"2 0 LINE",
"194 0 LINE",
"194 5 LINE",
"170 13 OFFCURVE",
"141 18 OFFCURVE",
"112 22 CURVE"
);
}
);
width = 643;
}
);
note = uni1E9E;
unicode = 1E9E;
},
{
glyphname = Schwa;
layers = (
{
layerId = "3B510B5F-24E9-457B-9D94-D253B43C96E6";
name = Light;
paths = (
{
closed = 1;
nodes = (
"187 710 OFFCURVE",
"113 679 OFFCURVE",
"71 644 CURVE",
"73 638 OFFCURVE",
"72 636 OFFCURVE",
"74 629 CURVE",
"123 662 OFFCURVE",
"194 685 OFFCURVE",
"271 685 CURVE SMOOTH",
"486 685 OFFCURVE",
"595 525 OFFCURVE",
"595 335 CURVE SMOOTH",
"595 165 OFFCURVE",
"513 12 OFFCURVE",
"305 12 CURVE SMOOTH",
"127 12 OFFCURVE",
"65 168 OFFCURVE",
"65 307 CURVE",
"601 307 LINE",
"601 331 LINE",
"40 331 LINE",
"40 311 LINE SMOOTH",
"40 138 OFFCURVE",
"122 -10 OFFCURVE",
"310 -10 CURVE SMOOTH",
"500 -10 OFFCURVE",
"623 111 OFFCURVE",
"623 344 CURVE SMOOTH",
"623 559 OFFCURVE",
"484 710 OFFCURVE",
"286 710 CURVE SMOOTH"
);
}
);
width = 663;
}
);
note = uni018F;
unicode = 018F;
},
{
glyphname = T;
lastChange = "2015-10-26 00:27:52 +0000";
layers = (
{
layerId = "3B510B5F-24E9-457B-9D94-D253B43C96E6";
name = Light;
paths = (
{
closed = 1;
nodes = (
"50 700 LINE",
"50 586 LINE",
"59 586 LINE",
"67 604 OFFCURVE",
"72 655 OFFCURVE",
"74 678 CURVE",
"286 678 LINE",
"286 21 LINE",
"257 18 OFFCURVE",
"228 13 OFFCURVE",
"204 5 CURVE",
"204 0 LINE",
"396 0 LINE",
"396 5 LINE",
"372 13 OFFCURVE",
"343 18 OFFCURVE",
"314 22 CURVE",
"314 678 LINE",
"526 678 LINE",
"528 655 OFFCURVE",
"533 604 OFFCURVE",
"541 586 CURVE",
"550 586 LINE",
"550 700 LINE"
);
}
);
width = 600;
}
);
leftKerningGroup = T;
note = T;
rightKerningGroup = T;
unicode = 0054;
},
{
glyphname = Tbar;
layers = (
{
layerId = "3B510B5F-24E9-457B-9D94-D253B43C96E6";
name = Light;
paths = (
{
closed = 1;
nodes = (
"50 700 LINE",
"50 586 LINE",
"59 586 LINE",
"67 604 OFFCURVE",
"72 655 OFFCURVE",
"74 678 CURVE",
"286 678 LINE",
"286 21 LINE",
"257 18 OFFCURVE",
"228 13 OFFCURVE",
"204 5 CURVE",
"204 0 LINE",
"396 0 LINE",
"396 5 LINE",
"372 13 OFFCURVE",
"343 18 OFFCURVE",
"314 22 CURVE",
"314 678 LINE",
"526 678 LINE",
"528 655 OFFCURVE",
"533 604 OFFCURVE",
"541 586 CURVE",
"550 586 LINE",
"550 700 LINE"
);
},
{
closed = 1;
nodes = (
"132 350 LINE",
"468 350 LINE",
"468 372 LINE",
"132 372 LINE"
);
}
);
width = 600;
}
);
leftKerningGroup = T;
note = Tbar;
rightKerningGroup = T;
unicode = 0166;
},
{
glyphname = Tcaron;
layers = (
{
layerId = "3B510B5F-24E9-457B-9D94-D253B43C96E6";
name = Light;
paths = (
{
closed = 1;
nodes = (
"50 700 LINE",
"50 586 LINE",
"59 586 LINE",
"67 604 OFFCURVE",
"72 655 OFFCURVE",
"74 678 CURVE",
"286 678 LINE",
"286 21 LINE",
"257 18 OFFCURVE",
"228 13 OFFCURVE",
"204 5 CURVE",
"204 0 LINE",
"396 0 LINE",
"396 5 LINE",
"372 13 OFFCURVE",
"343 18 OFFCURVE",
"314 22 CURVE",
"314 678 LINE",
"526 678 LINE",
"528 655 OFFCURVE",
"533 604 OFFCURVE",
"541 586 CURVE",
"550 586 LINE",
"550 700 LINE"
);
},
{
closed = 1;
nodes = (
"297 819 LINE",
"268 854 OFFCURVE",
"233 884 OFFCURVE",
"199 908 CURVE",
"186 890 LINE",
"222 864 OFFCURVE",
"259 833 OFFCURVE",
"293 787 CURVE",
"307 787 LINE",
"341 833 OFFCURVE",
"378 864 OFFCURVE",
"414 890 CURVE",
"401 908 LINE",
"367 884 OFFCURVE",
"332 854 OFFCURVE",
"303 819 CURVE"
);
}
);
width = 600;
}
);
leftKerningGroup = T;
note = Tcaron;
rightKerningGroup = T;
unicode = 0164;
},
{
glyphname = Tcedilla;
layers = (
{
layerId = "3B510B5F-24E9-457B-9D94-D253B43C96E6";
name = Light;
paths = (
{
closed = 1;
nodes = (
"50 700 LINE",
"50 586 LINE",
"59 586 LINE",
"67 604 OFFCURVE",
"72 655 OFFCURVE",
"74 678 CURVE",
"286 678 LINE",
"286 21 LINE",
"257 18 OFFCURVE",
"228 13 OFFCURVE",
"204 5 CURVE",
"204 0 LINE",
"396 0 LINE",
"396 5 LINE",
"372 13 OFFCURVE",
"343 18 OFFCURVE",
"314 22 CURVE",
"314 678 LINE",
"526 678 LINE",
"528 655 OFFCURVE",
"533 604 OFFCURVE",
"541 586 CURVE",
"550 586 LINE",
"550 700 LINE"
);
},
{
closed = 1;
nodes = (
"376 -82 OFFCURVE",
"343 -67 OFFCURVE",
"307 -67 CURVE SMOOTH",
"298 -67 OFFCURVE",
"290 -67 OFFCURVE",
"282 -69 CURVE",
"313 0 LINE",
"289 0 LINE",
"256 -66 LINE",
"275 -89 LINE",
"282 -88 OFFCURVE",
"291 -87 OFFCURVE",
"300 -87 CURVE SMOOTH",
"324 -87 OFFCURVE",
"351 -95 OFFCURVE",
"351 -117 CURVE SMOOTH",
"351 -151 OFFCURVE",
"324 -166 OFFCURVE",
"283 -166 CURVE SMOOTH",
"269 -166 OFFCURVE",
"252 -165 OFFCURVE",
"235 -162 CURVE",
"226 -180 LINE",
"244 -184 OFFCURVE",
"263 -186 OFFCURVE",
"280 -186 CURVE SMOOTH",
"335 -186 OFFCURVE",
"376 -164 OFFCURVE",
"376 -118 CURVE SMOOTH"
);
}
);
width = 600;
}
);
leftKerningGroup = T;
note = Tcedilla;
rightKerningGroup = T;
unicode = 0162;
},
{
glyphname = Tcommaaccent;
layers = (
{
layerId = "3B510B5F-24E9-457B-9D94-D253B43C96E6";
name = Light;
paths = (
{
closed = 1;
nodes = (
"50 700 LINE",
"50 586 LINE",
"59 586 LINE",
"67 604 OFFCURVE",
"72 655 OFFCURVE",
"74 678 CURVE",
"286 678 LINE",
"286 21 LINE",
"257 18 OFFCURVE",
"228 13 OFFCURVE",
"204 5 CURVE",
"204 0 LINE",
"396 0 LINE",
"396 5 LINE",
"372 13 OFFCURVE",
"343 18 OFFCURVE",
"314 22 CURVE",
"314 678 LINE",
"526 678 LINE",
"528 655 OFFCURVE",
"533 604 OFFCURVE",
"541 586 CURVE",
"550 586 LINE",
"550 700 LINE"
);
},
{
closed = 1;
nodes = (
"292 -235 LINE",
"321 -206 OFFCURVE",
"337 -145 OFFCURVE",
"337 -111 CURVE SMOOTH",
"337 -78 OFFCURVE",
"326 -56 OFFCURVE",
"295 -56 CURVE SMOOTH",
"278 -56 OFFCURVE",
"262 -65 OFFCURVE",
"262 -88 CURVE SMOOTH",
"262 -104 OFFCURVE",
"273 -118 OFFCURVE",
"288 -118 CURVE SMOOTH",
"294 -118 OFFCURVE",
"303 -118 OFFCURVE",
"309 -114 CURVE",
"309 -124 LINE SMOOTH",
"309 -158 OFFCURVE",
"297 -196 OFFCURVE",
"277 -222 CURVE"
);
}
);
width = 600;
}
);
leftKerningGroup = T;
note = Tcommaaccent;
rightKerningGroup = T;
unicode = 021A;
},
{
glyphname = Tdotbelow;
layers = (
{
layerId = "3B510B5F-24E9-457B-9D94-D253B43C96E6";
name = Light;
paths = (
{
closed = 1;
nodes = (
"50 700 LINE",
"50 586 LINE",
"59 586 LINE",
"67 604 OFFCURVE",
"72 655 OFFCURVE",
"74 678 CURVE",
"286 678 LINE",
"286 21 LINE",
"257 18 OFFCURVE",
"228 13 OFFCURVE",
"204 5 CURVE",
"204 0 LINE",
"396 0 LINE",
"396 5 LINE",
"372 13 OFFCURVE",
"343 18 OFFCURVE",
"314 22 CURVE",
"314 678 LINE",
"526 678 LINE",
"528 655 OFFCURVE",
"533 604 OFFCURVE",
"541 586 CURVE",
"550 586 LINE",
"550 700 LINE"
);
},
{
closed = 1;
nodes = (
"272 -113 OFFCURVE",
"284 -124 OFFCURVE",
"300 -124 CURVE SMOOTH",
"316 -124 OFFCURVE",
"328 -113 OFFCURVE",
"328 -94 CURVE SMOOTH",
"328 -75 OFFCURVE",
"316 -64 OFFCURVE",
"300 -64 CURVE SMOOTH",
"284 -64 OFFCURVE",
"272 -75 OFFCURVE",
"272 -94 CURVE SMOOTH"
);
}
);
width = 600;
}
);
leftKerningGroup = T;
note = Tdotbelow;
rightKerningGroup = T;
unicode = 1E6C;
},
{
glyphname = Tlinebelow;
layers = (
{
layerId = "3B510B5F-24E9-457B-9D94-D253B43C96E6";
name = Light;
paths = (
{
closed = 1;
nodes = (
"50 700 LINE",
"50 586 LINE",
"59 586 LINE",
"67 604 OFFCURVE",
"72 655 OFFCURVE",
"74 678 CURVE",
"286 678 LINE",
"286 21 LINE",
"257 18 OFFCURVE",
"228 13 OFFCURVE",
"204 5 CURVE",
"204 0 LINE",
"396 0 LINE",
"396 5 LINE",
"372 13 OFFCURVE",
"343 18 OFFCURVE",
"314 22 CURVE",
"314 678 LINE",
"526 678 LINE",
"528 655 OFFCURVE",
"533 604 OFFCURVE",
"541 586 CURVE",
"550 586 LINE",
"550 700 LINE"
);
},
{
closed = 1;
nodes = (
"162 -98 LINE",
"438 -98 LINE",
"438 -76 LINE",
"162 -76 LINE"
);
}
);
width = 600;
}
);
leftKerningGroup = T;
note = Tlinebelow;
rightKerningGroup = T;
unicode = 1E6E;
},
{
glyphname = U;
layers = (
{
layerId = "3B510B5F-24E9-457B-9D94-D253B43C96E6";
name = Light;
paths = (
{
closed = 1;
nodes = (
"521 -10 OFFCURVE",
"606 51 OFFCURVE",
"606 207 CURVE SMOOTH",
"606 678 LINE",
"635 682 OFFCURVE",
"665 687 OFFCURVE",
"689 695 CURVE",
"689 700 LINE",
"497 700 LINE",
"497 695 LINE",
"521 687 OFFCURVE",
"551 682 OFFCURVE",
"580 679 CURVE",
"580 200 LINE SMOOTH",
"580 60 OFFCURVE",
"493 12 OFFCURVE",
"375 12 CURVE SMOOTH",
"251 12 OFFCURVE",
"160 56 OFFCURVE",
"160 200 CURVE SMOOTH",
"160 679 LINE",
"189 682 OFFCURVE",
"218 687 OFFCURVE",
"242 695 CURVE",
"242 700 LINE",
"50 700 LINE",
"50 695 LINE",
"74 687 OFFCURVE",
"103 682 OFFCURVE",
"132 678 CURVE",
"132 207 LINE SMOOTH",
"132 51 OFFCURVE",
"224 -10 OFFCURVE",
"368 -10 CURVE SMOOTH"
);
}
);
width = 739;
}
);
leftKerningGroup = U;
note = U;
rightKerningGroup = U;
unicode = 0055;
},
{
glyphname = Uacute;
layers = (
{
layerId = "3B510B5F-24E9-457B-9D94-D253B43C96E6";
name = Light;
paths = (
{
closed = 1;
nodes = (
"521 -10 OFFCURVE",
"606 51 OFFCURVE",
"606 207 CURVE SMOOTH",
"606 678 LINE",
"635 682 OFFCURVE",
"665 687 OFFCURVE",
"689 695 CURVE",
"689 700 LINE",
"497 700 LINE",
"497 695 LINE",
"521 687 OFFCURVE",
"551 682 OFFCURVE",
"580 679 CURVE",
"580 200 LINE SMOOTH",
"580 60 OFFCURVE",
"493 12 OFFCURVE",
"375 12 CURVE SMOOTH",
"251 12 OFFCURVE",
"160 56 OFFCURVE",
"160 200 CURVE SMOOTH",
"160 679 LINE",
"189 682 OFFCURVE",
"218 687 OFFCURVE",
"242 695 CURVE",
"242 700 LINE",
"50 700 LINE",
"50 695 LINE",
"74 687 OFFCURVE",
"103 682 OFFCURVE",
"132 678 CURVE",
"132 207 LINE SMOOTH",
"132 51 OFFCURVE",
"224 -10 OFFCURVE",
"368 -10 CURVE SMOOTH"
);
},
{
closed = 1;
nodes = (
"427 859 LINE SMOOTH",
"438 865 OFFCURVE",
"443 874 OFFCURVE",
"443 882 CURVE SMOOTH",
"443 891 OFFCURVE",
"436 896 OFFCURVE",
"429 896 CURVE SMOOTH",
"419 896 OFFCURVE",
"410 891 OFFCURVE",
"403 884 CURVE",
"296 797 LINE",
"303 787 LINE"
);
}
);
width = 739;
}
);
leftKerningGroup = U;
note = Uacute;
rightKerningGroup = U;
unicode = 00DA;
},
{
glyphname = Ubreve;
layers = (
{
layerId = "3B510B5F-24E9-457B-9D94-D253B43C96E6";
name = Light;
paths = (
{
closed = 1;
nodes = (
"521 -10 OFFCURVE",
"606 51 OFFCURVE",
"606 207 CURVE SMOOTH",
"606 678 LINE",
"635 682 OFFCURVE",
"665 687 OFFCURVE",
"689 695 CURVE",
"689 700 LINE",
"497 700 LINE",
"497 695 LINE",
"521 687 OFFCURVE",
"551 682 OFFCURVE",
"580 679 CURVE",
"580 200 LINE SMOOTH",
"580 60 OFFCURVE",
"493 12 OFFCURVE",
"375 12 CURVE SMOOTH",
"251 12 OFFCURVE",
"160 56 OFFCURVE",
"160 200 CURVE SMOOTH",
"160 679 LINE",
"189 682 OFFCURVE",
"218 687 OFFCURVE",
"242 695 CURVE",
"242 700 LINE",
"50 700 LINE",
"50 695 LINE",
"74 687 OFFCURVE",
"103 682 OFFCURVE",
"132 678 CURVE",
"132 207 LINE SMOOTH",
"132 51 OFFCURVE",
"224 -10 OFFCURVE",
"368 -10 CURVE SMOOTH"
);
},
{
closed = 1;
nodes = (
"440 771 OFFCURVE",
"493 806 OFFCURVE",
"499 884 CURVE",
"473 884 LINE",
"464 805 OFFCURVE",
"410 793 OFFCURVE",
"369 793 CURVE SMOOTH",
"328 793 OFFCURVE",
"274 805 OFFCURVE",
"265 884 CURVE",
"239 884 LINE",
"245 806 OFFCURVE",
"298 771 OFFCURVE",
"369 771 CURVE SMOOTH"
);
}
);
width = 739;
}
);
leftKerningGroup = U;
note = Ubreve;
rightKerningGroup = U;
unicode = 016C;
},
{
glyphname = Ucaron;
layers = (
{
layerId = "3B510B5F-24E9-457B-9D94-D253B43C96E6";
name = Light;
paths = (
{
closed = 1;
nodes = (
"521 -10 OFFCURVE",
"606 51 OFFCURVE",
"606 207 CURVE SMOOTH",
"606 678 LINE",
"635 682 OFFCURVE",
"665 687 OFFCURVE",
"689 695 CURVE",
"689 700 LINE",
"497 700 LINE",
"497 695 LINE",
"521 687 OFFCURVE",
"551 682 OFFCURVE",
"580 679 CURVE",
"580 200 LINE SMOOTH",
"580 60 OFFCURVE",
"493 12 OFFCURVE",
"375 12 CURVE SMOOTH",
"251 12 OFFCURVE",
"160 56 OFFCURVE",
"160 200 CURVE SMOOTH",
"160 679 LINE",
"189 682 OFFCURVE",
"218 687 OFFCURVE",
"242 695 CURVE",
"242 700 LINE",
"50 700 LINE",
"50 695 LINE",
"74 687 OFFCURVE",
"103 682 OFFCURVE",
"132 678 CURVE",
"132 207 LINE SMOOTH",
"132 51 OFFCURVE",
"224 -10 OFFCURVE",
"368 -10 CURVE SMOOTH"
);
},
{
closed = 1;
nodes = (
"364 819 LINE",
"335 854 OFFCURVE",
"300 884 OFFCURVE",
"266 908 CURVE",
"253 890 LINE",
"289 864 OFFCURVE",
"326 833 OFFCURVE",
"360 787 CURVE",
"374 787 LINE",
"408 833 OFFCURVE",
"445 864 OFFCURVE",
"481 890 CURVE",
"468 908 LINE",
"434 884 OFFCURVE",
"399 854 OFFCURVE",
"370 819 CURVE"
);
}
);
width = 739;
}
);
leftKerningGroup = U;
note = Ucaron;
rightKerningGroup = U;
unicode = 01D3;
},
{
glyphname = Ucircumflex;
layers = (
{
layerId = "3B510B5F-24E9-457B-9D94-D253B43C96E6";
name = Light;
paths = (
{
closed = 1;
nodes = (
"521 -10 OFFCURVE",
"606 51 OFFCURVE",
"606 207 CURVE SMOOTH",
"606 678 LINE",
"635 682 OFFCURVE",
"665 687 OFFCURVE",
"689 695 CURVE",
"689 700 LINE",
"497 700 LINE",
"497 695 LINE",
"521 687 OFFCURVE",
"551 682 OFFCURVE",
"580 679 CURVE",
"580 200 LINE SMOOTH",
"580 60 OFFCURVE",
"493 12 OFFCURVE",
"375 12 CURVE SMOOTH",
"251 12 OFFCURVE",
"160 56 OFFCURVE",
"160 200 CURVE SMOOTH",
"160 679 LINE",
"189 682 OFFCURVE",
"218 687 OFFCURVE",
"242 695 CURVE",
"242 700 LINE",
"50 700 LINE",
"50 695 LINE",
"74 687 OFFCURVE",
"103 682 OFFCURVE",
"132 678 CURVE",
"132 207 LINE SMOOTH",
"132 51 OFFCURVE",
"224 -10 OFFCURVE",
"368 -10 CURVE SMOOTH"
);
},
{
closed = 1;
nodes = (
"372 866 LINE",
"401 831 OFFCURVE",
"436 801 OFFCURVE",
"470 777 CURVE",
"483 795 LINE",
"447 821 OFFCURVE",
"410 852 OFFCURVE",
"376 898 CURVE",
"362 898 LINE",
"328 852 OFFCURVE",
"291 821 OFFCURVE",
"255 795 CURVE",
"268 777 LINE",
"302 801 OFFCURVE",
"337 831 OFFCURVE",
"366 866 CURVE"
);
}
);
width = 739;
}
);
leftKerningGroup = U;
note = Ucircumflex;
rightKerningGroup = U;
unicode = 00DB;
},
{
glyphname = Udieresis;
layers = (
{
layerId = "3B510B5F-24E9-457B-9D94-D253B43C96E6";
name = Light;
paths = (
{
closed = 1;
nodes = (
"521 -10 OFFCURVE",
"606 51 OFFCURVE",
"606 207 CURVE SMOOTH",
"606 678 LINE",
"635 682 OFFCURVE",
"665 687 OFFCURVE",
"689 695 CURVE",
"689 700 LINE",
"497 700 LINE",
"497 695 LINE",
"521 687 OFFCURVE",
"551 682 OFFCURVE",
"580 679 CURVE",
"580 200 LINE SMOOTH",
"580 60 OFFCURVE",
"493 12 OFFCURVE",
"375 12 CURVE SMOOTH",
"251 12 OFFCURVE",
"160 56 OFFCURVE",
"160 200 CURVE SMOOTH",
"160 679 LINE",
"189 682 OFFCURVE",
"218 687 OFFCURVE",
"242 695 CURVE",
"242 700 LINE",
"50 700 LINE",
"50 695 LINE",
"74 687 OFFCURVE",
"103 682 OFFCURVE",
"132 678 CURVE",
"132 207 LINE SMOOTH",
"132 51 OFFCURVE",
"224 -10 OFFCURVE",
"368 -10 CURVE SMOOTH"
);
},
{
closed = 1;
nodes = (
"241 796 OFFCURVE",
"253 785 OFFCURVE",
"269 785 CURVE SMOOTH",
"285 785 OFFCURVE",
"297 796 OFFCURVE",
"297 815 CURVE SMOOTH",
"297 834 OFFCURVE",
"285 845 OFFCURVE",
"269 845 CURVE SMOOTH",
"253 845 OFFCURVE",
"241 834 OFFCURVE",
"241 815 CURVE SMOOTH"
);
},
{
closed = 1;
nodes = (
"441 796 OFFCURVE",
"453 785 OFFCURVE",
"469 785 CURVE SMOOTH",
"485 785 OFFCURVE",
"497 796 OFFCURVE",
"497 815 CURVE SMOOTH",
"497 834 OFFCURVE",
"485 845 OFFCURVE",
"469 845 CURVE SMOOTH",
"453 845 OFFCURVE",
"441 834 OFFCURVE",
"441 815 CURVE SMOOTH"
);
}
);
width = 739;
}
);
leftKerningGroup = U;
note = Udieresis;
rightKerningGroup = U;
unicode = 00DC;
},
{
glyphname = Udieresisacute;
layers = (
{
layerId = "3B510B5F-24E9-457B-9D94-D253B43C96E6";
name = Light;
paths = (
{
closed = 1;
nodes = (
"521 -10 OFFCURVE",
"606 51 OFFCURVE",
"606 207 CURVE SMOOTH",
"606 678 LINE",
"635 682 OFFCURVE",
"665 687 OFFCURVE",
"689 695 CURVE",
"689 700 LINE",
"497 700 LINE",
"497 695 LINE",
"521 687 OFFCURVE",
"551 682 OFFCURVE",
"580 679 CURVE",
"580 200 LINE SMOOTH",
"580 60 OFFCURVE",
"493 12 OFFCURVE",
"375 12 CURVE SMOOTH",
"251 12 OFFCURVE",
"160 56 OFFCURVE",
"160 200 CURVE SMOOTH",
"160 679 LINE",
"189 682 OFFCURVE",
"218 687 OFFCURVE",
"242 695 CURVE",
"242 700 LINE",
"50 700 LINE",
"50 695 LINE",
"74 687 OFFCURVE",
"103 682 OFFCURVE",
"132 678 CURVE",
"132 207 LINE SMOOTH",
"132 51 OFFCURVE",
"224 -10 OFFCURVE",
"368 -10 CURVE SMOOTH"
);
},
{
closed = 1;
nodes = (
"246 796 OFFCURVE",
"258 785 OFFCURVE",
"274 785 CURVE SMOOTH",
"290 785 OFFCURVE",
"302 796 OFFCURVE",
"302 815 CURVE SMOOTH",
"302 834 OFFCURVE",
"290 845 OFFCURVE",
"274 845 CURVE SMOOTH",
"258 845 OFFCURVE",
"246 834 OFFCURVE",
"246 815 CURVE SMOOTH"
);
},
{
closed = 1;
nodes = (
"446 796 OFFCURVE",
"458 785 OFFCURVE",
"474 785 CURVE SMOOTH",
"490 785 OFFCURVE",
"502 796 OFFCURVE",
"502 815 CURVE SMOOTH",
"502 834 OFFCURVE",
"490 845 OFFCURVE",
"474 845 CURVE SMOOTH",
"458 845 OFFCURVE",
"446 834 OFFCURVE",
"446 815 CURVE SMOOTH"
);
},
{
closed = 1;
nodes = (
"484 956 LINE SMOOTH",
"495 962 OFFCURVE",
"500 971 OFFCURVE",
"500 979 CURVE SMOOTH",
"500 988 OFFCURVE",
"493 993 OFFCURVE",
"486 993 CURVE SMOOTH",
"476 993 OFFCURVE",
"468 987 OFFCURVE",
"460 981 CURVE",
"353 894 LINE",
"360 884 LINE"
);
}
);
width = 739;
}
);
leftKerningGroup = U;
note = Udieresisacute;
rightKerningGroup = U;
unicode = 01D7;
},
{
glyphname = Udieresiscaron;
layers = (
{
layerId = "3B510B5F-24E9-457B-9D94-D253B43C96E6";
name = Light;
paths = (
{
closed = 1;
nodes = (
"521 -10 OFFCURVE",
"606 51 OFFCURVE",
"606 207 CURVE SMOOTH",
"606 678 LINE",
"635 682 OFFCURVE",
"665 687 OFFCURVE",
"689 695 CURVE",
"689 700 LINE",
"497 700 LINE",
"497 695 LINE",
"521 687 OFFCURVE",
"551 682 OFFCURVE",
"580 679 CURVE",
"580 200 LINE SMOOTH",
"580 60 OFFCURVE",
"493 12 OFFCURVE",
"375 12 CURVE SMOOTH",
"251 12 OFFCURVE",
"160 56 OFFCURVE",
"160 200 CURVE SMOOTH",
"160 679 LINE",
"189 682 OFFCURVE",
"218 687 OFFCURVE",
"242 695 CURVE",
"242 700 LINE",
"50 700 LINE",
"50 695 LINE",
"74 687 OFFCURVE",
"103 682 OFFCURVE",
"132 678 CURVE",
"132 207 LINE SMOOTH",
"132 51 OFFCURVE",
"224 -10 OFFCURVE",
"368 -10 CURVE SMOOTH"
);
},
{
closed = 1;
nodes = (
"290 785 OFFCURVE",
"302 796 OFFCURVE",
"302 815 CURVE SMOOTH",
"302 834 OFFCURVE",
"290 845 OFFCURVE",
"274 845 CURVE SMOOTH",
"258 845 OFFCURVE",
"246 834 OFFCURVE",
"246 815 CURVE SMOOTH",
"246 796 OFFCURVE",
"258 785 OFFCURVE",
"274 785 CURVE SMOOTH"
);
},
{
closed = 1;
nodes = (
"490 785 OFFCURVE",
"502 796 OFFCURVE",
"502 815 CURVE SMOOTH",
"502 834 OFFCURVE",
"490 845 OFFCURVE",
"474 845 CURVE SMOOTH",
"458 845 OFFCURVE",
"446 834 OFFCURVE",
"446 815 CURVE SMOOTH",
"446 796 OFFCURVE",
"458 785 OFFCURVE",
"474 785 CURVE SMOOTH"
);
},
{
closed = 1;
nodes = (
"475 1000 LINE",
"441 976 OFFCURVE",
"406 946 OFFCURVE",
"377 911 CURVE",
"371 911 LINE",
"342 946 OFFCURVE",
"307 976 OFFCURVE",
"273 1000 CURVE",
"260 982 LINE",
"296 956 OFFCURVE",
"333 925 OFFCURVE",
"367 879 CURVE",
"381 879 LINE",
"415 925 OFFCURVE",
"452 956 OFFCURVE",
"488 982 CURVE"
);
}
);
width = 739;
}
);
leftKerningGroup = U;
note = Udieresiscaron;
rightKerningGroup = U;
unicode = 01D9;
},
{
glyphname = Udieresisgrave;
layers = (
{
layerId = "3B510B5F-24E9-457B-9D94-D253B43C96E6";
name = Light;
paths = (
{
closed = 1;
nodes = (
"521 -10 OFFCURVE",
"606 51 OFFCURVE",
"606 207 CURVE SMOOTH",
"606 678 LINE",
"635 682 OFFCURVE",
"665 687 OFFCURVE",
"689 695 CURVE",
"689 700 LINE",
"497 700 LINE",
"497 695 LINE",
"521 687 OFFCURVE",
"551 682 OFFCURVE",
"580 679 CURVE",
"580 200 LINE SMOOTH",
"580 60 OFFCURVE",
"493 12 OFFCURVE",
"375 12 CURVE SMOOTH",
"251 12 OFFCURVE",
"160 56 OFFCURVE",
"160 200 CURVE SMOOTH",
"160 679 LINE",
"189 682 OFFCURVE",
"218 687 OFFCURVE",
"242 695 CURVE",
"242 700 LINE",
"50 700 LINE",
"50 695 LINE",
"74 687 OFFCURVE",
"103 682 OFFCURVE",
"132 678 CURVE",
"132 207 LINE SMOOTH",
"132 51 OFFCURVE",
"224 -10 OFFCURVE",
"368 -10 CURVE SMOOTH"
);
},
{
closed = 1;
nodes = (
"246 796 OFFCURVE",
"258 785 OFFCURVE",
"274 785 CURVE SMOOTH",
"290 785 OFFCURVE",
"302 796 OFFCURVE",
"302 815 CURVE SMOOTH",
"302 834 OFFCURVE",
"290 845 OFFCURVE",
"274 845 CURVE SMOOTH",
"258 845 OFFCURVE",
"246 834 OFFCURVE",
"246 815 CURVE SMOOTH"
);
},
{
closed = 1;
nodes = (
"446 796 OFFCURVE",
"458 785 OFFCURVE",
"474 785 CURVE SMOOTH",
"490 785 OFFCURVE",
"502 796 OFFCURVE",
"502 815 CURVE SMOOTH",
"502 834 OFFCURVE",
"490 845 OFFCURVE",
"474 845 CURVE SMOOTH",
"458 845 OFFCURVE",
"446 834 OFFCURVE",
"446 815 CURVE SMOOTH"
);
},
{
closed = 1;
nodes = (
"391 884 LINE",
"398 894 LINE",
"291 981 LINE",
"283 987 OFFCURVE",
"275 993 OFFCURVE",
"265 993 CURVE SMOOTH",
"258 993 OFFCURVE",
"251 988 OFFCURVE",
"251 979 CURVE SMOOTH",
"251 971 OFFCURVE",
"256 962 OFFCURVE",
"267 956 CURVE SMOOTH"
);
}
);
width = 739;
}
);
leftKerningGroup = U;
note = Udieresisgrave;
rightKerningGroup = U;
unicode = 01DB;
},
{
glyphname = Udieresismacron;
layers = (
{
layerId = "3B510B5F-24E9-457B-9D94-D253B43C96E6";
name = Light;
paths = (
{
closed = 1;
nodes = (
"246 913 LINE",
"502 913 LINE",
"502 935 LINE",
"246 935 LINE"
);
},
{
closed = 1;
nodes = (
"521 -10 OFFCURVE",
"606 51 OFFCURVE",
"606 207 CURVE SMOOTH",
"606 678 LINE",
"635 682 OFFCURVE",
"665 687 OFFCURVE",
"689 695 CURVE",
"689 700 LINE",
"497 700 LINE",
"497 695 LINE",
"521 687 OFFCURVE",
"551 682 OFFCURVE",
"580 679 CURVE",
"580 200 LINE SMOOTH",
"580 60 OFFCURVE",
"493 12 OFFCURVE",
"375 12 CURVE SMOOTH",
"251 12 OFFCURVE",
"160 56 OFFCURVE",
"160 200 CURVE SMOOTH",
"160 679 LINE",
"189 682 OFFCURVE",
"218 687 OFFCURVE",
"242 695 CURVE",
"242 700 LINE",
"50 700 LINE",
"50 695 LINE",
"74 687 OFFCURVE",
"103 682 OFFCURVE",
"132 678 CURVE",
"132 207 LINE SMOOTH",
"132 51 OFFCURVE",
"224 -10 OFFCURVE",
"368 -10 CURVE SMOOTH"
);
},
{
closed = 1;
nodes = (
"246 796 OFFCURVE",
"258 785 OFFCURVE",
"274 785 CURVE SMOOTH",
"290 785 OFFCURVE",
"302 796 OFFCURVE",
"302 815 CURVE SMOOTH",
"302 834 OFFCURVE",
"290 845 OFFCURVE",
"274 845 CURVE SMOOTH",
"258 845 OFFCURVE",
"246 834 OFFCURVE",
"246 815 CURVE SMOOTH"
);
},
{
closed = 1;
nodes = (
"446 796 OFFCURVE",
"458 785 OFFCURVE",
"474 785 CURVE SMOOTH",
"490 785 OFFCURVE",
"502 796 OFFCURVE",
"502 815 CURVE SMOOTH",
"502 834 OFFCURVE",
"490 845 OFFCURVE",
"474 845 CURVE SMOOTH",
"458 845 OFFCURVE",
"446 834 OFFCURVE",
"446 815 CURVE SMOOTH"
);
}
);
width = 739;
}
);
leftKerningGroup = U;
note = Udieresismacron;
rightKerningGroup = U;
unicode = 01D5;
},
{
glyphname = Udotbelow;
layers = (
{
layerId = "3B510B5F-24E9-457B-9D94-D253B43C96E6";
name = Light;
paths = (
{
closed = 1;
nodes = (
"521 -10 OFFCURVE",
"606 51 OFFCURVE",
"606 207 CURVE SMOOTH",
"606 678 LINE",
"635 682 OFFCURVE",
"665 687 OFFCURVE",
"689 695 CURVE",
"689 700 LINE",
"497 700 LINE",
"497 695 LINE",
"521 687 OFFCURVE",
"551 682 OFFCURVE",
"580 679 CURVE",
"580 200 LINE SMOOTH",
"580 60 OFFCURVE",
"493 12 OFFCURVE",
"375 12 CURVE SMOOTH",
"251 12 OFFCURVE",
"160 56 OFFCURVE",
"160 200 CURVE SMOOTH",
"160 679 LINE",
"189 682 OFFCURVE",
"218 687 OFFCURVE",
"242 695 CURVE",
"242 700 LINE",
"50 700 LINE",
"50 695 LINE",
"74 687 OFFCURVE",
"103 682 OFFCURVE",
"132 678 CURVE",
"132 207 LINE SMOOTH",
"132 51 OFFCURVE",
"224 -10 OFFCURVE",
"368 -10 CURVE SMOOTH"
);
},
{
closed = 1;
nodes = (
"341 -113 OFFCURVE",
"353 -124 OFFCURVE",
"369 -124 CURVE SMOOTH",
"385 -124 OFFCURVE",
"397 -113 OFFCURVE",
"397 -94 CURVE SMOOTH",
"397 -75 OFFCURVE",
"385 -64 OFFCURVE",
"369 -64 CURVE SMOOTH",
"353 -64 OFFCURVE",
"341 -75 OFFCURVE",
"341 -94 CURVE SMOOTH"
);
}
);
width = 739;
}
);
leftKerningGroup = U;
note = Udotbelow;
rightKerningGroup = U;
unicode = 1EE4;
},
{
glyphname = Ugrave;
layers = (
{
layerId = "3B510B5F-24E9-457B-9D94-D253B43C96E6";
name = Light;
paths = (
{
closed = 1;
nodes = (
"521 -10 OFFCURVE",
"606 51 OFFCURVE",
"606 207 CURVE SMOOTH",
"606 678 LINE",
"635 682 OFFCURVE",
"665 687 OFFCURVE",
"689 695 CURVE",
"689 700 LINE",
"497 700 LINE",
"497 695 LINE",
"521 687 OFFCURVE",
"551 682 OFFCURVE",
"580 679 CURVE",
"580 200 LINE SMOOTH",
"580 60 OFFCURVE",
"493 12 OFFCURVE",
"375 12 CURVE SMOOTH",
"251 12 OFFCURVE",
"160 56 OFFCURVE",
"160 200 CURVE SMOOTH",
"160 679 LINE",
"189 682 OFFCURVE",
"218 687 OFFCURVE",
"242 695 CURVE",
"242 700 LINE",
"50 700 LINE",
"50 695 LINE",
"74 687 OFFCURVE",
"103 682 OFFCURVE",
"132 678 CURVE",
"132 207 LINE SMOOTH",
"132 51 OFFCURVE",
"224 -10 OFFCURVE",
"368 -10 CURVE SMOOTH"
);
},
{
closed = 1;
nodes = (
"436 787 LINE",
"443 797 LINE",
"336 884 LINE",
"329 891 OFFCURVE",
"320 896 OFFCURVE",
"310 896 CURVE SMOOTH",
"303 896 OFFCURVE",
"296 891 OFFCURVE",
"296 882 CURVE SMOOTH",
"296 874 OFFCURVE",
"301 865 OFFCURVE",
"312 859 CURVE SMOOTH"
);
}
);
width = 739;
}
);
leftKerningGroup = U;
note = Ugrave;
rightKerningGroup = U;
unicode = 00D9;
},
{
glyphname = Uhookabove;
layers = (
{
layerId = "3B510B5F-24E9-457B-9D94-D253B43C96E6";
name = Light;
paths = (
{
closed = 1;
nodes = (
"521 -10 OFFCURVE",
"606 51 OFFCURVE",
"606 207 CURVE SMOOTH",
"606 678 LINE",
"635 682 OFFCURVE",
"665 687 OFFCURVE",
"689 695 CURVE",
"689 700 LINE",
"497 700 LINE",
"497 695 LINE",
"521 687 OFFCURVE",
"551 682 OFFCURVE",
"580 679 CURVE",
"580 200 LINE SMOOTH",
"580 60 OFFCURVE",
"493 12 OFFCURVE",
"375 12 CURVE SMOOTH",
"251 12 OFFCURVE",
"160 56 OFFCURVE",
"160 200 CURVE SMOOTH",
"160 679 LINE",
"189 682 OFFCURVE",
"218 687 OFFCURVE",
"242 695 CURVE",
"242 700 LINE",
"50 700 LINE",
"50 695 LINE",
"74 687 OFFCURVE",
"103 682 OFFCURVE",
"132 678 CURVE",
"132 207 LINE SMOOTH",
"132 51 OFFCURVE",
"224 -10 OFFCURVE",
"368 -10 CURVE SMOOTH"
);
},
{
closed = 1;
nodes = (
"457 947 OFFCURVE",
"422 969 OFFCURVE",
"382 969 CURVE SMOOTH",
"355 969 OFFCURVE",
"330 961 OFFCURVE",
"314 953 CURVE",
"321 932 LINE",
"340 943 OFFCURVE",
"360 948 OFFCURVE",
"376 948 CURVE SMOOTH",
"413 948 OFFCURVE",
"431 930 OFFCURVE",
"431 905 CURVE SMOOTH",
"431 880 OFFCURVE",
"416 853 OFFCURVE",
"364 853 CURVE SMOOTH",
"353 853 LINE",
"358 777 LINE",
"374 777 LINE",
"385 836 LINE",
"435 841 OFFCURVE",
"457 868 OFFCURVE",
"457 903 CURVE SMOOTH"
);
}
);
width = 739;
}
);
leftKerningGroup = U;
note = Uhookabove;
rightKerningGroup = U;
unicode = 1EE6;
},
{
glyphname = Uhorn;
layers = (
{
layerId = "3B510B5F-24E9-457B-9D94-D253B43C96E6";
name = Light;
paths = (
{
closed = 1;
nodes = (
"521 -10 OFFCURVE",
"606 51 OFFCURVE",
"606 207 CURVE SMOOTH",
"606 678 LINE",
"654 681 OFFCURVE",
"739 693 OFFCURVE",
"739 757 CURVE SMOOTH",
"739 788 OFFCURVE",
"727 807 OFFCURVE",
"697 807 CURVE SMOOTH",
"677 807 OFFCURVE",
"660 793 OFFCURVE",
"660 772 CURVE SMOOTH",
"660 751 OFFCURVE",
"675 738 OFFCURVE",
"692 738 CURVE SMOOTH",
"699 738 OFFCURVE",
"708 740 OFFCURVE",
"714 745 CURVE",
"714 717 OFFCURVE",
"665 700 OFFCURVE",
"623 700 CURVE SMOOTH",
"497 700 LINE",
"497 695 LINE",
"521 687 OFFCURVE",
"551 682 OFFCURVE",
"580 679 CURVE",
"580 200 LINE SMOOTH",
"580 60 OFFCURVE",
"493 12 OFFCURVE",
"375 12 CURVE SMOOTH",
"251 12 OFFCURVE",
"160 56 OFFCURVE",
"160 200 CURVE SMOOTH",
"160 679 LINE",
"189 682 OFFCURVE",
"218 687 OFFCURVE",
"242 695 CURVE",
"242 700 LINE",
"50 700 LINE",
"50 695 LINE",
"74 687 OFFCURVE",
"103 682 OFFCURVE",
"132 678 CURVE",
"132 207 LINE SMOOTH",
"132 51 OFFCURVE",
"224 -10 OFFCURVE",
"368 -10 CURVE SMOOTH"
);
}
);
width = 739;
}
);
leftKerningGroup = U;
note = Uhorn;
rightKerningGroup = U;
unicode = 01AF;
},
{
glyphname = Uhornacute;
layers = (
{
layerId = "3B510B5F-24E9-457B-9D94-D253B43C96E6";
name = Light;
paths = (
{
closed = 1;
nodes = (
"521 -10 OFFCURVE",
"606 51 OFFCURVE",
"606 207 CURVE SMOOTH",
"606 678 LINE",
"654 681 OFFCURVE",
"739 693 OFFCURVE",
"739 757 CURVE SMOOTH",
"739 788 OFFCURVE",
"727 807 OFFCURVE",
"697 807 CURVE SMOOTH",
"677 807 OFFCURVE",
"660 793 OFFCURVE",
"660 772 CURVE SMOOTH",
"660 751 OFFCURVE",
"675 738 OFFCURVE",
"692 738 CURVE SMOOTH",
"699 738 OFFCURVE",
"708 740 OFFCURVE",
"714 745 CURVE",
"714 717 OFFCURVE",
"665 700 OFFCURVE",
"623 700 CURVE SMOOTH",
"497 700 LINE",
"497 695 LINE",
"521 687 OFFCURVE",
"551 682 OFFCURVE",
"580 679 CURVE",
"580 200 LINE SMOOTH",
"580 60 OFFCURVE",
"493 12 OFFCURVE",
"375 12 CURVE SMOOTH",
"251 12 OFFCURVE",
"160 56 OFFCURVE",
"160 200 CURVE SMOOTH",
"160 679 LINE",
"189 682 OFFCURVE",
"218 687 OFFCURVE",
"242 695 CURVE",
"242 700 LINE",
"50 700 LINE",
"50 695 LINE",
"74 687 OFFCURVE",
"103 682 OFFCURVE",
"132 678 CURVE",
"132 207 LINE SMOOTH",
"132 51 OFFCURVE",
"224 -10 OFFCURVE",
"368 -10 CURVE SMOOTH"
);
},
{
closed = 1;
nodes = (
"427 857 LINE SMOOTH",
"438 863 OFFCURVE",
"443 872 OFFCURVE",
"443 880 CURVE SMOOTH",
"443 889 OFFCURVE",
"436 894 OFFCURVE",
"429 894 CURVE SMOOTH",
"419 894 OFFCURVE",
"410 889 OFFCURVE",
"403 882 CURVE",
"296 795 LINE",
"303 785 LINE"
);
}
);
width = 739;
}
);
leftKerningGroup = U;
note = Uhornacute;
rightKerningGroup = U;
unicode = 1EE8;
},
